<?xml version="1.0" encoding="UTF-8" standalone="no"?><!DOCTYPE score-partwise PUBLIC "-//Recordare//DTD MusicXML 3.1 Partwise//EN" "http://www.musicxml.org/dtds/partwise.dtd"><score-partwise version="3.1"><identification><encoding><software>Flat</software><encoding-date>2019-11-02</encoding-date></encoding><source>https://flat.io/score/5dbcf29e17ba55765648c3ac-dancing-the-jig</source></identification><defaults><scaling><millimeters>7</millimeters><tenths>40</tenths></scaling><page-layout><page-height>1697.142857142857</page-height><page-width>1200</page-width><page-margins type="both"><left-margin>98.28571428571429</left-margin><right-margin>98.28571428571429</right-margin><top-margin>98.28571428571429</top-margin><bottom-margin>98.28571428571429</bottom-margin></page-margins></page-layout><system-layout><system-distance>115.2</system-distance></system-layout><staff-layout><staff-distance>72.57142857142857</staff-distance></staff-layout></defaults><credit><credit-type>title</credit-type><credit-words>Dancing The Jig</credit-words></credit><part-list><score-part id="P1"><part-name/><score-instrument id="P1-I1"><instrument-name>Grand Piano</instrument-name></score-instrument><midi-instrument id="P1-I1"><midi-channel>1</midi-channel><midi-program>1</midi-program><volume>100</volume></midi-instrument></score-part></part-list><part id="P1"><measure number="1"><attributes><divisions>2</divisions><key><fifths>1</fifths></key><time><beats>6</beats><beat-type>8</beat-type></time><staves>2</staves><clef number="1"><sign>G</sign><line>2</line></clef><clef number="2"><sign>F</sign><line>4</line></clef><staff-details><staff-lines>5</staff-lines></staff-details></attributes><sound/><sound tempo="120"/><direction placement="below"><direction-type><dynamics><mp/></dynamics></direction-type><staff>1</staff><sound dynamics="64"/></direction><direction placement="above"><direction-type><metronome><beat-unit>quarter</beat-unit><per-minute>120</per-minute></metronome></direction-type><staff>1</staff></direction><note><pitch><step>G</step><octave>4</octave></pitch><duration>1</duration><voice>1</voice><type>eighth</type><staff>1</staff><beam number="1">begin</beam><notations><slur type="start" number="1"/></notations></note><note><pitch><step>A</step><octave>4</octave></pitch><duration>1</duration><voice>1</voice><type>eighth</type><staff>1</staff><beam number="1">continue</beam></note><note><pitch><step>B</step><octave>4</octave></pitch><duration>1</duration><voice>1</voice><type>eighth</type><staff>1</staff><beam number="1">end</beam><notations><slur type="stop" number="1"/></notations></note><note><pitch><step>B</step><octave>4</octave></pitch><duration>1</duration><voice>1</voice><type>eighth</type><staff>1</staff><beam number="1">begin</beam><notations><slur type="start" number="1"/></notations></note><note><pitch><step>C</step><octave>5</octave></pitch><duration>1</duration><voice>1</voice><type>eighth</type><staff>1</staff><beam number="1">continue</beam></note><note><pitch><step>D</step><octave>5</octave></pitch><duration>1</duration><voice>1</voice><type>eighth</type><staff>1</staff><beam number="1">end</beam><notations><slur type="stop" number="1"/></notations></note><backup><duration>6</duration></backup><note><pitch><step>G</step><octave>3</octave></pitch><duration>3</duration><voice>2</voice><type>quarter</type><dot/><staff>2</staff></note><note><chord/><pitch><step>B</step><octave>3</octave></pitch><duration>3</duration><voice>2</voice><type>quarter</type><dot/><staff>2</staff></note><note><chord/><pitch><step>D</step><octave>4</octave></pitch><duration>3</duration><voice>2</voice><type>quarter</type><dot/><staff>2</staff></note><note><pitch><step>G</step><octave>3</octave></pitch><duration>3</duration><voice>2</voice><type>quarter</type><dot/><staff>2</staff></note><note><chord/><pitch><step>B</step><octave>3</octave></pitch><duration>3</duration><voice>2</voice><type>quarter</type><dot/><staff>2</staff></note><note><chord/><pitch><step>D</step><octave>4</octave></pitch><duration>3</duration><voice>2</voice><type>quarter</type><dot/><staff>2</staff></note></measure><measure number="2"><attributes/><note><pitch><step>D</step><octave>5</octave></pitch><duration>1</duration><voice>1</voice><type>eighth</type><staff>1</staff><beam number="1">begin</beam><notations><slur type="start" number="1"/></notations></note><note><pitch><step>C</step><octave>5</octave></pitch><duration>1</duration><voice>1</voice><type>eighth</type><staff>1</staff><beam number="1">continue</beam></note><note><pitch><step>B</step><octave>4</octave></pitch><duration>1</duration><voice>1</voice><type>eighth</type><staff>1</staff><beam number="1">end</beam><notations><slur type="stop" number="1"/></notations></note><note><pitch><step>B</step><octave>4</octave></pitch><duration>1</duration><voice>1</voice><type>eighth</type><staff>1</staff><beam number="1">begin</beam><notations><slur type="start" number="1"/></notations></note><note><pitch><step>A</step><octave>4</octave></pitch><duration>1</duration><voice>1</voice><type>eighth</type><staff>1</staff><beam number="1">continue</beam></note><note><pitch><step>G</step><octave>4</octave></pitch><duration>1</duration><voice>1</voice><type>eighth</type><staff>1</staff><beam number="1">end</beam><notations><slur type="stop" number="1"/></notations></note><backup><duration>6</duration></backup><note><pitch><step>G</step><octave>3</octave></pitch><duration>3</duration><voice>2</voice><type>quarter</type><dot/><staff>2</staff></note><note><chord/><pitch><step>B</step><octave>3</octave></pitch><duration>3</duration><voice>2</voice><type>quarter</type><dot/><staff>2</staff></note><note><chord/><pitch><step>D</step><octave>4</octave></pitch><duration>3</duration><voice>2</voice><type>quarter</type><dot/><staff>2</staff></note><note><pitch><step>G</step><octave>3</octave></pitch><duration>3</duration><voice>2</voice><type>quarter</type><dot/><staff>2</staff></note><note><chord/><pitch><step>B</step><octave>3</octave></pitch><duration>3</duration><voice>2</voice><type>quarter</type><dot/><staff>2</staff></note><note><chord/><pitch><step>D</step><octave>4</octave></pitch><duration>3</duration><voice>2</voice><type>quarter</type><dot/><staff>2</staff></note></measure><measure number="3"><attributes/><note><pitch><step>C</step><octave>5</octave></pitch><duration>1</duration><voice>1</voice><type>eighth</type><staff>1</staff><beam number="1">begin</beam><notations><slur type="start" number="1"/></notations></note><note><pitch><step>D</step><octave>5</octave></pitch><duration>1</duration><voice>1</voice><type>eighth</type><staff>1</staff><beam number="1">continue</beam></note><note><pitch><step>C</step><octave>5</octave></pitch><duration>1</duration><voice>1</voice><type>eighth</type><staff>1</staff><beam number="1">end</beam><notations><slur type="stop" number="1"/></notations></note><note><pitch><step>A</step><octave>4</octave></pitch><duration>1</duration><voice>1</voice><type>eighth</type><staff>1</staff><beam number="1">begin</beam><notations><slur type="start" number="1"/><articulations><staccato/></articulations></notations></note><note><pitch><step>A</step><octave>4</octave></pitch><duration>1</duration><voice>1</voice><type>eighth</type><staff>1</staff><beam number="1">continue</beam><notations><articulations><staccato/></articulations></notations></note><note><pitch><step>A</step><octave>4</octave></pitch><duration>1</duration><voice>1</voice><type>eighth</type><staff>1</staff><beam number="1">end</beam><notations><slur type="stop" number="1"/><articulations><staccato/></articulations></notations></note><backup><duration>6</duration></backup><note><pitch><step>D</step><octave>4</octave></pitch><duration>3</duration><voice>2</voice><type>quarter</type><dot/><staff>2</staff></note><note><chord/><pitch><step>F</step><alter>1</alter><octave>3</octave></pitch><duration>3</duration><voice>2</voice><type>quarter</type><dot/><staff>2</staff></note><note><chord/><pitch><step>C</step><octave>4</octave></pitch><duration>3</duration><voice>2</voice><type>quarter</type><dot/><staff>2</staff></note><note><pitch><step>D</step><octave>4</octave></pitch><duration>3</duration><voice>2</voice><type>quarter</type><dot/><staff>2</staff></note><note><chord/><pitch><step>F</step><alter>1</alter><octave>3</octave></pitch><duration>3</duration><voice>2</voice><type>quarter</type><dot/><staff>2</staff></note><note><chord/><pitch><step>C</step><octave>4</octave></pitch><duration>3</duration><voice>2</voice><type>quarter</type><dot/><staff>2</staff></note></measure><measure number="4"><attributes/><note><pitch><step>B</step><octave>4</octave></pitch><duration>1</duration><voice>1</voice><type>eighth</type><staff>1</staff><beam number="1">begin</beam><notations><slur type="start" number="1"/></notations></note><note><pitch><step>D</step><octave>5</octave></pitch><duration>1</duration><voice>1</voice><type>eighth</type><staff>1</staff><beam number="1">continue</beam></note><note><pitch><step>B</step><octave>4</octave></pitch><duration>1</duration><voice>1</voice><type>eighth</type><staff>1</staff><beam number="1">end</beam></note><note><pitch><step>B</step><octave>4</octave></pitch><duration>3</duration><voice>1</voice><type>quarter</type><dot/><staff>1</staff><notations><slur type="stop" number="1"/></notations></note><backup><duration>6</duration></backup><note><pitch><step>G</step><octave>3</octave></pitch><duration>3</duration><voice>2</voice><type>quarter</type><dot/><staff>2</staff></note><note><chord/><pitch><step>B</step><octave>3</octave></pitch><duration>3</duration><voice>2</voice><type>quarter</type><dot/><staff>2</staff></note><note><chord/><pitch><step>D</step><octave>4</octave></pitch><duration>3</duration><voice>2</voice><type>quarter</type><dot/><staff>2</staff></note><note><pitch><step>G</step><octave>3</octave></pitch><duration>3</duration><voice>2</voice><type>quarter</type><dot/><staff>2</staff></note><note><chord/><pitch><step>B</step><octave>3</octave></pitch><duration>3</duration><voice>2</voice><type>quarter</type><dot/><staff>2</staff></note><note><chord/><pitch><step>D</step><octave>4</octave></pitch><duration>3</duration><voice>2</voice><type>quarter</type><dot/><staff>2</staff></note></measure><measure number="5"><attributes/><note><pitch><step>G</step><octave>4</octave></pitch><duration>1</duration><voice>1</voice><type>eighth</type><staff>1</staff><beam number="1">begin</beam><notations><slur type="start" number="1"/></notations></note><note><pitch><step>A</step><octave>4</octave></pitch><duration>1</duration><voice>1</voice><type>eighth</type><staff>1</staff><beam number="1">continue</beam></note><note><pitch><step>B</step><octave>4</octave></pitch><duration>1</duration><voice>1</voice><type>eighth</type><staff>1</staff><beam number="1">end</beam><notations><slur type="stop" number="1"/></notations></note><note><pitch><step>B</step><octave>4</octave></pitch><duration>1</duration><voice>1</voice><type>eighth</type><staff>1</staff><beam number="1">begin</beam><notations><slur type="start" number="1"/></notations></note><note><pitch><step>C</step><octave>5</octave></pitch><duration>1</duration><voice>1</voice><type>eighth</type><staff>1</staff><beam number="1">continue</beam></note><note><pitch><step>D</step><octave>5</octave></pitch><duration>1</duration><voice>1</voice><type>eighth</type><staff>1</staff><beam number="1">end</beam><notations><slur type="stop" number="1"/></notations></note><backup><duration>6</duration></backup><note><pitch><step>G</step><octave>3</octave></pitch><duration>3</duration><voice>2</voice><type>quarter</type><dot/><staff>2</staff></note><note><chord/><pitch><step>B</step><octave>3</octave></pitch><duration>3</duration><voice>2</voice><type>quarter</type><dot/><staff>2</staff></note><note><chord/><pitch><step>D</step><octave>4</octave></pitch><duration>3</duration><voice>2</voice><type>quarter</type><dot/><staff>2</staff></note><note><pitch><step>G</step><octave>3</octave></pitch><duration>3</duration><voice>2</voice><type>quarter</type><dot/><staff>2</staff></note><note><chord/><pitch><step>B</step><octave>3</octave></pitch><duration>3</duration><voice>2</voice><type>quarter</type><dot/><staff>2</staff></note><note><chord/><pitch><step>D</step><octave>4</octave></pitch><duration>3</duration><voice>2</voice><type>quarter</type><dot/><staff>2</staff></note></measure><measure number="6"><attributes/><note><pitch><step>D</step><octave>5</octave></pitch><duration>1</duration><voice>1</voice><type>eighth</type><staff>1</staff><beam number="1">begin</beam><notations><slur type="start" number="1"/></notations></note><note><pitch><step>C</step><octave>5</octave></pitch><duration>1</duration><voice>1</voice><type>eighth</type><staff>1</staff><beam number="1">continue</beam></note><note><pitch><step>B</step><octave>4</octave></pitch><duration>1</duration><voice>1</voice><type>eighth</type><staff>1</staff><beam number="1">end</beam><notations><slur type="stop" number="1"/></notations></note><note><pitch><step>B</step><octave>4</octave></pitch><duration>1</duration><voice>1</voice><type>eighth</type><staff>1</staff><beam number="1">begin</beam><notations><slur type="start" number="1"/></notations></note><note><pitch><step>A</step><octave>4</octave></pitch><duration>1</duration><voice>1</voice><type>eighth</type><staff>1</staff><beam number="1">continue</beam></note><note><pitch><step>G</step><octave>4</octave></pitch><duration>1</duration><voice>1</voice><type>eighth</type><staff>1</staff><beam number="1">end</beam><notations><slur type="stop" number="1"/></notations></note><backup><duration>6</duration></backup><note><pitch><step>G</step><octave>3</octave></pitch><duration>3</duration><voice>2</voice><type>quarter</type><dot/><staff>2</staff></note><note><chord/><pitch><step>B</step><octave>3</octave></pitch><duration>3</duration><voice>2</voice><type>quarter</type><dot/><staff>2</staff></note><note><chord/><pitch><step>D</step><octave>4</octave></pitch><duration>3</duration><voice>2</voice><type>quarter</type><dot/><staff>2</staff></note><note><pitch><step>G</step><octave>3</octave></pitch><duration>3</duration><voice>2</voice><type>quarter</type><dot/><staff>2</staff></note><note><chord/><pitch><step>B</step><octave>3</octave></pitch><duration>3</duration><voice>2</voice><type>quarter</type><dot/><staff>2</staff></note><note><chord/><pitch><step>D</step><octave>4</octave></pitch><duration>3</duration><voice>2</voice><type>quarter</type><dot/><staff>2</staff></note></measure><measure number="7"><attributes/><note><pitch><step>C</step><octave>5</octave></pitch><duration>1</duration><voice>1</voice><type>eighth</type><staff>1</staff><beam number="1">begin</beam><notations><slur type="start" number="1"/></notations></note><note><pitch><step>D</step><octave>5</octave></pitch><duration>1</duration><voice>1</voice><type>eighth</type><staff>1</staff><beam number="1">continue</beam></note><note><pitch><step>C</step><octave>5</octave></pitch><duration>1</duration><voice>1</voice><type>eighth</type><staff>1</staff><beam number="1">end</beam></note><note><pitch><step>A</step><octave>4</octave></pitch><duration>1</duration><voice>1</voice><type>eighth</type><staff>1</staff><beam number="1">begin</beam><notations><slur type="stop" number="1"/><articulations><staccato/></articulations></notations></note><note><pitch><step>C</step><octave>5</octave></pitch><duration>1</duration><voice>1</voice><type>eighth</type><staff>1</staff><beam number="1">continue</beam><notations><slur type="start" number="1"/></notations></note><note><pitch><step>A</step><octave>4</octave></pitch><duration>1</duration><voice>1</voice><type>eighth</type><staff>1</staff><beam number="1">end</beam></note><backup><duration>6</duration></backup><note><pitch><step>D</step><octave>4</octave></pitch><duration>3</duration><voice>2</voice><type>quarter</type><dot/><staff>2</staff></note><note><chord/><pitch><step>F</step><alter>1</alter><octave>3</octave></pitch><duration>3</duration><voice>2</voice><type>quarter</type><dot/><staff>2</staff></note><note><chord/><pitch><step>C</step><octave>4</octave></pitch><duration>3</duration><voice>2</voice><type>quarter</type><dot/><staff>2</staff></note><note><pitch><step>D</step><octave>4</octave></pitch><duration>3</duration><voice>2</voice><type>quarter</type><dot/><staff>2</staff></note><note><chord/><pitch><step>F</step><alter>1</alter><octave>3</octave></pitch><duration>3</duration><voice>2</voice><type>quarter</type><dot/><staff>2</staff></note><note><chord/><pitch><step>C</step><octave>4</octave></pitch><duration>3</duration><voice>2</voice><type>quarter</type><dot/><staff>2</staff></note></measure><measure number="8"><attributes/><note><pitch><step>G</step><octave>4</octave></pitch><duration>1</duration><voice>1</voice><type>eighth</type><staff>1</staff><beam number="1">begin</beam></note><note><pitch><step>G</step><octave>4</octave></pitch><duration>1</duration><voice>1</voice><type>eighth</type><staff>1</staff><beam number="1">continue</beam></note><note><pitch><step>B</step><octave>4</octave></pitch><duration>1</duration><voice>1</voice><type>eighth</type><staff>1</staff><beam number="1">end</beam></note><note><pitch><step>G</step><octave>4</octave></pitch><duration>3</duration><voice>1</voice><type>quarter</type><dot/><staff>1</staff><notations><slur type="stop" number="1"/></notations></note><backup><duration>6</duration></backup><note><pitch><step>G</step><octave>3</octave></pitch><duration>3</duration><voice>2</voice><type>quarter</type><dot/><staff>2</staff></note><note><chord/><pitch><step>B</step><octave>3</octave></pitch><duration>3</duration><voice>2</voice><type>quarter</type><dot/><staff>2</staff></note><note><chord/><pitch><step>D</step><octave>4</octave></pitch><duration>3</duration><voice>2</voice><type>quarter</type><dot/><staff>2</staff></note><note><pitch><step>G</step><octave>3</octave></pitch><duration>3</duration><voice>2</voice><type>quarter</type><dot/><staff>2</staff></note><note><chord/><pitch><step>B</step><octave>3</octave></pitch><duration>3</duration><voice>2</voice><type>quarter</type><dot/><staff>2</staff></note><note><chord/><pitch><step>D</step><octave>4</octave></pitch><duration>3</duration><voice>2</voice><type>quarter</type><dot/><staff>2</staff></note></measure><measure number="9"><attributes/><direction placement="below"><direction-type><dynamics><mf/></dynamics></direction-type><staff>1</staff><sound dynamics="84"/></direction><note><pitch><step>A</step><octave>4</octave></pitch><duration>1</duration><voice>1</voice><type>eighth</type><staff>1</staff><beam number="1">begin</beam><notations><slur type="start" number="1"/></notations></note><note><pitch><step>C</step><octave>5</octave></pitch><duration>1</duration><voice>1</voice><type>eighth</type><staff>1</staff><beam number="1">continue</beam><notations><slur type="stop" number="1"/><articulations><staccato/></articulations></notations></note><note><pitch><step>C</step><octave>5</octave></pitch><duration>1</duration><voice>1</voice><type>eighth</type><staff>1</staff><beam number="1">end</beam><notations><articulations><staccato/></articulations></notations></note><note><pitch><step>C</step><octave>5</octave></pitch><duration>1</duration><voice>1</voice><type>eighth</type><staff>1</staff><beam number="1">begin</beam><notations><slur type="start" number="1"/><articulations><accent/></articulations></notations></note><note><pitch><step>B</step><octave>4</octave></pitch><duration>1</duration><voice>1</voice><type>eighth</type><staff>1</staff><beam number="1">continue</beam></note><note><pitch><step>A</step><octave>4</octave></pitch><duration>1</duration><voice>1</voice><type>eighth</type><staff>1</staff><beam number="1">end</beam><notations><slur type="stop" number="1"/></notations></note><backup><duration>6</duration></backup><note><pitch><step>D</step><octave>4</octave></pitch><duration>3</duration><voice>2</voice><type>quarter</type><dot/><staff>2</staff></note><note><chord/><pitch><step>F</step><alter>1</alter><octave>3</octave></pitch><duration>3</duration><voice>2</voice><type>quarter</type><dot/><staff>2</staff></note><note><chord/><pitch><step>C</step><octave>4</octave></pitch><duration>3</duration><voice>2</voice><type>quarter</type><dot/><staff>2</staff></note><note><pitch><step>D</step><octave>4</octave></pitch><duration>3</duration><voice>2</voice><type>quarter</type><dot/><staff>2</staff></note><note><chord/><pitch><step>F</step><alter>1</alter><octave>3</octave></pitch><duration>3</duration><voice>2</voice><type>quarter</type><dot/><staff>2</staff></note><note><chord/><pitch><step>C</step><octave>4</octave></pitch><duration>3</duration><voice>2</voice><type>quarter</type><dot/><staff>2</staff></note></measure><measure number="10"><attributes/><note><pitch><step>B</step><octave>4</octave></pitch><duration>1</duration><voice>1</voice><type>eighth</type><staff>1</staff><beam number="1">begin</beam><notations><slur type="start" number="1"/></notations></note><note><pitch><step>D</step><octave>5</octave></pitch><duration>1</duration><voice>1</voice><type>eighth</type><staff>1</staff><beam number="1">continue</beam><notations><slur type="stop" number="1"/><articulations><staccato/></articulations></notations></note><note><pitch><step>D</step><octave>5</octave></pitch><duration>1</duration><voice>1</voice><type>eighth</type><staff>1</staff><beam number="1">end</beam><notations><articulations><staccato/></articulations></notations></note><note><pitch><step>D</step><octave>5</octave></pitch><duration>1</duration><voice>1</voice><type>eighth</type><staff>1</staff><beam number="1">begin</beam><notations><slur type="start" number="1"/><articulations><accent/></articulations></notations></note><note><pitch><step>C</step><octave>5</octave></pitch><duration>1</duration><voice>1</voice><type>eighth</type><staff>1</staff><beam number="1">continue</beam></note><note><pitch><step>B</step><octave>4</octave></pitch><duration>1</duration><voice>1</voice><type>eighth</type><staff>1</staff><beam number="1">end</beam><notations><slur type="stop" number="1"/></notations></note><backup><duration>6</duration></backup><note><pitch><step>G</step><octave>3</octave></pitch><duration>3</duration><voice>2</voice><type>quarter</type><dot/><staff>2</staff></note><note><chord/><pitch><step>B</step><octave>3</octave></pitch><duration>3</duration><voice>2</voice><type>quarter</type><dot/><staff>2</staff></note><note><chord/><pitch><step>D</step><octave>4</octave></pitch><duration>3</duration><voice>2</voice><type>quarter</type><dot/><staff>2</staff></note><note><pitch><step>G</step><octave>3</octave></pitch><duration>3</duration><voice>2</voice><type>quarter</type><dot/><staff>2</staff></note><note><chord/><pitch><step>B</step><octave>3</octave></pitch><duration>3</duration><voice>2</voice><type>quarter</type><dot/><staff>2</staff></note><note><chord/><pitch><step>D</step><octave>4</octave></pitch><duration>3</duration><voice>2</voice><type>quarter</type><dot/><staff>2</staff></note></measure><measure number="11"><attributes/><direction placement="below"><direction-type><dynamics><p/></dynamics></direction-type><staff>1</staff><sound dynamics="49"/></direction><note><pitch><step>A</step><octave>4</octave></pitch><duration>1</duration><voice>1</voice><type>eighth</type><staff>1</staff><beam number="1">begin</beam><notations><slur type="start" number="1"/></notations></note><note><pitch><step>C</step><octave>5</octave></pitch><duration>1</duration><voice>1</voice><type>eighth</type><staff>1</staff><beam number="1">continue</beam><notations><slur type="stop" number="1"/><articulations><staccato/></articulations></notations></note><note><pitch><step>C</step><octave>5</octave></pitch><duration>1</duration><voice>1</voice><type>eighth</type><staff>1</staff><beam number="1">end</beam><notations><articulations><staccato/></articulations></notations></note><note><pitch><step>C</step><octave>5</octave></pitch><duration>1</duration><voice>1</voice><type>eighth</type><staff>1</staff><beam number="1">begin</beam><notations><slur type="start" number="1"/><articulations><accent/></articulations></notations></note><note><pitch><step>B</step><octave>4</octave></pitch><duration>1</duration><voice>1</voice><type>eighth</type><staff>1</staff><beam number="1">continue</beam></note><note><pitch><step>A</step><octave>4</octave></pitch><duration>1</duration><voice>1</voice><type>eighth</type><staff>1</staff><beam number="1">end</beam></note><backup><duration>6</duration></backup><note><pitch><step>D</step><octave>4</octave></pitch><duration>3</duration><voice>2</voice><type>quarter</type><dot/><staff>2</staff></note><note><chord/><pitch><step>F</step><alter>1</alter><octave>3</octave></pitch><duration>3</duration><voice>2</voice><type>quarter</type><dot/><staff>2</staff></note><note><chord/><pitch><step>C</step><octave>4</octave></pitch><duration>3</duration><voice>2</voice><type>quarter</type><dot/><staff>2</staff></note><note><pitch><step>D</step><octave>4</octave></pitch><duration>3</duration><voice>2</voice><type>quarter</type><dot/><staff>2</staff></note><note><chord/><pitch><step>F</step><alter>1</alter><octave>3</octave></pitch><duration>3</duration><voice>2</voice><type>quarter</type><dot/><staff>2</staff></note><note><chord/><pitch><step>C</step><octave>4</octave></pitch><duration>3</duration><voice>2</voice><type>quarter</type><dot/><staff>2</staff></note></measure><measure number="12"><attributes/><note><pitch><step>B</step><octave>4</octave></pitch><duration>1</duration><voice>1</voice><type>eighth</type><staff>1</staff><beam number="1">begin</beam></note><note><pitch><step>G</step><octave>4</octave></pitch><duration>1</duration><voice>1</voice><type>eighth</type><staff>1</staff><beam number="1">continue</beam></note><note><pitch><step>B</step><octave>4</octave></pitch><duration>1</duration><voice>1</voice><type>eighth</type><staff>1</staff><beam number="1">end</beam></note><note><pitch><step>D</step><octave>5</octave></pitch><duration>3</duration><voice>1</voice><type>quarter</type><dot/><staff>1</staff><notations><slur type="stop" number="1"/></notations></note><backup><duration>6</duration></backup><note><pitch><step>G</step><octave>3</octave></pitch><duration>3</duration><voice>2</voice><type>quarter</type><dot/><staff>2</staff></note><note><chord/><pitch><step>B</step><octave>3</octave></pitch><duration>3</duration><voice>2</voice><type>quarter</type><dot/><staff>2</staff></note><note><chord/><pitch><step>D</step><octave>4</octave></pitch><duration>3</duration><voice>2</voice><type>quarter</type><dot/><staff>2</staff></note><note><pitch><step>G</step><octave>3</octave></pitch><duration>3</duration><voice>2</voice><type>quarter</type><dot/><staff>2</staff></note><note><chord/><pitch><step>B</step><octave>3</octave></pitch><duration>3</duration><voice>2</voice><type>quarter</type><dot/><staff>2</staff></note><note><chord/><pitch><step>D</step><octave>4</octave></pitch><duration>3</duration><voice>2</voice><type>quarter</type><dot/><staff>2</staff></note></measure><measure number="13"><attributes/><direction placement="below"><direction-type><dynamics><mp/></dynamics></direction-type><staff>1</staff><sound dynamics="64"/></direction><note><pitch><step>G</step><octave>4</octave></pitch><duration>1</duration><voice>1</voice><type>eighth</type><staff>1</staff><beam number="1">begin</beam><notations><slur type="start" number="1"/></notations></note><note><pitch><step>A</step><octave>4</octave></pitch><duration>1</duration><voice>1</voice><type>eighth</type><staff>1</staff><beam number="1">continue</beam></note><note><pitch><step>B</step><octave>4</octave></pitch><duration>1</duration><voice>1</voice><type>eighth</type><staff>1</staff><beam number="1">end</beam><notations><slur type="stop" number="1"/></notations></note><note><pitch><step>B</step><octave>4</octave></pitch><duration>1</duration><voice>1</voice><type>eighth</type><staff>1</staff><beam number="1">begin</beam><notations><slur type="start" number="1"/></notations></note><note><pitch><step>C</step><octave>5</octave></pitch><duration>1</duration><voice>1</voice><type>eighth</type><staff>1</staff><beam number="1">continue</beam></note><note><pitch><step>D</step><octave>5</octave></pitch><duration>1</duration><voice>1</voice><type>eighth</type><staff>1</staff><beam number="1">end</beam><notations><slur type="stop" number="1"/></notations></note><backup><duration>6</duration></backup><note><pitch><step>G</step><octave>3</octave></pitch><duration>3</duration><voice>2</voice><type>quarter</type><dot/><staff>2</staff></note><note><chord/><pitch><step>B</step><octave>3</octave></pitch><duration>3</duration><voice>2</voice><type>quarter</type><dot/><staff>2</staff></note><note><chord/><pitch><step>D</step><octave>4</octave></pitch><duration>3</duration><voice>2</voice><type>quarter</type><dot/><staff>2</staff></note><note><pitch><step>G</step><octave>3</octave></pitch><duration>3</duration><voice>2</voice><type>quarter</type><dot/><staff>2</staff></note><note><chord/><pitch><step>B</step><octave>3</octave></pitch><duration>3</duration><voice>2</voice><type>quarter</type><dot/><staff>2</staff></note><note><chord/><pitch><step>D</step><octave>4</octave></pitch><duration>3</duration><voice>2</voice><type>quarter</type><dot/><staff>2</staff></note></measure><measure number="14"><attributes/><note><pitch><step>D</step><octave>5</octave></pitch><duration>1</duration><voice>1</voice><type>eighth</type><staff>1</staff><beam number="1">begin</beam><notations><slur type="start" number="1"/></notations></note><note><pitch><step>C</step><octave>5</octave></pitch><duration>1</duration><voice>1</voice><type>eighth</type><staff>1</staff><beam number="1">continue</beam></note><note><pitch><step>B</step><octave>4</octave></pitch><duration>1</duration><voice>1</voice><type>eighth</type><staff>1</staff><beam number="1">end</beam><notations><slur type="stop" number="1"/></notations></note><note><pitch><step>B</step><octave>4</octave></pitch><duration>1</duration><voice>1</voice><type>eighth</type><staff>1</staff><beam number="1">begin</beam><notations><slur type="start" number="1"/></notations></note><note><pitch><step>A</step><octave>4</octave></pitch><duration>1</duration><voice>1</voice><type>eighth</type><staff>1</staff><beam number="1">continue</beam></note><note><pitch><step>G</step><octave>4</octave></pitch><duration>1</duration><voice>1</voice><type>eighth</type><staff>1</staff><beam number="1">end</beam><notations><slur type="stop" number="1"/></notations></note><backup><duration>6</duration></backup><note><pitch><step>G</step><octave>3</octave></pitch><duration>3</duration><voice>2</voice><type>quarter</type><dot/><staff>2</staff></note><note><chord/><pitch><step>B</step><octave>3</octave></pitch><duration>3</duration><voice>2</voice><type>quarter</type><dot/><staff>2</staff></note><note><chord/><pitch><step>D</step><octave>4</octave></pitch><duration>3</duration><voice>2</voice><type>quarter</type><dot/><staff>2</staff></note><note><pitch><step>G</step><octave>3</octave></pitch><duration>3</duration><voice>2</voice><type>quarter</type><dot/><staff>2</staff></note><note><chord/><pitch><step>B</step><octave>3</octave></pitch><duration>3</duration><voice>2</voice><type>quarter</type><dot/><staff>2</staff></note><note><chord/><pitch><step>D</step><octave>4</octave></pitch><duration>3</duration><voice>2</voice><type>quarter</type><dot/><staff>2</staff></note></measure><measure number="15"><attributes/><note><pitch><step>C</step><octave>5</octave></pitch><duration>1</duration><voice>1</voice><type>eighth</type><staff>1</staff><beam number="1">begin</beam><notations><slur type="start" number="1"/></notations></note><note><pitch><step>D</step><octave>5</octave></pitch><duration>1</duration><voice>1</voice><type>eighth</type><staff>1</staff><beam number="1">continue</beam></note><note><pitch><step>C</step><octave>5</octave></pitch><duration>1</duration><voice>1</voice><type>eighth</type><staff>1</staff><beam number="1">end</beam></note><note><pitch><step>A</step><octave>4</octave></pitch><duration>1</duration><voice>1</voice><type>eighth</type><staff>1</staff><beam number="1">begin</beam></note><note><pitch><step>C</step><octave>5</octave></pitch><duration>1</duration><voice>1</voice><type>eighth</type><staff>1</staff><beam number="1">continue</beam></note><note><pitch><step>A</step><octave>4</octave></pitch><duration>1</duration><voice>1</voice><type>eighth</type><staff>1</staff><beam number="1">end</beam></note><backup><duration>6</duration></backup><note><pitch><step>D</step><octave>4</octave></pitch><duration>3</duration><voice>2</voice><type>quarter</type><dot/><staff>2</staff></note><note><chord/><pitch><step>F</step><alter>1</alter><octave>3</octave></pitch><duration>3</duration><voice>2</voice><type>quarter</type><dot/><staff>2</staff></note><note><chord/><pitch><step>C</step><octave>4</octave></pitch><duration>3</duration><voice>2</voice><type>quarter</type><dot/><staff>2</staff></note><note><pitch><step>D</step><octave>4</octave></pitch><duration>3</duration><voice>2</voice><type>quarter</type><dot/><staff>2</staff></note><note><chord/><pitch><step>F</step><alter>1</alter><octave>3</octave></pitch><duration>3</duration><voice>2</voice><type>quarter</type><dot/><staff>2</staff></note><note><chord/><pitch><step>C</step><octave>4</octave></pitch><duration>3</duration><voice>2</voice><type>quarter</type><dot/><staff>2</staff></note></measure><measure number="16"><attributes/><note><pitch><step>G</step><octave>4</octave></pitch><duration>1</duration><voice>1</voice><type>eighth</type><staff>1</staff><beam number="1">begin</beam><notations><slur type="stop" number="1"/><articulations><staccato/></articulations></notations></note><note><pitch><step>D</step><octave>5</octave></pitch><duration>1</duration><voice>1</voice><type>eighth</type><staff>1</staff><beam number="1">continue</beam><notations><slur type="start" number="1"/></notations></note><note><pitch><step>B</step><octave>4</octave></pitch><duration>1</duration><voice>1</voice><type>eighth</type><staff>1</staff><beam number="1">end</beam></note><note><pitch><step>G</step><octave>4</octave></pitch><duration>3</duration><voice>1</voice><type>quarter</type><dot/><staff>1</staff><notations><slur type="stop" number="1"/></notations></note><backup><duration>6</duration></backup><note><pitch><step>G</step><octave>3</octave></pitch><duration>3</duration><voice>2</voice><type>quarter</type><dot/><staff>2</staff></note><note><chord/><pitch><step>B</step><octave>3</octave></pitch><duration>3</duration><voice>2</voice><type>quarter</type><dot/><staff>2</staff></note><note><chord/><pitch><step>D</step><octave>4</octave></pitch><duration>3</duration><voice>2</voice><type>quarter</type><dot/><staff>2</staff></note><note><pitch><step>G</step><octave>3</octave></pitch><duration>3</duration><voice>2</voice><type>quarter</type><dot/><staff>2</staff></note><note><chord/><pitch><step>B</step><octave>3</octave></pitch><duration>3</duration><voice>2</voice><type>quarter</type><dot/><staff>2</staff></note><note><chord/><pitch><step>D</step><octave>4</octave></pitch><duration>3</duration><voice>2</voice><type>quarter</type><dot/><staff>2</staff></note><barline location="right"><bar-style>light-heavy</bar-style></barline></measure></part></score-partwise>