<?xml version="1.0" encoding="UTF-8" standalone="no"?><!DOCTYPE score-partwise PUBLIC "-//Recordare//DTD MusicXML 3.1 Partwise//EN" "http://www.musicxml.org/dtds/partwise.dtd"><score-partwise version="3.1"><identification><encoding><software>Flat</software><encoding-date>2019-09-12</encoding-date></encoding><source>https://flat.io/score/5d74522f499b6226b7f47906-game-of-thrones</source></identification><defaults><scaling><millimeters>7</millimeters><tenths>40</tenths></scaling><page-layout><page-height>1697.142857142857</page-height><page-width>1200</page-width><page-margins type="both"><left-margin>98.28571428571429</left-margin><right-margin>98.28571428571429</right-margin><top-margin>98.28571428571429</top-margin><bottom-margin>98.28571428571429</bottom-margin></page-margins></page-layout><system-layout><system-distance>115.2</system-distance></system-layout><staff-layout><staff-distance>72.57142857142857</staff-distance></staff-layout></defaults><credit><credit-type>title</credit-type><credit-words>Game Of Thrones</credit-words></credit><part-list><score-part id="P1"><part-name/><score-instrument id="P1-I1"><instrument-name>Grand Piano</instrument-name></score-instrument><midi-instrument id="P1-I1"><midi-channel>1</midi-channel><midi-program>1</midi-program><volume>100</volume></midi-instrument></score-part></part-list><part id="P1"><measure number="1"><attributes><divisions>4</divisions><key><fifths>-3</fifths></key><time><beats>12</beats><beat-type>8</beat-type></time><staves>2</staves><clef number="1"><sign>G</sign><line>2</line></clef><clef number="2"><sign>F</sign><line>4</line></clef><staff-details><staff-lines>5</staff-lines></staff-details></attributes><sound/><sound tempo="100"/><direction placement="below"><direction-type><dynamics><pp/></dynamics></direction-type><staff>1</staff><sound dynamics="33"/></direction><direction placement="above"><direction-type><metronome><beat-unit>quarter</beat-unit><per-minute>100</per-minute></metronome></direction-type><staff>1</staff></direction><note><pitch><step>G</step><octave>4</octave></pitch><duration>2</duration><voice>1</voice><type>eighth</type><staff>1</staff><beam number="1">begin</beam></note><note><pitch><step>C</step><octave>4</octave></pitch><duration>2</duration><voice>1</voice><type>eighth</type><staff>1</staff><beam number="1">continue</beam></note><note><pitch><step>E</step><alter>-1</alter><octave>4</octave></pitch><duration>1</duration><voice>1</voice><type>16th</type><staff>1</staff><beam number="1">continue</beam><beam number="2">begin</beam></note><note><pitch><step>F</step><octave>4</octave></pitch><duration>1</duration><voice>1</voice><type>16th</type><staff>1</staff><beam number="1">end</beam><beam number="2">end</beam></note><note><pitch><step>G</step><octave>4</octave></pitch><duration>2</duration><voice>1</voice><type>eighth</type><staff>1</staff><beam number="1">begin</beam></note><note><pitch><step>C</step><octave>4</octave></pitch><duration>2</duration><voice>1</voice><type>eighth</type><staff>1</staff><beam number="1">continue</beam></note><note><pitch><step>E</step><alter>-1</alter><octave>4</octave></pitch><duration>1</duration><voice>1</voice><type>16th</type><staff>1</staff><beam number="1">continue</beam><beam number="2">begin</beam></note><note><pitch><step>F</step><octave>4</octave></pitch><duration>1</duration><voice>1</voice><type>16th</type><staff>1</staff><beam number="1">end</beam><beam number="2">end</beam></note><note><pitch><step>G</step><octave>4</octave></pitch><duration>2</duration><voice>1</voice><type>eighth</type><staff>1</staff><beam number="1">begin</beam></note><note><pitch><step>C</step><octave>4</octave></pitch><duration>2</duration><voice>1</voice><type>eighth</type><staff>1</staff><beam number="1">continue</beam></note><note><pitch><step>E</step><alter>-1</alter><octave>4</octave></pitch><duration>1</duration><voice>1</voice><type>16th</type><staff>1</staff><beam number="1">continue</beam><beam number="2">begin</beam></note><note><pitch><step>F</step><octave>4</octave></pitch><duration>1</duration><voice>1</voice><type>16th</type><staff>1</staff><beam number="1">end</beam><beam number="2">end</beam></note><note><pitch><step>G</step><octave>4</octave></pitch><duration>2</duration><voice>1</voice><type>eighth</type><staff>1</staff><beam number="1">begin</beam></note><note><pitch><step>C</step><octave>4</octave></pitch><duration>2</duration><voice>1</voice><type>eighth</type><staff>1</staff><beam number="1">continue</beam></note><note><pitch><step>E</step><octave>4</octave></pitch><duration>1</duration><voice>1</voice><type>16th</type><accidental>natural</accidental><staff>1</staff><beam number="1">continue</beam><beam number="2">begin</beam></note><note><pitch><step>F</step><octave>4</octave></pitch><duration>1</duration><voice>1</voice><type>16th</type><staff>1</staff><beam number="1">end</beam><beam number="2">end</beam></note><backup><duration>24</duration></backup><note><pitch><step>G</step><octave>3</octave></pitch><duration>2</duration><voice>2</voice><type>eighth</type><staff>2</staff><beam number="1">begin</beam></note><note><chord/><pitch><step>C</step><octave>3</octave></pitch><duration>2</duration><voice>2</voice><type>eighth</type><staff>2</staff></note><note><pitch><step>G</step><octave>3</octave></pitch><duration>2</duration><voice>2</voice><type>eighth</type><staff>2</staff><beam number="1">continue</beam></note><note><chord/><pitch><step>C</step><octave>3</octave></pitch><duration>2</duration><voice>2</voice><type>eighth</type><staff>2</staff></note><note><pitch><step>G</step><octave>3</octave></pitch><duration>2</duration><voice>2</voice><type>eighth</type><staff>2</staff><beam number="1">end</beam></note><note><chord/><pitch><step>C</step><octave>3</octave></pitch><duration>2</duration><voice>2</voice><type>eighth</type><staff>2</staff></note><note><pitch><step>G</step><octave>3</octave></pitch><duration>2</duration><voice>2</voice><type>eighth</type><staff>2</staff><beam number="1">begin</beam></note><note><chord/><pitch><step>C</step><octave>3</octave></pitch><duration>2</duration><voice>2</voice><type>eighth</type><staff>2</staff></note><note><pitch><step>G</step><octave>3</octave></pitch><duration>2</duration><voice>2</voice><type>eighth</type><staff>2</staff><beam number="1">continue</beam></note><note><chord/><pitch><step>C</step><octave>3</octave></pitch><duration>2</duration><voice>2</voice><type>eighth</type><staff>2</staff></note><note><pitch><step>G</step><octave>3</octave></pitch><duration>2</duration><voice>2</voice><type>eighth</type><staff>2</staff><beam number="1">end</beam></note><note><chord/><pitch><step>C</step><octave>3</octave></pitch><duration>2</duration><voice>2</voice><type>eighth</type><staff>2</staff></note><note><pitch><step>G</step><octave>3</octave></pitch><duration>2</duration><voice>2</voice><type>eighth</type><staff>2</staff><beam number="1">begin</beam></note><note><chord/><pitch><step>C</step><octave>3</octave></pitch><duration>2</duration><voice>2</voice><type>eighth</type><staff>2</staff></note><note><pitch><step>G</step><octave>3</octave></pitch><duration>2</duration><voice>2</voice><type>eighth</type><staff>2</staff><beam number="1">continue</beam></note><note><chord/><pitch><step>C</step><octave>3</octave></pitch><duration>2</duration><voice>2</voice><type>eighth</type><staff>2</staff></note><note><pitch><step>C</step><octave>3</octave></pitch><duration>2</duration><voice>2</voice><type>eighth</type><staff>2</staff><beam number="1">end</beam></note><note><chord/><pitch><step>G</step><octave>3</octave></pitch><duration>2</duration><voice>2</voice><type>eighth</type><staff>2</staff></note><note><pitch><step>G</step><octave>3</octave></pitch><duration>2</duration><voice>2</voice><type>eighth</type><staff>2</staff><beam number="1">begin</beam></note><note><chord/><pitch><step>C</step><octave>3</octave></pitch><duration>2</duration><voice>2</voice><type>eighth</type><staff>2</staff></note><note><pitch><step>C</step><octave>3</octave></pitch><duration>2</duration><voice>2</voice><type>eighth</type><staff>2</staff><beam number="1">continue</beam></note><note><chord/><pitch><step>G</step><octave>3</octave></pitch><duration>2</duration><voice>2</voice><type>eighth</type><staff>2</staff></note><note><pitch><step>C</step><octave>3</octave></pitch><duration>2</duration><voice>2</voice><type>eighth</type><staff>2</staff><beam number="1">end</beam></note><note><chord/><pitch><step>G</step><octave>3</octave></pitch><duration>2</duration><voice>2</voice><type>eighth</type><staff>2</staff></note></measure><measure number="2"><attributes/><direction placement="below"><direction-type><dynamics><f/></dynamics></direction-type><staff>1</staff><sound dynamics="90"/></direction><note><pitch><step>G</step><octave>4</octave></pitch><duration>2</duration><voice>1</voice><type>eighth</type><staff>1</staff><beam number="1">begin</beam></note><note><pitch><step>C</step><octave>4</octave></pitch><duration>2</duration><voice>1</voice><type>eighth</type><staff>1</staff><beam number="1">continue</beam></note><note><pitch><step>E</step><octave>4</octave></pitch><duration>1</duration><voice>1</voice><type>16th</type><accidental>natural</accidental><staff>1</staff><beam number="1">continue</beam><beam number="2">begin</beam></note><note><pitch><step>F</step><octave>4</octave></pitch><duration>1</duration><voice>1</voice><type>16th</type><staff>1</staff><beam number="1">end</beam><beam number="2">end</beam></note><direction placement="below"><direction-type><dynamics><p/></dynamics></direction-type><staff>1</staff><sound dynamics="49"/></direction><note><pitch><step>G</step><octave>4</octave></pitch><duration>2</duration><voice>1</voice><type>eighth</type><staff>1</staff><beam number="1">begin</beam></note><note><pitch><step>C</step><octave>4</octave></pitch><duration>2</duration><voice>1</voice><type>eighth</type><staff>1</staff><beam number="1">continue</beam></note><note><pitch><step>E</step><octave>4</octave></pitch><duration>1</duration><voice>1</voice><type>16th</type><staff>1</staff><beam number="1">continue</beam><beam number="2">begin</beam></note><note><pitch><step>F</step><octave>4</octave></pitch><duration>1</duration><voice>1</voice><type>16th</type><staff>1</staff><beam number="1">end</beam><beam number="2">end</beam></note><note><pitch><step>G</step><octave>4</octave></pitch><duration>2</duration><voice>1</voice><type>eighth</type><staff>1</staff><beam number="1">begin</beam></note><note><pitch><step>C</step><octave>4</octave></pitch><duration>2</duration><voice>1</voice><type>eighth</type><staff>1</staff><beam number="1">continue</beam></note><note><pitch><step>E</step><octave>4</octave></pitch><duration>1</duration><voice>1</voice><type>16th</type><staff>1</staff><beam number="1">continue</beam><beam number="2">begin</beam></note><note><pitch><step>F</step><octave>4</octave></pitch><duration>1</duration><voice>1</voice><type>16th</type><staff>1</staff><beam number="1">end</beam><beam number="2">end</beam></note><note><pitch><step>G</step><octave>4</octave></pitch><duration>2</duration><voice>1</voice><type>eighth</type><staff>1</staff><beam number="1">begin</beam></note><note><pitch><step>C</step><octave>4</octave></pitch><duration>2</duration><voice>1</voice><type>eighth</type><staff>1</staff><beam number="1">continue</beam></note><note><pitch><step>E</step><octave>4</octave></pitch><duration>1</duration><voice>1</voice><type>16th</type><staff>1</staff><beam number="1">continue</beam><beam number="2">begin</beam></note><note><pitch><step>F</step><octave>4</octave></pitch><duration>1</duration><voice>1</voice><type>16th</type><staff>1</staff><beam number="1">end</beam><beam number="2">end</beam></note><backup><duration>24</duration></backup><note><pitch><step>C</step><octave>3</octave></pitch><duration>2</duration><voice>2</voice><type>eighth</type><staff>2</staff><beam number="1">begin</beam></note><note><chord/><pitch><step>C</step><octave>2</octave></pitch><duration>2</duration><voice>2</voice><type>eighth</type><staff>2</staff></note><note><pitch><step>C</step><octave>3</octave></pitch><duration>2</duration><voice>2</voice><type>eighth</type><staff>2</staff><beam number="1">continue</beam></note><note><chord/><pitch><step>C</step><octave>2</octave></pitch><duration>2</duration><voice>2</voice><type>eighth</type><staff>2</staff></note><note><pitch><step>C</step><octave>3</octave></pitch><duration>2</duration><voice>2</voice><type>eighth</type><staff>2</staff><beam number="1">end</beam></note><note><chord/><pitch><step>C</step><octave>2</octave></pitch><duration>2</duration><voice>2</voice><type>eighth</type><staff>2</staff></note><note><pitch><step>C</step><octave>3</octave></pitch><duration>2</duration><voice>2</voice><type>eighth</type><staff>2</staff><beam number="1">begin</beam></note><note><chord/><pitch><step>C</step><octave>2</octave></pitch><duration>2</duration><voice>2</voice><type>eighth</type><staff>2</staff></note><note><pitch><step>C</step><octave>3</octave></pitch><duration>2</duration><voice>2</voice><type>eighth</type><staff>2</staff><beam number="1">continue</beam></note><note><chord/><pitch><step>C</step><octave>2</octave></pitch><duration>2</duration><voice>2</voice><type>eighth</type><staff>2</staff></note><note><pitch><step>C</step><octave>3</octave></pitch><duration>2</duration><voice>2</voice><type>eighth</type><staff>2</staff><beam number="1">end</beam></note><note><chord/><pitch><step>C</step><octave>2</octave></pitch><duration>2</duration><voice>2</voice><type>eighth</type><staff>2</staff></note><note><pitch><step>C</step><octave>3</octave></pitch><duration>2</duration><voice>2</voice><type>eighth</type><staff>2</staff><beam number="1">begin</beam></note><note><chord/><pitch><step>C</step><octave>2</octave></pitch><duration>2</duration><voice>2</voice><type>eighth</type><staff>2</staff></note><note><pitch><step>C</step><octave>3</octave></pitch><duration>2</duration><voice>2</voice><type>eighth</type><staff>2</staff><beam number="1">continue</beam></note><note><chord/><pitch><step>C</step><octave>2</octave></pitch><duration>2</duration><voice>2</voice><type>eighth</type><staff>2</staff></note><note><pitch><step>C</step><octave>3</octave></pitch><duration>2</duration><voice>2</voice><type>eighth</type><staff>2</staff><beam number="1">end</beam></note><note><chord/><pitch><step>C</step><octave>2</octave></pitch><duration>2</duration><voice>2</voice><type>eighth</type><staff>2</staff></note><note><pitch><step>C</step><octave>3</octave></pitch><duration>2</duration><voice>2</voice><type>eighth</type><staff>2</staff><beam number="1">begin</beam></note><note><chord/><pitch><step>C</step><octave>2</octave></pitch><duration>2</duration><voice>2</voice><type>eighth</type><staff>2</staff></note><note><pitch><step>C</step><octave>3</octave></pitch><duration>2</duration><voice>2</voice><type>eighth</type><staff>2</staff><beam number="1">continue</beam></note><note><chord/><pitch><step>C</step><octave>2</octave></pitch><duration>2</duration><voice>2</voice><type>eighth</type><staff>2</staff></note><note><pitch><step>C</step><octave>3</octave></pitch><duration>2</duration><voice>2</voice><type>eighth</type><staff>2</staff><beam number="1">end</beam></note><note><chord/><pitch><step>C</step><octave>2</octave></pitch><duration>2</duration><voice>2</voice><type>eighth</type><staff>2</staff></note></measure><measure number="3"><attributes/><direction placement="below"><direction-type><dynamics><f/></dynamics></direction-type><staff>1</staff><sound dynamics="90"/></direction><note><pitch><step>G</step><octave>4</octave></pitch><duration>6</duration><voice>1</voice><type>quarter</type><dot/><staff>1</staff></note><note><chord/><pitch><step>C</step><octave>4</octave></pitch><duration>6</duration><voice>1</voice><type>quarter</type><dot/><staff>1</staff></note><note><chord/><pitch><step>G</step><octave>3</octave></pitch><duration>6</duration><voice>1</voice><type>quarter</type><dot/><staff>1</staff></note><note><pitch><step>C</step><octave>4</octave></pitch><duration>6</duration><voice>1</voice><type>quarter</type><dot/><staff>1</staff></note><note><chord/><pitch><step>G</step><octave>3</octave></pitch><duration>6</duration><voice>1</voice><type>quarter</type><dot/><staff>1</staff></note><note><pitch><step>E</step><alter>-1</alter><octave>4</octave></pitch><duration>1</duration><voice>1</voice><type>16th</type><staff>1</staff><beam number="1">begin</beam><beam number="2">begin</beam></note><note><chord/><pitch><step>G</step><octave>3</octave></pitch><duration>1</duration><tie type="start"/><voice>1</voice><type>16th</type><staff>1</staff><notations><tied type="start"/></notations></note><note><pitch><step>G</step><octave>3</octave></pitch><duration>1</duration><tie type="stop"/><tie type="start"/><voice>1</voice><type>16th</type><staff>1</staff><beam number="1">end</beam><beam number="2">end</beam><notations><tied type="stop"/><tied type="start"/></notations></note><note><chord/><pitch><step>F</step><octave>4</octave></pitch><duration>1</duration><voice>1</voice><type>16th</type><staff>1</staff></note><note><pitch><step>G</step><octave>4</octave></pitch><duration>4</duration><voice>1</voice><type>quarter</type><staff>1</staff></note><note><chord/><pitch><step>G</step><octave>3</octave></pitch><duration>4</duration><tie type="stop"/><voice>1</voice><type>quarter</type><staff>1</staff><notations><tied type="stop"/></notations></note><note><pitch><step>C</step><octave>4</octave></pitch><duration>4</duration><voice>1</voice><type>quarter</type><staff>1</staff></note><note><chord/><pitch><step>G</step><octave>3</octave></pitch><duration>4</duration><voice>1</voice><type>quarter</type><staff>1</staff></note><note><pitch><step>E</step><alter>-1</alter><octave>4</octave></pitch><duration>1</duration><voice>1</voice><type>16th</type><staff>1</staff><beam number="1">begin</beam><beam number="2">begin</beam></note><note><chord/><pitch><step>G</step><octave>3</octave></pitch><duration>1</duration><tie type="start"/><voice>1</voice><type>16th</type><staff>1</staff><notations><tied type="start"/></notations></note><note><pitch><step>F</step><octave>4</octave></pitch><duration>1</duration><voice>1</voice><type>16th</type><staff>1</staff><beam number="1">end</beam><beam number="2">end</beam></note><note><chord/><pitch><step>G</step><octave>3</octave></pitch><duration>1</duration><tie type="stop"/><voice>1</voice><type>16th</type><staff>1</staff><notations><tied type="stop"/></notations></note><backup><duration>24</duration></backup><note><pitch><step>C</step><octave>3</octave></pitch><duration>2</duration><voice>2</voice><type>eighth</type><staff>2</staff><beam number="1">begin</beam></note><note><chord/><pitch><step>C</step><octave>2</octave></pitch><duration>2</duration><voice>2</voice><type>eighth</type><staff>2</staff></note><note><pitch><step>C</step><octave>2</octave></pitch><duration>1</duration><voice>2</voice><type>16th</type><staff>2</staff><beam number="1">continue</beam><beam number="2">begin</beam></note><note><pitch><step>C</step><octave>3</octave></pitch><duration>1</duration><voice>2</voice><type>16th</type><staff>2</staff><beam number="1">continue</beam><beam number="2">continue</beam></note><note><pitch><step>G</step><octave>2</octave></pitch><duration>1</duration><voice>2</voice><type>16th</type><staff>2</staff><beam number="1">continue</beam><beam number="2">continue</beam></note><note><pitch><step>C</step><octave>2</octave></pitch><duration>1</duration><voice>2</voice><type>16th</type><staff>2</staff><beam number="1">end</beam><beam number="2">end</beam></note><note><pitch><step>C</step><octave>3</octave></pitch><duration>2</duration><voice>2</voice><type>eighth</type><staff>2</staff><beam number="1">begin</beam></note><note><pitch><step>C</step><octave>2</octave></pitch><duration>1</duration><voice>2</voice><type>16th</type><staff>2</staff><beam number="1">continue</beam><beam number="2">begin</beam></note><note><pitch><step>C</step><octave>3</octave></pitch><duration>1</duration><voice>2</voice><type>16th</type><staff>2</staff><beam number="1">continue</beam><beam number="2">continue</beam></note><note><pitch><step>G</step><octave>2</octave></pitch><duration>1</duration><voice>2</voice><type>16th</type><staff>2</staff><beam number="1">continue</beam><beam number="2">continue</beam></note><note><pitch><step>C</step><octave>2</octave></pitch><duration>1</duration><voice>2</voice><type>16th</type><staff>2</staff><beam number="1">end</beam><beam number="2">end</beam></note><note><pitch><step>C</step><octave>3</octave></pitch><duration>1</duration><voice>2</voice><type>16th</type><staff>2</staff><beam number="1">begin</beam><beam number="2">begin</beam></note><note><pitch><step>G</step><octave>2</octave></pitch><duration>1</duration><voice>2</voice><type>16th</type><staff>2</staff><beam number="1">continue</beam><beam number="2">continue</beam></note><note><pitch><step>C</step><octave>2</octave></pitch><duration>1</duration><voice>2</voice><type>16th</type><staff>2</staff><beam number="1">continue</beam><beam number="2">continue</beam></note><note><pitch><step>C</step><octave>3</octave></pitch><duration>1</duration><voice>2</voice><type>16th</type><staff>2</staff><beam number="1">continue</beam><beam number="2">continue</beam></note><note><pitch><step>G</step><octave>2</octave></pitch><duration>1</duration><voice>2</voice><type>16th</type><staff>2</staff><beam number="1">continue</beam><beam number="2">continue</beam></note><note><pitch><step>C</step><octave>2</octave></pitch><duration>1</duration><voice>2</voice><type>16th</type><staff>2</staff><beam number="1">end</beam><beam number="2">end</beam></note><note><pitch><step>C</step><octave>3</octave></pitch><duration>2</duration><voice>2</voice><type>eighth</type><staff>2</staff><beam number="1">begin</beam></note><note><chord/><pitch><step>C</step><octave>2</octave></pitch><duration>2</duration><voice>2</voice><type>eighth</type><staff>2</staff></note><note><pitch><step>C</step><octave>2</octave></pitch><duration>2</duration><voice>2</voice><type>eighth</type><staff>2</staff><beam number="1">continue</beam></note><note><chord/><pitch><step>C</step><octave>3</octave></pitch><duration>2</duration><voice>2</voice><type>eighth</type><staff>2</staff></note><note><pitch><step>C</step><octave>3</octave></pitch><duration>2</duration><voice>2</voice><type>eighth</type><staff>2</staff><beam number="1">end</beam></note><note><chord/><pitch><step>C</step><octave>2</octave></pitch><duration>2</duration><voice>2</voice><type>eighth</type><staff>2</staff></note></measure><measure number="4"><attributes/><note><pitch><step>D</step><octave>4</octave></pitch><duration>2</duration><voice>1</voice><type>eighth</type><staff>1</staff><beam number="1">begin</beam></note><direction placement="below"><direction-type><dynamics><p/></dynamics></direction-type><staff>1</staff><sound dynamics="49"/></direction><note><pitch><step>G</step><octave>3</octave></pitch><duration>2</duration><voice>1</voice><type>eighth</type><staff>1</staff><beam number="1">continue</beam></note><note><pitch><step>B</step><alter>-1</alter><octave>3</octave></pitch><duration>1</duration><voice>1</voice><type>16th</type><staff>1</staff><beam number="1">continue</beam><beam number="2">begin</beam></note><note><pitch><step>C</step><octave>4</octave></pitch><duration>1</duration><voice>1</voice><type>16th</type><staff>1</staff><beam number="1">end</beam><beam number="2">end</beam></note><note><pitch><step>D</step><octave>4</octave></pitch><duration>2</duration><voice>1</voice><type>eighth</type><staff>1</staff><beam number="1">begin</beam></note><note><pitch><step>G</step><octave>3</octave></pitch><duration>2</duration><voice>1</voice><type>eighth</type><staff>1</staff><beam number="1">continue</beam></note><note><pitch><step>B</step><alter>-1</alter><octave>3</octave></pitch><duration>1</duration><voice>1</voice><type>16th</type><staff>1</staff><beam number="1">continue</beam><beam number="2">begin</beam></note><note><pitch><step>C</step><octave>4</octave></pitch><duration>1</duration><voice>1</voice><type>16th</type><staff>1</staff><beam number="1">end</beam><beam number="2">end</beam></note><note><pitch><step>D</step><octave>4</octave></pitch><duration>2</duration><voice>1</voice><type>eighth</type><staff>1</staff><beam number="1">begin</beam></note><note><pitch><step>G</step><octave>3</octave></pitch><duration>2</duration><voice>1</voice><type>eighth</type><staff>1</staff><beam number="1">continue</beam></note><note><pitch><step>B</step><alter>-1</alter><octave>3</octave></pitch><duration>1</duration><voice>1</voice><type>16th</type><staff>1</staff><beam number="1">continue</beam><beam number="2">begin</beam></note><note><pitch><step>C</step><octave>4</octave></pitch><duration>1</duration><voice>1</voice><type>16th</type><staff>1</staff><beam number="1">end</beam><beam number="2">end</beam></note><note><pitch><step>D</step><octave>4</octave></pitch><duration>2</duration><voice>1</voice><type>eighth</type><staff>1</staff><beam number="1">begin</beam></note><note><pitch><step>G</step><octave>3</octave></pitch><duration>2</duration><voice>1</voice><type>eighth</type><staff>1</staff><beam number="1">continue</beam></note><note><pitch><step>B</step><alter>-1</alter><octave>3</octave></pitch><duration>1</duration><voice>1</voice><type>16th</type><staff>1</staff><beam number="1">continue</beam><beam number="2">begin</beam></note><note><pitch><step>C</step><octave>4</octave></pitch><duration>1</duration><voice>1</voice><type>16th</type><staff>1</staff><beam number="1">end</beam><beam number="2">end</beam></note><backup><duration>24</duration></backup><note><pitch><step>D</step><octave>3</octave></pitch><duration>2</duration><voice>2</voice><type>eighth</type><staff>2</staff><beam number="1">begin</beam></note><note><chord/><pitch><step>G</step><octave>2</octave></pitch><duration>2</duration><voice>2</voice><type>eighth</type><staff>2</staff></note><note><pitch><step>D</step><octave>3</octave></pitch><duration>2</duration><voice>2</voice><type>eighth</type><staff>2</staff><beam number="1">continue</beam></note><note><chord/><pitch><step>G</step><octave>2</octave></pitch><duration>2</duration><voice>2</voice><type>eighth</type><staff>2</staff></note><note><pitch><step>D</step><octave>3</octave></pitch><duration>2</duration><voice>2</voice><type>eighth</type><staff>2</staff><beam number="1">end</beam></note><note><chord/><pitch><step>G</step><octave>2</octave></pitch><duration>2</duration><voice>2</voice><type>eighth</type><staff>2</staff></note><note><pitch><step>D</step><octave>3</octave></pitch><duration>2</duration><voice>2</voice><type>eighth</type><staff>2</staff><beam number="1">begin</beam></note><note><chord/><pitch><step>G</step><octave>2</octave></pitch><duration>2</duration><voice>2</voice><type>eighth</type><staff>2</staff></note><note><pitch><step>D</step><octave>3</octave></pitch><duration>2</duration><voice>2</voice><type>eighth</type><staff>2</staff><beam number="1">continue</beam></note><note><chord/><pitch><step>G</step><octave>2</octave></pitch><duration>2</duration><voice>2</voice><type>eighth</type><staff>2</staff></note><note><pitch><step>D</step><octave>3</octave></pitch><duration>2</duration><voice>2</voice><type>eighth</type><staff>2</staff><beam number="1">end</beam></note><note><chord/><pitch><step>G</step><octave>2</octave></pitch><duration>2</duration><voice>2</voice><type>eighth</type><staff>2</staff></note><note><pitch><step>G</step><octave>2</octave></pitch><duration>2</duration><voice>2</voice><type>eighth</type><staff>2</staff><beam number="1">begin</beam></note><note><chord/><pitch><step>D</step><octave>3</octave></pitch><duration>2</duration><voice>2</voice><type>eighth</type><staff>2</staff></note><note><pitch><step>D</step><octave>3</octave></pitch><duration>2</duration><voice>2</voice><type>eighth</type><staff>2</staff><beam number="1">continue</beam></note><note><chord/><pitch><step>G</step><octave>2</octave></pitch><duration>2</duration><voice>2</voice><type>eighth</type><staff>2</staff></note><note><pitch><step>D</step><octave>3</octave></pitch><duration>2</duration><voice>2</voice><type>eighth</type><staff>2</staff><beam number="1">end</beam></note><note><chord/><pitch><step>G</step><octave>2</octave></pitch><duration>2</duration><voice>2</voice><type>eighth</type><staff>2</staff></note><note><pitch><step>D</step><octave>3</octave></pitch><duration>2</duration><voice>2</voice><type>eighth</type><staff>2</staff><beam number="1">begin</beam></note><note><chord/><pitch><step>G</step><octave>2</octave></pitch><duration>2</duration><voice>2</voice><type>eighth</type><staff>2</staff></note><note><pitch><step>D</step><octave>3</octave></pitch><duration>2</duration><voice>2</voice><type>eighth</type><staff>2</staff><beam number="1">continue</beam></note><note><chord/><pitch><step>G</step><octave>2</octave></pitch><duration>2</duration><voice>2</voice><type>eighth</type><staff>2</staff></note><note><pitch><step>D</step><octave>3</octave></pitch><duration>2</duration><voice>2</voice><type>eighth</type><staff>2</staff><beam number="1">end</beam></note><note><chord/><pitch><step>G</step><octave>2</octave></pitch><duration>2</duration><voice>2</voice><type>eighth</type><staff>2</staff></note></measure><measure number="5"><attributes/><direction placement="below"><direction-type><dynamics><f/></dynamics></direction-type><staff>1</staff><sound dynamics="90"/></direction><note><pitch><step>F</step><octave>4</octave></pitch><duration>6</duration><voice>1</voice><type>quarter</type><dot/><staff>1</staff></note><note><chord/><pitch><step>B</step><alter>-1</alter><octave>3</octave></pitch><duration>6</duration><voice>1</voice><type>quarter</type><dot/><staff>1</staff></note><note><chord/><pitch><step>F</step><octave>3</octave></pitch><duration>6</duration><voice>1</voice><type>quarter</type><dot/><staff>1</staff></note><note><pitch><step>B</step><alter>-1</alter><octave>3</octave></pitch><duration>6</duration><voice>1</voice><type>quarter</type><dot/><staff>1</staff></note><note><chord/><pitch><step>F</step><octave>3</octave></pitch><duration>6</duration><voice>1</voice><type>quarter</type><dot/><staff>1</staff></note><note><pitch><step>E</step><alter>-1</alter><octave>4</octave></pitch><duration>1</duration><voice>1</voice><type>16th</type><staff>1</staff><beam number="1">begin</beam><beam number="2">begin</beam></note><note><chord/><pitch><step>F</step><octave>3</octave></pitch><duration>1</duration><tie type="start"/><voice>1</voice><type>16th</type><staff>1</staff><notations><tied type="start"/></notations></note><note><pitch><step>D</step><octave>4</octave></pitch><duration>1</duration><voice>1</voice><type>16th</type><staff>1</staff><beam number="1">end</beam><beam number="2">end</beam></note><note><chord/><pitch><step>F</step><octave>3</octave></pitch><duration>1</duration><tie type="stop"/><tie type="start"/><voice>1</voice><type>16th</type><staff>1</staff><notations><tied type="stop"/><tied type="start"/></notations></note><note><pitch><step>F</step><octave>4</octave></pitch><duration>4</duration><voice>1</voice><type>quarter</type><staff>1</staff></note><note><chord/><pitch><step>F</step><octave>3</octave></pitch><duration>4</duration><tie type="stop"/><voice>1</voice><type>quarter</type><staff>1</staff><notations><tied type="stop"/></notations></note><note><pitch><step>B</step><alter>-1</alter><octave>3</octave></pitch><duration>4</duration><voice>1</voice><type>quarter</type><staff>1</staff></note><note><chord/><pitch><step>F</step><octave>3</octave></pitch><duration>4</duration><voice>1</voice><type>quarter</type><staff>1</staff></note><note><pitch><step>E</step><alter>-1</alter><octave>4</octave></pitch><duration>1</duration><voice>1</voice><type>16th</type><staff>1</staff><beam number="1">begin</beam><beam number="2">begin</beam></note><note><chord/><pitch><step>F</step><octave>3</octave></pitch><duration>1</duration><tie type="start"/><voice>1</voice><type>16th</type><staff>1</staff><notations><tied type="start"/></notations></note><note><pitch><step>D</step><octave>4</octave></pitch><duration>1</duration><voice>1</voice><type>16th</type><staff>1</staff><beam number="1">end</beam><beam number="2">end</beam></note><note><chord/><pitch><step>F</step><octave>3</octave></pitch><duration>1</duration><tie type="stop"/><voice>1</voice><type>16th</type><staff>1</staff><notations><tied type="stop"/></notations></note><backup><duration>24</duration></backup><note><pitch><step>B</step><alter>-1</alter><octave>2</octave></pitch><duration>2</duration><voice>2</voice><type>eighth</type><staff>2</staff><beam number="1">begin</beam></note><note><pitch><step>B</step><alter>-1</alter><octave>1</octave></pitch><duration>1</duration><voice>2</voice><type>16th</type><staff>2</staff><beam number="1">continue</beam><beam number="2">begin</beam></note><note><pitch><step>B</step><alter>-1</alter><octave>2</octave></pitch><duration>1</duration><voice>2</voice><type>16th</type><staff>2</staff><beam number="1">continue</beam><beam number="2">continue</beam></note><note><pitch><step>F</step><octave>2</octave></pitch><duration>1</duration><voice>2</voice><type>16th</type><staff>2</staff><beam number="1">continue</beam><beam number="2">continue</beam></note><note><pitch><step>B</step><alter>-1</alter><octave>1</octave></pitch><duration>1</duration><voice>2</voice><type>16th</type><staff>2</staff><beam number="1">end</beam><beam number="2">end</beam></note><note><pitch><step>B</step><alter>-1</alter><octave>2</octave></pitch><duration>2</duration><voice>2</voice><type>eighth</type><staff>2</staff><beam number="1">begin</beam></note><note><pitch><step>B</step><alter>-1</alter><octave>1</octave></pitch><duration>1</duration><voice>2</voice><type>16th</type><staff>2</staff><beam number="1">continue</beam><beam number="2">begin</beam></note><note><pitch><step>B</step><alter>-1</alter><octave>2</octave></pitch><duration>1</duration><voice>2</voice><type>16th</type><staff>2</staff><beam number="1">continue</beam><beam number="2">continue</beam></note><note><pitch><step>F</step><octave>2</octave></pitch><duration>1</duration><voice>2</voice><type>16th</type><staff>2</staff><beam number="1">continue</beam><beam number="2">continue</beam></note><note><pitch><step>B</step><alter>-1</alter><octave>1</octave></pitch><duration>1</duration><voice>2</voice><type>16th</type><staff>2</staff><beam number="1">end</beam><beam number="2">end</beam></note><note><pitch><step>B</step><alter>-1</alter><octave>2</octave></pitch><duration>1</duration><voice>2</voice><type>16th</type><staff>2</staff><beam number="1">begin</beam><beam number="2">begin</beam></note><note><pitch><step>F</step><octave>2</octave></pitch><duration>1</duration><voice>2</voice><type>16th</type><staff>2</staff><beam number="1">continue</beam><beam number="2">continue</beam></note><note><pitch><step>B</step><alter>-1</alter><octave>1</octave></pitch><duration>1</duration><voice>2</voice><type>16th</type><staff>2</staff><beam number="1">continue</beam><beam number="2">continue</beam></note><note><pitch><step>B</step><alter>-1</alter><octave>2</octave></pitch><duration>1</duration><voice>2</voice><type>16th</type><staff>2</staff><beam number="1">continue</beam><beam number="2">continue</beam></note><note><pitch><step>F</step><octave>2</octave></pitch><duration>1</duration><voice>2</voice><type>16th</type><staff>2</staff><beam number="1">continue</beam><beam number="2">continue</beam></note><note><pitch><step>B</step><alter>-1</alter><octave>1</octave></pitch><duration>1</duration><voice>2</voice><type>16th</type><staff>2</staff><beam number="1">end</beam><beam number="2">end</beam></note><note><pitch><step>B</step><alter>-1</alter><octave>2</octave></pitch><duration>2</duration><voice>2</voice><type>eighth</type><staff>2</staff><beam number="1">begin</beam></note><note><chord/><pitch><step>B</step><alter>-1</alter><octave>1</octave></pitch><duration>2</duration><voice>2</voice><type>eighth</type><staff>2</staff></note><note><pitch><step>B</step><alter>-1</alter><octave>2</octave></pitch><duration>2</duration><voice>2</voice><type>eighth</type><staff>2</staff><beam number="1">continue</beam></note><note><chord/><pitch><step>B</step><alter>-1</alter><octave>1</octave></pitch><duration>2</duration><voice>2</voice><type>eighth</type><staff>2</staff></note><note><pitch><step>B</step><alter>-1</alter><octave>2</octave></pitch><duration>2</duration><voice>2</voice><type>eighth</type><staff>2</staff><beam number="1">end</beam></note><note><chord/><pitch><step>B</step><alter>-1</alter><octave>1</octave></pitch><duration>2</duration><voice>2</voice><type>eighth</type><staff>2</staff></note></measure><measure number="6"><attributes/><note><pitch><step>C</step><octave>4</octave></pitch><duration>2</duration><voice>1</voice><type>eighth</type><staff>1</staff><beam number="1">begin</beam></note><direction placement="below"><direction-type><dynamics><p/></dynamics></direction-type><staff>1</staff><sound dynamics="49"/></direction><note><pitch><step>G</step><octave>3</octave></pitch><duration>2</duration><voice>1</voice><type>eighth</type><staff>1</staff><beam number="1">continue</beam></note><note><pitch><step>A</step><alter>-1</alter><octave>3</octave></pitch><duration>1</duration><voice>1</voice><type>16th</type><staff>1</staff><beam number="1">continue</beam><beam number="2">begin</beam></note><note><pitch><step>B</step><alter>-1</alter><octave>3</octave></pitch><duration>1</duration><voice>1</voice><type>16th</type><staff>1</staff><beam number="1">end</beam><beam number="2">end</beam></note><note><pitch><step>C</step><octave>4</octave></pitch><duration>2</duration><voice>1</voice><type>eighth</type><staff>1</staff><beam number="1">begin</beam></note><note><pitch><step>G</step><octave>3</octave></pitch><duration>2</duration><voice>1</voice><type>eighth</type><staff>1</staff><beam number="1">continue</beam></note><note><pitch><step>A</step><alter>-1</alter><octave>3</octave></pitch><duration>1</duration><voice>1</voice><type>16th</type><staff>1</staff><beam number="1">continue</beam><beam number="2">begin</beam></note><note><pitch><step>B</step><alter>-1</alter><octave>3</octave></pitch><duration>1</duration><voice>1</voice><type>16th</type><staff>1</staff><beam number="1">end</beam><beam number="2">end</beam></note><note><pitch><step>C</step><octave>4</octave></pitch><duration>2</duration><voice>1</voice><type>eighth</type><staff>1</staff><beam number="1">begin</beam></note><note><pitch><step>G</step><octave>3</octave></pitch><duration>2</duration><voice>1</voice><type>eighth</type><staff>1</staff><beam number="1">continue</beam></note><note><pitch><step>A</step><alter>-1</alter><octave>3</octave></pitch><duration>1</duration><voice>1</voice><type>16th</type><staff>1</staff><beam number="1">continue</beam><beam number="2">begin</beam></note><note><pitch><step>B</step><alter>-1</alter><octave>3</octave></pitch><duration>1</duration><voice>1</voice><type>16th</type><staff>1</staff><beam number="1">end</beam><beam number="2">end</beam></note><note><pitch><step>C</step><octave>4</octave></pitch><duration>2</duration><voice>1</voice><type>eighth</type><staff>1</staff><beam number="1">begin</beam></note><note><pitch><step>G</step><octave>3</octave></pitch><duration>2</duration><voice>1</voice><type>eighth</type><staff>1</staff><beam number="1">continue</beam></note><note><pitch><step>A</step><alter>-1</alter><octave>3</octave></pitch><duration>1</duration><voice>1</voice><type>16th</type><staff>1</staff><beam number="1">continue</beam><beam number="2">begin</beam></note><note><pitch><step>B</step><alter>-1</alter><octave>3</octave></pitch><duration>1</duration><voice>1</voice><type>16th</type><staff>1</staff><beam number="1">end</beam><beam number="2">end</beam></note><backup><duration>24</duration></backup><note><pitch><step>C</step><octave>3</octave></pitch><duration>2</duration><voice>2</voice><type>eighth</type><staff>2</staff><beam number="1">begin</beam></note><note><chord/><pitch><step>C</step><octave>2</octave></pitch><duration>2</duration><voice>2</voice><type>eighth</type><staff>2</staff></note><note><pitch><step>C</step><octave>3</octave></pitch><duration>2</duration><voice>2</voice><type>eighth</type><staff>2</staff><beam number="1">continue</beam></note><note><chord/><pitch><step>C</step><octave>2</octave></pitch><duration>2</duration><voice>2</voice><type>eighth</type><staff>2</staff></note><note><pitch><step>C</step><octave>3</octave></pitch><duration>2</duration><voice>2</voice><type>eighth</type><staff>2</staff><beam number="1">end</beam></note><note><chord/><pitch><step>C</step><octave>2</octave></pitch><duration>2</duration><voice>2</voice><type>eighth</type><staff>2</staff></note><note><pitch><step>C</step><octave>3</octave></pitch><duration>2</duration><voice>2</voice><type>eighth</type><staff>2</staff><beam number="1">begin</beam></note><note><chord/><pitch><step>C</step><octave>2</octave></pitch><duration>2</duration><voice>2</voice><type>eighth</type><staff>2</staff></note><note><pitch><step>C</step><octave>3</octave></pitch><duration>2</duration><voice>2</voice><type>eighth</type><staff>2</staff><beam number="1">continue</beam></note><note><chord/><pitch><step>C</step><octave>2</octave></pitch><duration>2</duration><voice>2</voice><type>eighth</type><staff>2</staff></note><note><pitch><step>C</step><octave>3</octave></pitch><duration>2</duration><voice>2</voice><type>eighth</type><staff>2</staff><beam number="1">end</beam></note><note><chord/><pitch><step>C</step><octave>2</octave></pitch><duration>2</duration><voice>2</voice><type>eighth</type><staff>2</staff></note><note><pitch><step>C</step><octave>3</octave></pitch><duration>2</duration><voice>2</voice><type>eighth</type><staff>2</staff><beam number="1">begin</beam></note><note><chord/><pitch><step>C</step><octave>2</octave></pitch><duration>2</duration><voice>2</voice><type>eighth</type><staff>2</staff></note><note><pitch><step>C</step><octave>3</octave></pitch><duration>2</duration><voice>2</voice><type>eighth</type><staff>2</staff><beam number="1">continue</beam></note><note><chord/><pitch><step>C</step><octave>2</octave></pitch><duration>2</duration><voice>2</voice><type>eighth</type><staff>2</staff></note><note><pitch><step>C</step><octave>3</octave></pitch><duration>2</duration><voice>2</voice><type>eighth</type><staff>2</staff><beam number="1">end</beam></note><note><chord/><pitch><step>C</step><octave>2</octave></pitch><duration>2</duration><voice>2</voice><type>eighth</type><staff>2</staff></note><note><pitch><step>C</step><octave>3</octave></pitch><duration>2</duration><voice>2</voice><type>eighth</type><staff>2</staff><beam number="1">begin</beam></note><note><chord/><pitch><step>C</step><octave>2</octave></pitch><duration>2</duration><voice>2</voice><type>eighth</type><staff>2</staff></note><note><pitch><step>C</step><octave>3</octave></pitch><duration>2</duration><voice>2</voice><type>eighth</type><staff>2</staff><beam number="1">continue</beam></note><note><chord/><pitch><step>C</step><octave>2</octave></pitch><duration>2</duration><voice>2</voice><type>eighth</type><staff>2</staff></note><note><pitch><step>C</step><octave>3</octave></pitch><duration>2</duration><voice>2</voice><type>eighth</type><staff>2</staff><beam number="1">end</beam></note><note><chord/><pitch><step>C</step><octave>2</octave></pitch><duration>2</duration><voice>2</voice><type>eighth</type><staff>2</staff></note></measure><measure number="7"><attributes/><direction placement="below"><direction-type><dynamics><f/></dynamics></direction-type><staff>1</staff><sound dynamics="90"/></direction><note><pitch><step>G</step><octave>4</octave></pitch><duration>6</duration><voice>1</voice><type>quarter</type><dot/><staff>1</staff></note><note><chord/><pitch><step>C</step><octave>4</octave></pitch><duration>6</duration><voice>1</voice><type>quarter</type><dot/><staff>1</staff></note><note><chord/><pitch><step>G</step><octave>3</octave></pitch><duration>6</duration><voice>1</voice><type>quarter</type><dot/><staff>1</staff></note><note><pitch><step>C</step><octave>4</octave></pitch><duration>6</duration><voice>1</voice><type>quarter</type><dot/><staff>1</staff></note><note><chord/><pitch><step>G</step><octave>3</octave></pitch><duration>6</duration><voice>1</voice><type>quarter</type><dot/><staff>1</staff></note><note><pitch><step>E</step><alter>-1</alter><octave>4</octave></pitch><duration>1</duration><voice>1</voice><type>16th</type><staff>1</staff><beam number="1">begin</beam><beam number="2">begin</beam></note><note><chord/><pitch><step>G</step><octave>3</octave></pitch><duration>1</duration><tie type="start"/><voice>1</voice><type>16th</type><staff>1</staff><notations><tied type="start"/></notations></note><note><pitch><step>F</step><octave>4</octave></pitch><duration>1</duration><voice>1</voice><type>16th</type><staff>1</staff><beam number="1">end</beam><beam number="2">end</beam></note><note><chord/><pitch><step>G</step><octave>3</octave></pitch><duration>1</duration><tie type="stop"/><tie type="start"/><voice>1</voice><type>16th</type><staff>1</staff><notations><tied type="stop"/><tied type="start"/></notations></note><note><pitch><step>G</step><octave>4</octave></pitch><duration>4</duration><voice>1</voice><type>quarter</type><staff>1</staff></note><note><chord/><pitch><step>G</step><octave>3</octave></pitch><duration>4</duration><tie type="stop"/><voice>1</voice><type>quarter</type><staff>1</staff><notations><tied type="stop"/></notations></note><note><pitch><step>C</step><octave>4</octave></pitch><duration>4</duration><voice>1</voice><type>quarter</type><staff>1</staff></note><note><chord/><pitch><step>G</step><octave>3</octave></pitch><duration>4</duration><voice>1</voice><type>quarter</type><staff>1</staff></note><note><pitch><step>E</step><alter>-1</alter><octave>4</octave></pitch><duration>1</duration><voice>1</voice><type>16th</type><staff>1</staff><beam number="1">begin</beam><beam number="2">begin</beam></note><note><chord/><pitch><step>G</step><octave>3</octave></pitch><duration>1</duration><tie type="start"/><voice>1</voice><type>16th</type><staff>1</staff><notations><tied type="start"/></notations></note><note><pitch><step>F</step><octave>4</octave></pitch><duration>1</duration><voice>1</voice><type>16th</type><staff>1</staff><beam number="1">end</beam><beam number="2">end</beam></note><note><chord/><pitch><step>G</step><octave>3</octave></pitch><duration>1</duration><tie type="stop"/><voice>1</voice><type>16th</type><staff>1</staff><notations><tied type="stop"/></notations></note><backup><duration>24</duration></backup><note><pitch><step>C</step><octave>2</octave></pitch><duration>2</duration><voice>2</voice><type>eighth</type><staff>2</staff><beam number="1">begin</beam></note><note><chord/><pitch><step>C</step><octave>3</octave></pitch><duration>2</duration><voice>2</voice><type>eighth</type><staff>2</staff></note><note><pitch><step>C</step><octave>2</octave></pitch><duration>1</duration><voice>2</voice><type>16th</type><staff>2</staff><beam number="1">continue</beam><beam number="2">begin</beam></note><note><pitch><step>C</step><octave>3</octave></pitch><duration>1</duration><voice>2</voice><type>16th</type><staff>2</staff><beam number="1">continue</beam><beam number="2">continue</beam></note><note><pitch><step>G</step><octave>2</octave></pitch><duration>1</duration><voice>2</voice><type>16th</type><staff>2</staff><beam number="1">continue</beam><beam number="2">continue</beam></note><note><pitch><step>C</step><octave>2</octave></pitch><duration>1</duration><voice>2</voice><type>16th</type><staff>2</staff><beam number="1">end</beam><beam number="2">end</beam></note><note><pitch><step>C</step><octave>3</octave></pitch><duration>2</duration><voice>2</voice><type>eighth</type><staff>2</staff><beam number="1">begin</beam></note><note><pitch><step>C</step><octave>2</octave></pitch><duration>1</duration><voice>2</voice><type>16th</type><staff>2</staff><beam number="1">continue</beam><beam number="2">begin</beam></note><note><pitch><step>C</step><octave>3</octave></pitch><duration>1</duration><voice>2</voice><type>16th</type><staff>2</staff><beam number="1">continue</beam><beam number="2">continue</beam></note><note><pitch><step>G</step><octave>2</octave></pitch><duration>1</duration><voice>2</voice><type>16th</type><staff>2</staff><beam number="1">continue</beam><beam number="2">continue</beam></note><note><pitch><step>C</step><octave>2</octave></pitch><duration>1</duration><voice>2</voice><type>16th</type><staff>2</staff><beam number="1">end</beam><beam number="2">end</beam></note><note><pitch><step>C</step><octave>3</octave></pitch><duration>1</duration><voice>2</voice><type>16th</type><staff>2</staff><beam number="1">begin</beam><beam number="2">begin</beam></note><note><pitch><step>G</step><octave>2</octave></pitch><duration>1</duration><voice>2</voice><type>16th</type><staff>2</staff><beam number="1">continue</beam><beam number="2">continue</beam></note><note><pitch><step>C</step><octave>2</octave></pitch><duration>1</duration><voice>2</voice><type>16th</type><staff>2</staff><beam number="1">continue</beam><beam number="2">continue</beam></note><note><pitch><step>C</step><octave>3</octave></pitch><duration>1</duration><voice>2</voice><type>16th</type><staff>2</staff><beam number="1">continue</beam><beam number="2">continue</beam></note><note><pitch><step>G</step><octave>2</octave></pitch><duration>1</duration><voice>2</voice><type>16th</type><staff>2</staff><beam number="1">continue</beam><beam number="2">continue</beam></note><note><pitch><step>C</step><octave>2</octave></pitch><duration>1</duration><voice>2</voice><type>16th</type><staff>2</staff><beam number="1">end</beam><beam number="2">end</beam></note><note><pitch><step>C</step><octave>3</octave></pitch><duration>2</duration><voice>2</voice><type>eighth</type><staff>2</staff><beam number="1">begin</beam></note><note><chord/><pitch><step>C</step><octave>2</octave></pitch><duration>2</duration><voice>2</voice><type>eighth</type><staff>2</staff></note><note><pitch><step>C</step><octave>3</octave></pitch><duration>2</duration><voice>2</voice><type>eighth</type><staff>2</staff><beam number="1">continue</beam></note><note><chord/><pitch><step>C</step><octave>2</octave></pitch><duration>2</duration><voice>2</voice><type>eighth</type><staff>2</staff></note><note><pitch><step>C</step><octave>3</octave></pitch><duration>2</duration><voice>2</voice><type>eighth</type><staff>2</staff><beam number="1">end</beam></note><note><chord/><pitch><step>C</step><octave>2</octave></pitch><duration>2</duration><voice>2</voice><type>eighth</type><staff>2</staff></note></measure><measure number="8"><attributes/><note><pitch><step>D</step><octave>4</octave></pitch><duration>2</duration><voice>1</voice><type>eighth</type><staff>1</staff><beam number="1">begin</beam></note><direction placement="below"><direction-type><dynamics><p/></dynamics></direction-type><staff>1</staff><sound dynamics="49"/></direction><note><pitch><step>G</step><octave>3</octave></pitch><duration>2</duration><voice>1</voice><type>eighth</type><staff>1</staff><beam number="1">continue</beam></note><note><pitch><step>B</step><alter>-1</alter><octave>3</octave></pitch><duration>1</duration><voice>1</voice><type>16th</type><staff>1</staff><beam number="1">continue</beam><beam number="2">begin</beam></note><note><pitch><step>C</step><octave>4</octave></pitch><duration>1</duration><voice>1</voice><type>16th</type><staff>1</staff><beam number="1">end</beam><beam number="2">end</beam></note><note><pitch><step>D</step><octave>4</octave></pitch><duration>2</duration><voice>1</voice><type>eighth</type><staff>1</staff><beam number="1">begin</beam></note><note><pitch><step>G</step><octave>3</octave></pitch><duration>2</duration><voice>1</voice><type>eighth</type><staff>1</staff><beam number="1">continue</beam></note><note><pitch><step>B</step><alter>-1</alter><octave>3</octave></pitch><duration>1</duration><voice>1</voice><type>16th</type><staff>1</staff><beam number="1">continue</beam><beam number="2">begin</beam></note><note><pitch><step>C</step><octave>4</octave></pitch><duration>1</duration><voice>1</voice><type>16th</type><staff>1</staff><beam number="1">end</beam><beam number="2">end</beam></note><note><pitch><step>D</step><octave>4</octave></pitch><duration>2</duration><voice>1</voice><type>eighth</type><staff>1</staff><beam number="1">begin</beam></note><note><pitch><step>G</step><octave>3</octave></pitch><duration>2</duration><voice>1</voice><type>eighth</type><staff>1</staff><beam number="1">continue</beam></note><note><pitch><step>B</step><alter>-1</alter><octave>3</octave></pitch><duration>1</duration><voice>1</voice><type>16th</type><staff>1</staff><beam number="1">continue</beam><beam number="2">begin</beam></note><note><pitch><step>C</step><octave>4</octave></pitch><duration>1</duration><voice>1</voice><type>16th</type><staff>1</staff><beam number="1">end</beam><beam number="2">end</beam></note><note><pitch><step>D</step><octave>4</octave></pitch><duration>2</duration><voice>1</voice><type>eighth</type><staff>1</staff><beam number="1">begin</beam></note><note><pitch><step>G</step><octave>3</octave></pitch><duration>2</duration><voice>1</voice><type>eighth</type><staff>1</staff><beam number="1">continue</beam></note><note><pitch><step>B</step><alter>-1</alter><octave>3</octave></pitch><duration>1</duration><voice>1</voice><type>16th</type><staff>1</staff><beam number="1">continue</beam><beam number="2">begin</beam></note><note><pitch><step>C</step><octave>4</octave></pitch><duration>1</duration><voice>1</voice><type>16th</type><staff>1</staff><beam number="1">end</beam><beam number="2">end</beam></note><backup><duration>24</duration></backup><note><pitch><step>D</step><octave>3</octave></pitch><duration>2</duration><voice>2</voice><type>eighth</type><staff>2</staff><beam number="1">begin</beam></note><note><chord/><pitch><step>G</step><octave>2</octave></pitch><duration>2</duration><voice>2</voice><type>eighth</type><staff>2</staff></note><note><pitch><step>D</step><octave>3</octave></pitch><duration>2</duration><voice>2</voice><type>eighth</type><staff>2</staff><beam number="1">continue</beam></note><note><chord/><pitch><step>G</step><octave>2</octave></pitch><duration>2</duration><voice>2</voice><type>eighth</type><staff>2</staff></note><note><pitch><step>D</step><octave>3</octave></pitch><duration>2</duration><voice>2</voice><type>eighth</type><staff>2</staff><beam number="1">end</beam></note><note><chord/><pitch><step>G</step><octave>2</octave></pitch><duration>2</duration><voice>2</voice><type>eighth</type><staff>2</staff></note><note><pitch><step>D</step><octave>3</octave></pitch><duration>2</duration><voice>2</voice><type>eighth</type><staff>2</staff><beam number="1">begin</beam></note><note><chord/><pitch><step>G</step><octave>2</octave></pitch><duration>2</duration><voice>2</voice><type>eighth</type><staff>2</staff></note><note><pitch><step>D</step><octave>3</octave></pitch><duration>2</duration><voice>2</voice><type>eighth</type><staff>2</staff><beam number="1">continue</beam></note><note><chord/><pitch><step>G</step><octave>2</octave></pitch><duration>2</duration><voice>2</voice><type>eighth</type><staff>2</staff></note><note><pitch><step>D</step><octave>3</octave></pitch><duration>2</duration><voice>2</voice><type>eighth</type><staff>2</staff><beam number="1">end</beam></note><note><chord/><pitch><step>G</step><octave>2</octave></pitch><duration>2</duration><voice>2</voice><type>eighth</type><staff>2</staff></note><note><pitch><step>D</step><octave>3</octave></pitch><duration>2</duration><voice>2</voice><type>eighth</type><staff>2</staff><beam number="1">begin</beam></note><note><chord/><pitch><step>G</step><octave>2</octave></pitch><duration>2</duration><voice>2</voice><type>eighth</type><staff>2</staff></note><note><pitch><step>D</step><octave>3</octave></pitch><duration>2</duration><voice>2</voice><type>eighth</type><staff>2</staff><beam number="1">continue</beam></note><note><chord/><pitch><step>G</step><octave>2</octave></pitch><duration>2</duration><voice>2</voice><type>eighth</type><staff>2</staff></note><note><pitch><step>D</step><octave>3</octave></pitch><duration>2</duration><voice>2</voice><type>eighth</type><staff>2</staff><beam number="1">end</beam></note><note><chord/><pitch><step>G</step><octave>2</octave></pitch><duration>2</duration><voice>2</voice><type>eighth</type><staff>2</staff></note><note><pitch><step>D</step><octave>3</octave></pitch><duration>2</duration><voice>2</voice><type>eighth</type><staff>2</staff><beam number="1">begin</beam></note><note><chord/><pitch><step>G</step><octave>2</octave></pitch><duration>2</duration><voice>2</voice><type>eighth</type><staff>2</staff></note><note><pitch><step>D</step><octave>3</octave></pitch><duration>2</duration><voice>2</voice><type>eighth</type><staff>2</staff><beam number="1">continue</beam></note><note><chord/><pitch><step>G</step><octave>2</octave></pitch><duration>2</duration><voice>2</voice><type>eighth</type><staff>2</staff></note><note><pitch><step>D</step><octave>3</octave></pitch><duration>2</duration><voice>2</voice><type>eighth</type><staff>2</staff><beam number="1">end</beam></note><note><chord/><pitch><step>G</step><octave>2</octave></pitch><duration>2</duration><voice>2</voice><type>eighth</type><staff>2</staff></note></measure><measure number="9"><attributes/><direction placement="below"><direction-type><dynamics><f/></dynamics></direction-type><staff>1</staff><sound dynamics="90"/></direction><note><pitch><step>F</step><octave>4</octave></pitch><duration>6</duration><voice>1</voice><type>quarter</type><dot/><staff>1</staff></note><note><chord/><pitch><step>F</step><octave>3</octave></pitch><duration>6</duration><voice>1</voice><type>quarter</type><dot/><staff>1</staff></note><note><chord/><pitch><step>B</step><alter>-1</alter><octave>3</octave></pitch><duration>6</duration><voice>1</voice><type>quarter</type><dot/><staff>1</staff></note><note><pitch><step>F</step><octave>3</octave></pitch><duration>6</duration><voice>1</voice><type>quarter</type><dot/><staff>1</staff></note><note><chord/><pitch><step>B</step><alter>-1</alter><octave>3</octave></pitch><duration>6</duration><voice>1</voice><type>quarter</type><dot/><staff>1</staff></note><note><pitch><step>D</step><octave>4</octave></pitch><duration>4</duration><voice>1</voice><type>quarter</type><staff>1</staff></note><note><chord/><pitch><step>F</step><octave>3</octave></pitch><duration>4</duration><voice>1</voice><type>quarter</type><staff>1</staff></note><note><pitch><step>E</step><alter>-1</alter><octave>4</octave></pitch><duration>2</duration><voice>1</voice><type>eighth</type><staff>1</staff></note><note><chord/><pitch><step>F</step><octave>3</octave></pitch><duration>2</duration><voice>1</voice><type>eighth</type><staff>1</staff></note><note><pitch><step>D</step><octave>4</octave></pitch><duration>4</duration><voice>1</voice><type>quarter</type><staff>1</staff></note><note><chord/><pitch><step>F</step><octave>3</octave></pitch><duration>4</duration><voice>1</voice><type>quarter</type><staff>1</staff></note><note><pitch><step>B</step><alter>-1</alter><octave>3</octave></pitch><duration>2</duration><voice>1</voice><type>eighth</type><staff>1</staff></note><note><chord/><pitch><step>F</step><octave>3</octave></pitch><duration>2</duration><voice>1</voice><type>eighth</type><staff>1</staff></note><backup><duration>24</duration></backup><note><pitch><step>B</step><alter>-1</alter><octave>2</octave></pitch><duration>2</duration><voice>2</voice><type>eighth</type><staff>2</staff><beam number="1">begin</beam></note><note><pitch><step>B</step><alter>-1</alter><octave>1</octave></pitch><duration>1</duration><voice>2</voice><type>16th</type><staff>2</staff><beam number="1">continue</beam><beam number="2">begin</beam></note><note><pitch><step>B</step><alter>-1</alter><octave>2</octave></pitch><duration>1</duration><voice>2</voice><type>16th</type><staff>2</staff><beam number="1">continue</beam><beam number="2">continue</beam></note><note><pitch><step>F</step><octave>2</octave></pitch><duration>1</duration><voice>2</voice><type>16th</type><staff>2</staff><beam number="1">continue</beam><beam number="2">continue</beam></note><note><pitch><step>B</step><alter>-1</alter><octave>1</octave></pitch><duration>1</duration><voice>2</voice><type>16th</type><staff>2</staff><beam number="1">end</beam><beam number="2">end</beam></note><note><pitch><step>B</step><alter>-1</alter><octave>2</octave></pitch><duration>2</duration><voice>2</voice><type>eighth</type><staff>2</staff><beam number="1">begin</beam></note><note><pitch><step>B</step><alter>-1</alter><octave>1</octave></pitch><duration>1</duration><voice>2</voice><type>16th</type><staff>2</staff><beam number="1">continue</beam><beam number="2">begin</beam></note><note><pitch><step>B</step><alter>-1</alter><octave>2</octave></pitch><duration>1</duration><voice>2</voice><type>16th</type><staff>2</staff><beam number="1">continue</beam><beam number="2">continue</beam></note><note><pitch><step>F</step><octave>2</octave></pitch><duration>1</duration><voice>2</voice><type>16th</type><staff>2</staff><beam number="1">continue</beam><beam number="2">continue</beam></note><note><pitch><step>B</step><alter>-1</alter><octave>1</octave></pitch><duration>1</duration><voice>2</voice><type>16th</type><staff>2</staff><beam number="1">end</beam><beam number="2">end</beam></note><note><pitch><step>B</step><alter>-1</alter><octave>2</octave></pitch><duration>2</duration><voice>2</voice><type>eighth</type><staff>2</staff><beam number="1">begin</beam></note><note><chord/><pitch><step>B</step><alter>-1</alter><octave>1</octave></pitch><duration>2</duration><voice>2</voice><type>eighth</type><staff>2</staff></note><note><pitch><step>B</step><alter>-1</alter><octave>2</octave></pitch><duration>2</duration><voice>2</voice><type>eighth</type><staff>2</staff><beam number="1">continue</beam></note><note><chord/><pitch><step>B</step><alter>-1</alter><octave>1</octave></pitch><duration>2</duration><voice>2</voice><type>eighth</type><staff>2</staff></note><note><pitch><step>B</step><alter>-1</alter><octave>2</octave></pitch><duration>2</duration><voice>2</voice><type>eighth</type><staff>2</staff><beam number="1">end</beam></note><note><chord/><pitch><step>B</step><alter>-1</alter><octave>1</octave></pitch><duration>2</duration><voice>2</voice><type>eighth</type><staff>2</staff></note><note><pitch><step>B</step><alter>-1</alter><octave>2</octave></pitch><duration>2</duration><voice>2</voice><type>eighth</type><staff>2</staff><beam number="1">begin</beam></note><note><chord/><pitch><step>B</step><alter>-1</alter><octave>1</octave></pitch><duration>2</duration><voice>2</voice><type>eighth</type><staff>2</staff></note><note><pitch><step>B</step><alter>-1</alter><octave>2</octave></pitch><duration>2</duration><voice>2</voice><type>eighth</type><staff>2</staff><beam number="1">continue</beam></note><note><chord/><pitch><step>B</step><alter>-1</alter><octave>1</octave></pitch><duration>2</duration><voice>2</voice><type>eighth</type><staff>2</staff></note><note><pitch><step>B</step><alter>-1</alter><octave>2</octave></pitch><duration>2</duration><voice>2</voice><type>eighth</type><staff>2</staff><beam number="1">end</beam></note><note><chord/><pitch><step>B</step><alter>-1</alter><octave>1</octave></pitch><duration>2</duration><voice>2</voice><type>eighth</type><staff>2</staff></note></measure><measure number="10"><attributes/><note><pitch><step>C</step><octave>4</octave></pitch><duration>2</duration><voice>1</voice><type>eighth</type><staff>1</staff><beam number="1">begin</beam></note><direction placement="below"><direction-type><dynamics><p/></dynamics></direction-type><staff>1</staff><sound dynamics="49"/></direction><note><pitch><step>G</step><octave>3</octave></pitch><duration>2</duration><voice>1</voice><type>eighth</type><staff>1</staff><beam number="1">continue</beam></note><note><pitch><step>A</step><alter>-1</alter><octave>3</octave></pitch><duration>1</duration><voice>1</voice><type>16th</type><staff>1</staff><beam number="1">continue</beam><beam number="2">begin</beam></note><note><pitch><step>B</step><alter>-1</alter><octave>3</octave></pitch><duration>1</duration><voice>1</voice><type>16th</type><staff>1</staff><beam number="1">end</beam><beam number="2">end</beam></note><note><pitch><step>C</step><octave>4</octave></pitch><duration>2</duration><voice>1</voice><type>eighth</type><staff>1</staff><beam number="1">begin</beam></note><note><pitch><step>G</step><octave>3</octave></pitch><duration>2</duration><voice>1</voice><type>eighth</type><staff>1</staff><beam number="1">continue</beam></note><note><pitch><step>A</step><alter>-1</alter><octave>3</octave></pitch><duration>1</duration><voice>1</voice><type>16th</type><staff>1</staff><beam number="1">continue</beam><beam number="2">begin</beam></note><note><pitch><step>B</step><alter>-1</alter><octave>3</octave></pitch><duration>1</duration><voice>1</voice><type>16th</type><staff>1</staff><beam number="1">end</beam><beam number="2">end</beam></note><note><pitch><step>C</step><octave>4</octave></pitch><duration>2</duration><voice>1</voice><type>eighth</type><staff>1</staff><beam number="1">begin</beam></note><note><pitch><step>G</step><octave>3</octave></pitch><duration>2</duration><voice>1</voice><type>eighth</type><staff>1</staff><beam number="1">continue</beam></note><note><pitch><step>A</step><alter>-1</alter><octave>3</octave></pitch><duration>1</duration><voice>1</voice><type>16th</type><staff>1</staff><beam number="1">continue</beam><beam number="2">begin</beam></note><note><pitch><step>B</step><alter>-1</alter><octave>3</octave></pitch><duration>1</duration><voice>1</voice><type>16th</type><staff>1</staff><beam number="1">end</beam><beam number="2">end</beam></note><direction placement="below"><direction-type><dynamics><f/></dynamics></direction-type><staff>1</staff><sound dynamics="90"/></direction><note><pitch><step>C</step><octave>4</octave></pitch><duration>2</duration><voice>1</voice><type>eighth</type><staff>1</staff><beam number="1">begin</beam></note><note><pitch><step>G</step><octave>3</octave></pitch><duration>2</duration><voice>1</voice><type>eighth</type><staff>1</staff><beam number="1">continue</beam></note><note><pitch><step>A</step><alter>-1</alter><octave>3</octave></pitch><duration>1</duration><voice>1</voice><type>16th</type><staff>1</staff><beam number="1">continue</beam><beam number="2">begin</beam></note><note><pitch><step>B</step><alter>-1</alter><octave>3</octave></pitch><duration>1</duration><voice>1</voice><type>16th</type><staff>1</staff><beam number="1">end</beam><beam number="2">end</beam></note><backup><duration>24</duration></backup><note><pitch><step>C</step><octave>2</octave></pitch><duration>2</duration><voice>2</voice><type>eighth</type><staff>2</staff><beam number="1">begin</beam></note><note><chord/><pitch><step>C</step><octave>3</octave></pitch><duration>2</duration><voice>2</voice><type>eighth</type><staff>2</staff></note><note><pitch><step>C</step><octave>3</octave></pitch><duration>2</duration><voice>2</voice><type>eighth</type><staff>2</staff><beam number="1">continue</beam></note><note><chord/><pitch><step>C</step><octave>2</octave></pitch><duration>2</duration><voice>2</voice><type>eighth</type><staff>2</staff></note><note><pitch><step>C</step><octave>3</octave></pitch><duration>2</duration><voice>2</voice><type>eighth</type><staff>2</staff><beam number="1">end</beam></note><note><chord/><pitch><step>C</step><octave>2</octave></pitch><duration>2</duration><voice>2</voice><type>eighth</type><staff>2</staff></note><note><pitch><step>C</step><octave>2</octave></pitch><duration>2</duration><voice>2</voice><type>eighth</type><staff>2</staff><beam number="1">begin</beam></note><note><chord/><pitch><step>C</step><octave>3</octave></pitch><duration>2</duration><voice>2</voice><type>eighth</type><staff>2</staff></note><note><pitch><step>C</step><octave>3</octave></pitch><duration>2</duration><voice>2</voice><type>eighth</type><staff>2</staff><beam number="1">continue</beam></note><note><chord/><pitch><step>C</step><octave>2</octave></pitch><duration>2</duration><voice>2</voice><type>eighth</type><staff>2</staff></note><note><pitch><step>C</step><octave>3</octave></pitch><duration>2</duration><voice>2</voice><type>eighth</type><staff>2</staff><beam number="1">end</beam></note><note><chord/><pitch><step>C</step><octave>2</octave></pitch><duration>2</duration><voice>2</voice><type>eighth</type><staff>2</staff></note><note><pitch><step>C</step><octave>2</octave></pitch><duration>2</duration><voice>2</voice><type>eighth</type><staff>2</staff><beam number="1">begin</beam></note><note><chord/><pitch><step>C</step><octave>3</octave></pitch><duration>2</duration><voice>2</voice><type>eighth</type><staff>2</staff></note><note><pitch><step>C</step><octave>3</octave></pitch><duration>2</duration><voice>2</voice><type>eighth</type><staff>2</staff><beam number="1">continue</beam></note><note><chord/><pitch><step>C</step><octave>2</octave></pitch><duration>2</duration><voice>2</voice><type>eighth</type><staff>2</staff></note><note><pitch><step>C</step><octave>3</octave></pitch><duration>2</duration><voice>2</voice><type>eighth</type><staff>2</staff><beam number="1">end</beam></note><note><chord/><pitch><step>C</step><octave>2</octave></pitch><duration>2</duration><voice>2</voice><type>eighth</type><staff>2</staff></note><note><pitch><step>C</step><octave>2</octave></pitch><duration>2</duration><voice>2</voice><type>eighth</type><staff>2</staff><beam number="1">begin</beam></note><note><chord/><pitch><step>C</step><octave>3</octave></pitch><duration>2</duration><voice>2</voice><type>eighth</type><staff>2</staff></note><note><pitch><step>C</step><octave>3</octave></pitch><duration>2</duration><voice>2</voice><type>eighth</type><staff>2</staff><beam number="1">continue</beam></note><note><chord/><pitch><step>C</step><octave>2</octave></pitch><duration>2</duration><voice>2</voice><type>eighth</type><staff>2</staff></note><note><pitch><step>C</step><octave>3</octave></pitch><duration>2</duration><voice>2</voice><type>eighth</type><staff>2</staff><beam number="1">end</beam></note><note><chord/><pitch><step>C</step><octave>2</octave></pitch><duration>2</duration><voice>2</voice><type>eighth</type><staff>2</staff></note></measure><measure number="11"><attributes/><direction placement="below"><direction-type><dynamics><ff/></dynamics></direction-type><staff>1</staff><sound dynamics="112"/></direction><note><pitch><step>C</step><octave>4</octave></pitch><duration>2</duration><voice>1</voice><type>eighth</type><staff>1</staff><beam number="1">begin</beam></note><note><chord/><pitch><step>A</step><alter>-1</alter><octave>3</octave></pitch><duration>2</duration><voice>1</voice><type>eighth</type><staff>1</staff></note><note><chord/><pitch><step>E</step><alter>-1</alter><octave>3</octave></pitch><duration>2</duration><voice>1</voice><type>eighth</type><staff>1</staff></note><note><pitch><step>E</step><alter>-1</alter><octave>3</octave></pitch><duration>2</duration><voice>1</voice><type>eighth</type><staff>1</staff><beam number="1">continue</beam></note><note><pitch><step>A</step><alter>-1</alter><octave>3</octave></pitch><duration>1</duration><voice>1</voice><type>16th</type><staff>1</staff><beam number="1">continue</beam><beam number="2">begin</beam></note><note><pitch><step>B</step><alter>-1</alter><octave>3</octave></pitch><duration>1</duration><voice>1</voice><type>16th</type><staff>1</staff><beam number="1">end</beam><beam number="2">end</beam></note><note><pitch><step>C</step><octave>4</octave></pitch><duration>2</duration><voice>1</voice><type>eighth</type><staff>1</staff><beam number="1">begin</beam></note><note><pitch><step>E</step><alter>-1</alter><octave>3</octave></pitch><duration>2</duration><voice>1</voice><type>eighth</type><staff>1</staff><beam number="1">continue</beam></note><note><pitch><step>C</step><octave>4</octave></pitch><duration>2</duration><voice>1</voice><type>eighth</type><staff>1</staff><beam number="1">end</beam></note><note><pitch><step>E</step><alter>-1</alter><octave>3</octave></pitch><duration>2</duration><voice>1</voice><type>eighth</type><staff>1</staff><beam number="1">begin</beam></note><note><chord/><pitch><step>B</step><alter>-1</alter><octave>3</octave></pitch><duration>2</duration><voice>1</voice><type>eighth</type><staff>1</staff></note><note><chord/><pitch><step>G</step><octave>3</octave></pitch><duration>2</duration><voice>1</voice><type>eighth</type><staff>1</staff></note><note><pitch><step>E</step><alter>-1</alter><octave>3</octave></pitch><duration>2</duration><voice>1</voice><type>eighth</type><staff>1</staff><beam number="1">continue</beam></note><note><pitch><step>G</step><octave>3</octave></pitch><duration>1</duration><voice>1</voice><type>16th</type><staff>1</staff><beam number="1">continue</beam><beam number="2">begin</beam></note><note><pitch><step>A</step><alter>-1</alter><octave>3</octave></pitch><duration>1</duration><voice>1</voice><type>16th</type><staff>1</staff><beam number="1">end</beam><beam number="2">end</beam></note><note><pitch><step>B</step><alter>-1</alter><octave>3</octave></pitch><duration>2</duration><voice>1</voice><type>eighth</type><staff>1</staff><beam number="1">begin</beam></note><note><pitch><step>E</step><alter>-1</alter><octave>3</octave></pitch><duration>2</duration><voice>1</voice><type>eighth</type><staff>1</staff><beam number="1">continue</beam></note><note><pitch><step>B</step><alter>-1</alter><octave>3</octave></pitch><duration>2</duration><voice>1</voice><type>eighth</type><staff>1</staff><beam number="1">end</beam></note><backup><duration>24</duration></backup><note><pitch><step>A</step><alter>-1</alter><octave>2</octave></pitch><duration>4</duration><voice>2</voice><type>quarter</type><staff>2</staff></note><note><chord/><pitch><step>A</step><alter>-1</alter><octave>1</octave></pitch><duration>4</duration><voice>2</voice><type>quarter</type><staff>2</staff></note><note><pitch><step>E</step><alter>-1</alter><octave>2</octave></pitch><duration>2</duration><voice>2</voice><type>eighth</type><staff>2</staff></note><note><pitch><step>A</step><alter>-1</alter><octave>2</octave></pitch><duration>2</duration><voice>2</voice><type>eighth</type><staff>2</staff><beam number="1">begin</beam></note><note><pitch><step>A</step><alter>-1</alter><octave>1</octave></pitch><duration>2</duration><voice>2</voice><type>eighth</type><staff>2</staff><beam number="1">continue</beam></note><note><pitch><step>A</step><alter>-1</alter><octave>2</octave></pitch><duration>2</duration><voice>2</voice><type>eighth</type><staff>2</staff><beam number="1">end</beam></note><note><chord/><pitch><step>A</step><alter>-1</alter><octave>1</octave></pitch><duration>2</duration><voice>2</voice><type>eighth</type><staff>2</staff></note><note><pitch><step>E</step><alter>-1</alter><octave>2</octave></pitch><duration>4</duration><voice>2</voice><type>quarter</type><staff>2</staff></note><note><chord/><pitch><step>E</step><alter>-1</alter><octave>1</octave></pitch><duration>4</duration><voice>2</voice><type>quarter</type><staff>2</staff></note><note><pitch><step>E</step><alter>-1</alter><octave>1</octave></pitch><duration>2</duration><voice>2</voice><type>eighth</type><staff>2</staff></note><note><pitch><step>E</step><alter>-1</alter><octave>2</octave></pitch><duration>2</duration><voice>2</voice><type>eighth</type><staff>2</staff><beam number="1">begin</beam></note><note><pitch><step>E</step><alter>-1</alter><octave>1</octave></pitch><duration>2</duration><voice>2</voice><type>eighth</type><staff>2</staff><beam number="1">continue</beam></note><note><pitch><step>E</step><alter>-1</alter><octave>1</octave></pitch><duration>2</duration><voice>2</voice><type>eighth</type><staff>2</staff><beam number="1">end</beam></note><note><chord/><pitch><step>E</step><alter>-1</alter><octave>2</octave></pitch><duration>2</duration><voice>2</voice><type>eighth</type><staff>2</staff></note></measure><measure number="12"><attributes/><note><pitch><step>A</step><alter>-1</alter><octave>3</octave></pitch><duration>2</duration><voice>1</voice><type>eighth</type><staff>1</staff><beam number="1">begin</beam></note><note><chord/><pitch><step>F</step><octave>3</octave></pitch><duration>2</duration><voice>1</voice><type>eighth</type><staff>1</staff></note><note><pitch><step>A</step><alter>-1</alter><octave>3</octave></pitch><duration>1</duration><voice>1</voice><type>16th</type><staff>1</staff><beam number="1">continue</beam><beam number="2">begin</beam></note><note><pitch><step>C</step><octave>4</octave></pitch><duration>1</duration><voice>1</voice><type>16th</type><staff>1</staff><beam number="1">continue</beam><beam number="2">continue</beam></note><note><pitch><step>F</step><octave>4</octave></pitch><duration>1</duration><voice>1</voice><type>16th</type><staff>1</staff><beam number="1">continue</beam><beam number="2">continue</beam></note><note><pitch><step>G</step><octave>4</octave></pitch><duration>1</duration><voice>1</voice><type>16th</type><staff>1</staff><beam number="1">end</beam><beam number="2">end</beam></note><note><pitch><step>A</step><alter>-1</alter><octave>4</octave></pitch><duration>2</duration><voice>1</voice><type>eighth</type><staff>1</staff><beam number="1">begin</beam></note><note><pitch><step>B</step><alter>-1</alter><octave>4</octave></pitch><duration>2</duration><voice>1</voice><type>eighth</type><staff>1</staff><beam number="1">continue</beam></note><note><pitch><step>A</step><alter>-1</alter><octave>4</octave></pitch><duration>2</duration><voice>1</voice><type>eighth</type><staff>1</staff><beam number="1">end</beam></note><note><pitch><step>G</step><octave>4</octave></pitch><duration>6</duration><voice>1</voice><type>quarter</type><dot/><staff>1</staff></note><note><chord/><pitch><step>E</step><alter>-1</alter><octave>4</octave></pitch><duration>6</duration><voice>1</voice><type>quarter</type><dot/><staff>1</staff></note><note><chord/><pitch><step>C</step><octave>4</octave></pitch><duration>6</duration><voice>1</voice><type>quarter</type><dot/><staff>1</staff></note><note><chord/><pitch><step>G</step><octave>3</octave></pitch><duration>6</duration><voice>1</voice><type>quarter</type><dot/><staff>1</staff></note><note><pitch><step>C</step><octave>4</octave></pitch><duration>6</duration><voice>1</voice><type>quarter</type><dot/><staff>1</staff></note><note><chord/><pitch><step>G</step><octave>3</octave></pitch><duration>6</duration><voice>1</voice><type>quarter</type><dot/><staff>1</staff></note><note><chord/><pitch><step>E</step><alter>-1</alter><octave>3</octave></pitch><duration>6</duration><voice>1</voice><type>quarter</type><dot/><staff>1</staff></note><backup><duration>24</duration></backup><note><pitch><step>F</step><octave>2</octave></pitch><duration>4</duration><voice>2</voice><type>quarter</type><staff>2</staff></note><note><chord/><pitch><step>F</step><octave>1</octave></pitch><duration>4</duration><voice>2</voice><type>quarter</type><staff>2</staff></note><note><pitch><step>C</step><octave>3</octave></pitch><duration>2</duration><voice>2</voice><type>eighth</type><staff>2</staff></note><note><pitch><step>F</step><octave>3</octave></pitch><duration>2</duration><voice>2</voice><type>eighth</type><staff>2</staff><beam number="1">begin</beam></note><note><pitch><step>C</step><octave>3</octave></pitch><duration>2</duration><voice>2</voice><type>eighth</type><staff>2</staff><beam number="1">continue</beam></note><note><pitch><step>F</step><octave>2</octave></pitch><duration>2</duration><voice>2</voice><type>eighth</type><staff>2</staff><beam number="1">end</beam></note><note><pitch><step>C</step><octave>3</octave></pitch><duration>2</duration><voice>2</voice><type>eighth</type><staff>2</staff><beam number="1">begin</beam></note><note><chord/><pitch><step>C</step><octave>2</octave></pitch><duration>2</duration><voice>2</voice><type>eighth</type><staff>2</staff></note><note><pitch><step>G</step><octave>2</octave></pitch><duration>2</duration><voice>2</voice><type>eighth</type><staff>2</staff><beam number="1">continue</beam></note><note><pitch><step>C</step><octave>3</octave></pitch><duration>2</duration><tie type="start"/><voice>2</voice><type>eighth</type><staff>2</staff><beam number="1">end</beam><notations><tied type="start"/></notations></note><note><pitch><step>C</step><octave>3</octave></pitch><duration>2</duration><tie type="stop"/><voice>2</voice><type>eighth</type><staff>2</staff><beam number="1">begin</beam><notations><tied type="stop"/></notations></note><note><pitch><step>G</step><octave>2</octave></pitch><duration>2</duration><voice>2</voice><type>eighth</type><staff>2</staff><beam number="1">continue</beam></note><note><pitch><step>C</step><octave>2</octave></pitch><duration>2</duration><voice>2</voice><type>eighth</type><staff>2</staff><beam number="1">end</beam></note></measure><measure number="13"><attributes/><note><pitch><step>A</step><alter>-1</alter><octave>3</octave></pitch><duration>4</duration><voice>1</voice><type>quarter</type><staff>1</staff></note><note><chord/><pitch><step>F</step><octave>3</octave></pitch><duration>4</duration><voice>1</voice><type>quarter</type><staff>1</staff></note><note><chord/><pitch><step>C</step><octave>3</octave></pitch><duration>4</duration><voice>1</voice><type>quarter</type><staff>1</staff></note><note><pitch><step>C</step><octave>3</octave></pitch><duration>1</duration><voice>1</voice><type>16th</type><staff>1</staff><beam number="1">begin</beam><beam number="2">begin</beam></note><note><pitch><step>F</step><octave>3</octave></pitch><duration>1</duration><voice>1</voice><type>16th</type><staff>1</staff><beam number="1">end</beam><beam number="2">end</beam></note><note><pitch><step>A</step><alter>-1</alter><octave>3</octave></pitch><duration>2</duration><voice>1</voice><type>eighth</type><staff>1</staff><beam number="1">begin</beam></note><note><pitch><step>F</step><octave>3</octave></pitch><duration>2</duration><voice>1</voice><type>eighth</type><staff>1</staff><beam number="1">continue</beam></note><note><pitch><step>C</step><octave>3</octave></pitch><duration>2</duration><voice>1</voice><type>eighth</type><staff>1</staff><beam number="1">end</beam></note><note><pitch><step>E</step><alter>-1</alter><octave>4</octave></pitch><duration>6</duration><voice>1</voice><type>quarter</type><dot/><staff>1</staff></note><note><chord/><pitch><step>C</step><octave>4</octave></pitch><duration>6</duration><voice>1</voice><type>quarter</type><dot/><staff>1</staff></note><note><chord/><pitch><step>A</step><alter>-1</alter><octave>3</octave></pitch><duration>6</duration><voice>1</voice><type>quarter</type><dot/><staff>1</staff></note><note><chord/><pitch><step>E</step><alter>-1</alter><octave>3</octave></pitch><duration>6</duration><voice>1</voice><type>quarter</type><dot/><staff>1</staff></note><note><pitch><step>D</step><octave>4</octave></pitch><duration>6</duration><voice>1</voice><type>quarter</type><dot/><staff>1</staff></note><note><chord/><pitch><step>B</step><alter>-1</alter><octave>3</octave></pitch><duration>6</duration><voice>1</voice><type>quarter</type><dot/><staff>1</staff></note><note><chord/><pitch><step>F</step><octave>3</octave></pitch><duration>6</duration><voice>1</voice><type>quarter</type><dot/><staff>1</staff></note><backup><duration>24</duration></backup><note><pitch><step>E</step><alter>-1</alter><octave>1</octave></pitch><duration>2</duration><voice>2</voice><type>eighth</type><staff>2</staff><beam number="1">begin</beam></note><note><pitch><step>C</step><octave>2</octave></pitch><duration>2</duration><voice>2</voice><type>eighth</type><staff>2</staff><beam number="1">continue</beam></note><note><pitch><step>F</step><octave>2</octave></pitch><duration>2</duration><tie type="start"/><voice>2</voice><type>eighth</type><staff>2</staff><beam number="1">end</beam><notations><tied type="start"/></notations></note><note><pitch><step>F</step><octave>2</octave></pitch><duration>2</duration><tie type="stop"/><voice>2</voice><type>eighth</type><staff>2</staff><beam number="1">begin</beam><notations><tied type="stop"/></notations></note><note><pitch><step>C</step><octave>2</octave></pitch><duration>2</duration><voice>2</voice><type>eighth</type><staff>2</staff><beam number="1">continue</beam></note><note><pitch><step>E</step><alter>-1</alter><octave>1</octave></pitch><duration>2</duration><voice>2</voice><type>eighth</type><staff>2</staff><beam number="1">end</beam></note><note><pitch><step>A</step><alter>-1</alter><octave>2</octave></pitch><duration>2</duration><voice>2</voice><type>eighth</type><staff>2</staff><beam number="1">begin</beam></note><note><chord/><pitch><step>C</step><octave>2</octave></pitch><duration>2</duration><voice>2</voice><type>eighth</type><staff>2</staff></note><note><pitch><step>A</step><alter>-1</alter><octave>2</octave></pitch><duration>2</duration><voice>2</voice><type>eighth</type><staff>2</staff><beam number="1">continue</beam></note><note><chord/><pitch><step>C</step><octave>2</octave></pitch><duration>2</duration><voice>2</voice><type>eighth</type><staff>2</staff></note><note><pitch><step>A</step><alter>-1</alter><octave>2</octave></pitch><duration>2</duration><voice>2</voice><type>eighth</type><staff>2</staff><beam number="1">end</beam></note><note><chord/><pitch><step>C</step><octave>2</octave></pitch><duration>2</duration><voice>2</voice><type>eighth</type><staff>2</staff></note><note><pitch><step>B</step><alter>-1</alter><octave>2</octave></pitch><duration>2</duration><voice>2</voice><type>eighth</type><staff>2</staff><beam number="1">begin</beam></note><note><chord/><pitch><step>D</step><octave>2</octave></pitch><duration>2</duration><voice>2</voice><type>eighth</type><staff>2</staff></note><note><pitch><step>B</step><alter>-1</alter><octave>2</octave></pitch><duration>2</duration><voice>2</voice><type>eighth</type><staff>2</staff><beam number="1">continue</beam></note><note><chord/><pitch><step>D</step><octave>2</octave></pitch><duration>2</duration><voice>2</voice><type>eighth</type><staff>2</staff></note><note><pitch><step>B</step><alter>-1</alter><octave>2</octave></pitch><duration>2</duration><voice>2</voice><type>eighth</type><staff>2</staff><beam number="1">end</beam></note><note><chord/><pitch><step>D</step><octave>2</octave></pitch><duration>2</duration><voice>2</voice><type>eighth</type><staff>2</staff></note></measure><measure number="14"><attributes/><note><pitch><step>C</step><octave>4</octave></pitch><duration>2</duration><voice>1</voice><type>eighth</type><staff>1</staff><beam number="1">begin</beam></note><direction placement="below"><direction-type><dynamics><p/></dynamics></direction-type><staff>1</staff><sound dynamics="49"/></direction><note><pitch><step>G</step><octave>3</octave></pitch><duration>2</duration><voice>1</voice><type>eighth</type><staff>1</staff><beam number="1">continue</beam></note><note><pitch><step>A</step><alter>-1</alter><octave>3</octave></pitch><duration>1</duration><voice>1</voice><type>16th</type><staff>1</staff><beam number="1">continue</beam><beam number="2">begin</beam></note><note><pitch><step>B</step><alter>-1</alter><octave>3</octave></pitch><duration>1</duration><voice>1</voice><type>16th</type><staff>1</staff><beam number="1">end</beam><beam number="2">end</beam></note><note><pitch><step>C</step><octave>4</octave></pitch><duration>2</duration><voice>1</voice><type>eighth</type><staff>1</staff><beam number="1">begin</beam></note><note><pitch><step>G</step><octave>3</octave></pitch><duration>2</duration><voice>1</voice><type>eighth</type><staff>1</staff><beam number="1">continue</beam></note><note><pitch><step>A</step><alter>-1</alter><octave>3</octave></pitch><duration>1</duration><voice>1</voice><type>16th</type><staff>1</staff><beam number="1">continue</beam><beam number="2">begin</beam></note><note><pitch><step>B</step><alter>-1</alter><octave>3</octave></pitch><duration>1</duration><voice>1</voice><type>16th</type><staff>1</staff><beam number="1">end</beam><beam number="2">end</beam></note><note><pitch><step>C</step><octave>4</octave></pitch><duration>2</duration><voice>1</voice><type>eighth</type><staff>1</staff><beam number="1">begin</beam></note><note><pitch><step>G</step><octave>3</octave></pitch><duration>2</duration><voice>1</voice><type>eighth</type><staff>1</staff><beam number="1">continue</beam></note><note><pitch><step>A</step><alter>-1</alter><octave>3</octave></pitch><duration>1</duration><voice>1</voice><type>16th</type><staff>1</staff><beam number="1">continue</beam><beam number="2">begin</beam></note><note><pitch><step>B</step><alter>-1</alter><octave>3</octave></pitch><duration>1</duration><voice>1</voice><type>16th</type><staff>1</staff><beam number="1">end</beam><beam number="2">end</beam></note><note><pitch><step>C</step><octave>4</octave></pitch><duration>2</duration><voice>1</voice><type>eighth</type><staff>1</staff><beam number="1">begin</beam></note><note><pitch><step>G</step><octave>3</octave></pitch><duration>2</duration><voice>1</voice><type>eighth</type><staff>1</staff><beam number="1">continue</beam></note><direction placement="below"><direction-type><dynamics><mp/></dynamics></direction-type><staff>1</staff><sound dynamics="64"/></direction><direction placement="above"><direction-type><octave-shift type="down" size="8" number="1"/></direction-type><staff>1</staff></direction><note><pitch><step>A</step><alter>-1</alter><octave>6</octave></pitch><duration>1</duration><voice>1</voice><type>16th</type><staff>1</staff><beam number="1">continue</beam><beam number="2">begin</beam></note><note><pitch><step>B</step><alter>-1</alter><octave>6</octave></pitch><duration>1</duration><voice>1</voice><type>16th</type><staff>1</staff><beam number="1">end</beam><beam number="2">end</beam></note><backup><duration>24</duration></backup><note><pitch><step>C</step><octave>3</octave></pitch><duration>2</duration><voice>2</voice><type>eighth</type><staff>2</staff><beam number="1">begin</beam></note><note><chord/><pitch><step>C</step><octave>2</octave></pitch><duration>2</duration><voice>2</voice><type>eighth</type><staff>2</staff></note><note><pitch><step>C</step><octave>2</octave></pitch><duration>2</duration><voice>2</voice><type>eighth</type><staff>2</staff><beam number="1">continue</beam></note><note><chord/><pitch><step>C</step><octave>3</octave></pitch><duration>2</duration><voice>2</voice><type>eighth</type><staff>2</staff></note><note><pitch><step>C</step><octave>3</octave></pitch><duration>2</duration><voice>2</voice><type>eighth</type><staff>2</staff><beam number="1">end</beam></note><note><chord/><pitch><step>C</step><octave>2</octave></pitch><duration>2</duration><voice>2</voice><type>eighth</type><staff>2</staff></note><note><pitch><step>C</step><octave>3</octave></pitch><duration>2</duration><voice>2</voice><type>eighth</type><staff>2</staff><beam number="1">begin</beam></note><note><chord/><pitch><step>C</step><octave>2</octave></pitch><duration>2</duration><voice>2</voice><type>eighth</type><staff>2</staff></note><note><pitch><step>C</step><octave>2</octave></pitch><duration>2</duration><voice>2</voice><type>eighth</type><staff>2</staff><beam number="1">continue</beam></note><note><chord/><pitch><step>C</step><octave>3</octave></pitch><duration>2</duration><voice>2</voice><type>eighth</type><staff>2</staff></note><note><pitch><step>C</step><octave>3</octave></pitch><duration>2</duration><voice>2</voice><type>eighth</type><staff>2</staff><beam number="1">end</beam></note><note><chord/><pitch><step>C</step><octave>2</octave></pitch><duration>2</duration><voice>2</voice><type>eighth</type><staff>2</staff></note><note><pitch><step>C</step><octave>3</octave></pitch><duration>2</duration><voice>2</voice><type>eighth</type><staff>2</staff><beam number="1">begin</beam></note><note><chord/><pitch><step>C</step><octave>2</octave></pitch><duration>2</duration><voice>2</voice><type>eighth</type><staff>2</staff></note><note><pitch><step>C</step><octave>2</octave></pitch><duration>2</duration><voice>2</voice><type>eighth</type><staff>2</staff><beam number="1">continue</beam></note><note><chord/><pitch><step>C</step><octave>3</octave></pitch><duration>2</duration><voice>2</voice><type>eighth</type><staff>2</staff></note><note><pitch><step>C</step><octave>3</octave></pitch><duration>2</duration><voice>2</voice><type>eighth</type><staff>2</staff><beam number="1">end</beam></note><note><chord/><pitch><step>C</step><octave>2</octave></pitch><duration>2</duration><voice>2</voice><type>eighth</type><staff>2</staff></note><note><pitch><step>C</step><octave>3</octave></pitch><duration>2</duration><voice>2</voice><type>eighth</type><staff>2</staff><beam number="1">begin</beam></note><note><chord/><pitch><step>C</step><octave>2</octave></pitch><duration>2</duration><voice>2</voice><type>eighth</type><staff>2</staff></note><note><pitch><step>C</step><octave>2</octave></pitch><duration>2</duration><voice>2</voice><type>eighth</type><staff>2</staff><beam number="1">continue</beam></note><note><chord/><pitch><step>C</step><octave>3</octave></pitch><duration>2</duration><voice>2</voice><type>eighth</type><staff>2</staff></note><note><pitch><step>C</step><octave>3</octave></pitch><duration>2</duration><voice>2</voice><type>eighth</type><staff>2</staff><beam number="1">end</beam></note><note><chord/><pitch><step>C</step><octave>2</octave></pitch><duration>2</duration><voice>2</voice><type>eighth</type><staff>2</staff></note></measure><measure number="15"><attributes/><note><pitch><step>C</step><octave>7</octave></pitch><duration>2</duration><voice>1</voice><type>eighth</type><staff>1</staff><beam number="1">begin</beam></note><note><pitch><step>G</step><octave>6</octave></pitch><duration>2</duration><voice>1</voice><type>eighth</type><staff>1</staff><beam number="1">continue</beam></note><note><pitch><step>A</step><alter>-1</alter><octave>6</octave></pitch><duration>1</duration><voice>1</voice><type>16th</type><staff>1</staff><beam number="1">continue</beam><beam number="2">begin</beam></note><note><pitch><step>B</step><alter>-1</alter><octave>6</octave></pitch><duration>1</duration><voice>1</voice><type>16th</type><staff>1</staff><beam number="1">end</beam><beam number="2">end</beam></note><note><pitch><step>C</step><octave>7</octave></pitch><duration>2</duration><voice>1</voice><type>eighth</type><staff>1</staff><beam number="1">begin</beam></note><note><pitch><step>G</step><octave>6</octave></pitch><duration>2</duration><voice>1</voice><type>eighth</type><staff>1</staff><beam number="1">continue</beam></note><note><pitch><step>A</step><alter>-1</alter><octave>6</octave></pitch><duration>1</duration><voice>1</voice><type>16th</type><staff>1</staff><beam number="1">continue</beam><beam number="2">begin</beam></note><note><pitch><step>B</step><alter>-1</alter><octave>6</octave></pitch><duration>1</duration><voice>1</voice><type>16th</type><staff>1</staff><beam number="1">end</beam><beam number="2">end</beam></note><note><pitch><step>C</step><octave>7</octave></pitch><duration>2</duration><voice>1</voice><type>eighth</type><staff>1</staff><beam number="1">begin</beam></note><note><pitch><step>G</step><octave>6</octave></pitch><duration>2</duration><voice>1</voice><type>eighth</type><staff>1</staff><beam number="1">continue</beam></note><note><pitch><step>A</step><alter>-1</alter><octave>6</octave></pitch><duration>1</duration><voice>1</voice><type>16th</type><staff>1</staff><beam number="1">continue</beam><beam number="2">begin</beam></note><note><pitch><step>B</step><alter>-1</alter><octave>6</octave></pitch><duration>1</duration><voice>1</voice><type>16th</type><staff>1</staff><beam number="1">end</beam><beam number="2">end</beam></note><note><pitch><step>C</step><octave>7</octave></pitch><duration>2</duration><voice>1</voice><type>eighth</type><staff>1</staff><beam number="1">begin</beam></note><note><pitch><step>G</step><octave>6</octave></pitch><duration>2</duration><voice>1</voice><type>eighth</type><staff>1</staff><beam number="1">continue</beam></note><note><pitch><step>A</step><alter>-1</alter><octave>6</octave></pitch><duration>1</duration><voice>1</voice><type>16th</type><staff>1</staff><beam number="1">continue</beam><beam number="2">begin</beam></note><direction placement="above"><direction-type><octave-shift type="stop" size="8" number="1"/></direction-type><offset sound="yes">1</offset><staff>1</staff></direction><note><pitch><step>B</step><alter>-1</alter><octave>6</octave></pitch><duration>1</duration><voice>1</voice><type>16th</type><staff>1</staff><beam number="1">end</beam><beam number="2">end</beam></note><direction placement="below"><direction-type><octave-shift type="up" size="8" number="1"/></direction-type><staff>2</staff></direction><direction placement="below"><direction-type><octave-shift type="stop" size="8" number="1"/></direction-type><offset sound="yes">24</offset><staff>2</staff></direction><backup><duration>24</duration></backup><note><pitch><step>C</step><octave>1</octave></pitch><duration>24</duration><voice>2</voice><type>whole</type><dot/><staff>2</staff></note><barline location="right"><bar-style>light-heavy</bar-style></barline></measure></part></score-partwise>