<?xml version="1.0" encoding="UTF-8" standalone="no"?><!DOCTYPE score-partwise PUBLIC "-//Recordare//DTD MusicXML 3.1 Partwise//EN" "http://www.musicxml.org/dtds/partwise.dtd"><score-partwise version="3.1"><identification><encoding><software>Flat</software><encoding-date>2019-09-11</encoding-date></encoding><source>https://flat.io/score/5d78b87dbb7511304535fb2c-katy-perry-roar-easymusicxml</source></identification><defaults><scaling><millimeters>7.05556</millimeters><tenths>40</tenths></scaling><page-layout><page-height>1683.78</page-height><page-width>1190.55</page-width><page-margins type="even"><left-margin>56.6929</left-margin><right-margin>56.6929</right-margin><top-margin>56.6929</top-margin><bottom-margin>113.386</bottom-margin></page-margins><page-margins type="odd"><left-margin>56.6929</left-margin><right-margin>56.6929</right-margin><top-margin>56.6929</top-margin><bottom-margin>113.386</bottom-margin></page-margins></page-layout><system-layout><system-distance>114.29284139033614</system-distance></system-layout><staff-layout><staff-distance>71.99995464569787</staff-distance></staff-layout></defaults><credit><credit-type>title</credit-type><credit-words>Roar (Katy Perry)</credit-words></credit><part-list><score-part id="P1"><part-name/><score-instrument id="P1-I1"><instrument-name>Piano</instrument-name></score-instrument><midi-device id="P1-I1" port="1"/><midi-instrument id="P1-I1"><midi-channel>1</midi-channel><midi-program>1</midi-program><pan>0</pan></midi-instrument></score-part></part-list><part id="P1"><measure number="1" width="237.54"><attributes><divisions>4</divisions><key><fifths>-2</fifths></key><time><beats>4</beats><beat-type>4</beat-type></time><staves>2</staves><clef number="1"><sign>G</sign><line>2</line></clef><clef number="2"><sign>F</sign><line>4</line></clef><staff-details><staff-lines>5</staff-lines></staff-details></attributes><sound/><sound tempo="120"/><direction placement="above"><direction-type><metronome><beat-unit>quarter</beat-unit><per-minute>120</per-minute></metronome></direction-type><staff>1</staff></direction><note><rest/><duration>2</duration><voice>1</voice><type>eighth</type><staff>1</staff></note><note default-x="118.69" default-y="-35.00" dynamics="88.89"><pitch><step>F</step><octave>4</octave></pitch><duration>2</duration><voice>1</voice><type>eighth</type><stem>up</stem><staff>1</staff></note><note default-x="137.60" default-y="-35.00" dynamics="88.89"><pitch><step>F</step><octave>4</octave></pitch><duration>2</duration><voice>1</voice><type>eighth</type><stem>up</stem><staff>1</staff><beam number="1">begin</beam></note><note default-x="156.51" default-y="-35.00" dynamics="88.89"><pitch><step>F</step><octave>4</octave></pitch><duration>2</duration><voice>1</voice><type>eighth</type><stem>up</stem><staff>1</staff><beam number="1">end</beam></note><note default-x="175.43" default-y="-35.00" dynamics="88.89"><pitch><step>F</step><octave>4</octave></pitch><duration>4</duration><voice>1</voice><type>quarter</type><stem>up</stem><staff>1</staff></note><note default-x="205.68" default-y="-45.00" dynamics="88.89"><pitch><step>D</step><octave>4</octave></pitch><duration>4</duration><voice>1</voice><type>quarter</type><stem>up</stem><staff>1</staff></note><backup><duration>16</duration></backup><note default-x="96.46" default-y="-135.00" dynamics="88.89"><pitch><step>B</step><alter>-1</alter><octave>2</octave></pitch><duration>16</duration><voice>5</voice><type>whole</type><staff>2</staff></note></measure><measure number="2" width="195.01"><attributes/><note default-x="15.32" default-y="-45.00" dynamics="88.89"><pitch><step>D</step><octave>4</octave></pitch><duration>4</duration><voice>1</voice><type>quarter</type><stem>up</stem><staff>1</staff></note><note default-x="54.90" default-y="-50.00" dynamics="88.89"><pitch><step>C</step><octave>4</octave></pitch><duration>2</duration><voice>1</voice><type>eighth</type><stem>up</stem><staff>1</staff><beam number="1">begin</beam></note><note default-x="79.63" default-y="-50.00" dynamics="88.89"><pitch><step>C</step><octave>4</octave></pitch><duration>2</duration><tie type="start"/><voice>1</voice><type>eighth</type><stem>up</stem><staff>1</staff><beam number="1">end</beam><notations><tied type="start"/></notations></note><note default-x="104.37" default-y="-50.00" dynamics="88.89"><pitch><step>C</step><octave>4</octave></pitch><duration>2</duration><tie type="stop"/><voice>1</voice><type>eighth</type><stem>up</stem><staff>1</staff><beam number="1">begin</beam><notations><tied type="stop"/></notations></note><note default-x="129.10" default-y="-55.00" dynamics="88.89"><pitch><step>B</step><alter>-1</alter><octave>3</octave></pitch><duration>2</duration><voice>1</voice><type>eighth</type><stem>up</stem><staff>1</staff><beam number="1">end</beam></note><note default-x="153.84" default-y="-55.00" dynamics="88.89"><pitch><step>B</step><alter>-1</alter><octave>3</octave></pitch><duration>4</duration><voice>1</voice><type>quarter</type><stem>up</stem><staff>1</staff></note><backup><duration>16</duration></backup><note default-x="12.00" default-y="-135.00" dynamics="88.89"><pitch><step>B</step><alter>-1</alter><octave>2</octave></pitch><duration>16</duration><voice>5</voice><type>whole</type><staff>2</staff></note></measure><measure number="3" width="143.91"><attributes/><note><rest/><duration>4</duration><voice>1</voice><type>quarter</type><staff>1</staff></note><note default-x="45.20" default-y="-35.00" dynamics="88.89"><pitch><step>F</step><octave>4</octave></pitch><duration>2</duration><voice>1</voice><type>eighth</type><stem>up</stem><staff>1</staff><beam number="1">begin</beam></note><note default-x="63.88" default-y="-35.00" dynamics="88.89"><pitch><step>F</step><octave>4</octave></pitch><duration>2</duration><voice>1</voice><type>eighth</type><stem>up</stem><staff>1</staff><beam number="1">end</beam></note><note default-x="82.55" default-y="-35.00" dynamics="88.89"><pitch><step>F</step><octave>4</octave></pitch><duration>4</duration><voice>1</voice><type>quarter</type><stem>up</stem><staff>1</staff></note><note default-x="112.43" default-y="-45.00" dynamics="88.89"><pitch><step>D</step><octave>4</octave></pitch><duration>4</duration><voice>1</voice><type>quarter</type><stem>up</stem><staff>1</staff></note><backup><duration>16</duration></backup><note default-x="12.00" default-y="-135.00" dynamics="88.89"><pitch><step>B</step><alter>-1</alter><octave>2</octave></pitch><duration>16</duration><voice>5</voice><type>whole</type><staff>2</staff></note></measure><measure number="4" width="195.01"><attributes/><note default-x="15.32" default-y="-45.00" dynamics="88.89"><pitch><step>D</step><octave>4</octave></pitch><duration>4</duration><voice>1</voice><type>quarter</type><stem>up</stem><staff>1</staff></note><note default-x="54.90" default-y="-50.00" dynamics="88.89"><pitch><step>C</step><octave>4</octave></pitch><duration>2</duration><voice>1</voice><type>eighth</type><stem>up</stem><staff>1</staff><beam number="1">begin</beam></note><note default-x="79.63" default-y="-50.00" dynamics="88.89"><pitch><step>C</step><octave>4</octave></pitch><duration>2</duration><tie type="start"/><voice>1</voice><type>eighth</type><stem>up</stem><staff>1</staff><beam number="1">end</beam><notations><tied type="start"/></notations></note><note default-x="104.37" default-y="-50.00" dynamics="88.89"><pitch><step>C</step><octave>4</octave></pitch><duration>2</duration><tie type="stop"/><voice>1</voice><type>eighth</type><stem>up</stem><staff>1</staff><beam number="1">begin</beam><notations><tied type="stop"/></notations></note><note default-x="129.10" default-y="-55.00" dynamics="88.89"><pitch><step>B</step><alter>-1</alter><octave>3</octave></pitch><duration>2</duration><voice>1</voice><type>eighth</type><stem>up</stem><staff>1</staff><beam number="1">end</beam></note><note default-x="153.84" default-y="-55.00" dynamics="88.89"><pitch><step>B</step><alter>-1</alter><octave>3</octave></pitch><duration>4</duration><voice>1</voice><type>quarter</type><stem>up</stem><staff>1</staff></note><backup><duration>16</duration></backup><note default-x="12.00" default-y="-130.00" dynamics="88.89"><pitch><step>C</step><octave>3</octave></pitch><duration>16</duration><voice>5</voice><type>whole</type><staff>2</staff></note></measure><measure number="5" width="159.91"><attributes/><note><rest/><duration>4</duration><voice>1</voice><type>quarter</type><staff>1</staff></note><note default-x="48.38" default-y="-55.00" dynamics="88.89"><pitch><step>B</step><alter>-1</alter><octave>3</octave></pitch><duration>4</duration><voice>1</voice><type>quarter</type><stem>up</stem><staff>1</staff></note><note default-x="81.43" default-y="-55.00" dynamics="88.89"><pitch><step>B</step><alter>-1</alter><octave>3</octave></pitch><duration>4</duration><voice>1</voice><type>quarter</type><stem>up</stem><staff>1</staff></note><note default-x="114.49" default-y="-50.00" dynamics="88.89"><pitch><step>C</step><octave>4</octave></pitch><duration>2</duration><voice>1</voice><type>eighth</type><stem>up</stem><staff>1</staff><beam number="1">begin</beam></note><note default-x="135.15" default-y="-45.00" dynamics="88.89"><pitch><step>D</step><octave>4</octave></pitch><duration>2</duration><tie type="start"/><voice>1</voice><type>eighth</type><stem>up</stem><staff>1</staff><beam number="1">end</beam><notations><tied type="start"/></notations></note><backup><duration>16</duration></backup><note default-x="12.00" default-y="-145.00" dynamics="88.89"><pitch><step>G</step><octave>2</octave></pitch><duration>16</duration><voice>5</voice><type>whole</type><staff>2</staff></note></measure><measure number="6" width="124.77"><attributes/><note default-x="15.32" default-y="-45.00" dynamics="88.89"><pitch><step>D</step><octave>4</octave></pitch><duration>2</duration><tie type="stop"/><voice>1</voice><type>eighth</type><stem>up</stem><staff>1</staff><beam number="1">begin</beam><notations><tied type="stop"/></notations></note><note default-x="39.02" default-y="-35.00" dynamics="88.89"><pitch><step>F</step><octave>4</octave></pitch><duration>2</duration><voice>1</voice><type>eighth</type><stem>up</stem><staff>1</staff><beam number="1">end</beam></note><note default-x="62.36" default-y="-45.00" dynamics="88.89"><pitch><step>D</step><octave>4</octave></pitch><duration>12</duration><voice>1</voice><type>half</type><dot/><stem>up</stem><staff>1</staff></note><backup><duration>16</duration></backup><note default-x="12.00" default-y="-145.00" dynamics="88.89"><pitch><step>G</step><octave>2</octave></pitch><duration>16</duration><voice>5</voice><type>whole</type><staff>2</staff></note></measure><measure number="7" width="217.46"><print new-system="yes"/><attributes/><note><rest/><duration>4</duration><voice>1</voice><type>quarter</type><staff>1</staff></note><note default-x="110.13" default-y="-55.00" dynamics="88.89"><pitch><step>B</step><alter>-1</alter><octave>3</octave></pitch><duration>4</duration><voice>1</voice><type>quarter</type><stem>up</stem><staff>1</staff></note><note default-x="141.58" default-y="-55.00" dynamics="88.89"><pitch><step>B</step><alter>-1</alter><octave>3</octave></pitch><duration>4</duration><voice>1</voice><type>quarter</type><stem>up</stem><staff>1</staff></note><note default-x="173.04" default-y="-50.00" dynamics="88.89"><pitch><step>C</step><octave>4</octave></pitch><duration>2</duration><voice>1</voice><type>eighth</type><stem>up</stem><staff>1</staff><beam number="1">begin</beam></note><note default-x="192.70" default-y="-45.00" dynamics="88.89"><pitch><step>D</step><octave>4</octave></pitch><duration>2</duration><tie type="start"/><voice>1</voice><type>eighth</type><stem>up</stem><staff>1</staff><beam number="1">end</beam><notations><tied type="start"/></notations></note><backup><duration>16</duration></backup><note default-x="75.36" default-y="-145.00" dynamics="88.89"><pitch><step>G</step><octave>2</octave></pitch><duration>16</duration><voice>5</voice><type>whole</type><staff>2</staff></note></measure><measure number="8" width="125.64"><attributes/><note default-x="15.32" default-y="-45.00" dynamics="88.89"><pitch><step>D</step><octave>4</octave></pitch><duration>2</duration><tie type="stop"/><voice>1</voice><type>eighth</type><stem>up</stem><staff>1</staff><beam number="1">begin</beam><notations><tied type="stop"/></notations></note><note default-x="39.21" default-y="-35.00" dynamics="88.89"><pitch><step>F</step><octave>4</octave></pitch><duration>2</duration><voice>1</voice><type>eighth</type><stem>up</stem><staff>1</staff><beam number="1">end</beam></note><note default-x="62.74" default-y="-45.00" dynamics="88.89"><pitch><step>D</step><octave>4</octave></pitch><duration>12</duration><voice>1</voice><type>half</type><dot/><stem>up</stem><staff>1</staff></note><backup><duration>16</duration></backup><note default-x="12.00" default-y="-120.00" dynamics="88.89"><pitch><step>E</step><alter>-1</alter><octave>3</octave></pitch><duration>16</duration><voice>5</voice><type>whole</type><staff>2</staff></note></measure><measure number="9" width="160.64"><attributes/><note><rest/><duration>2</duration><voice>1</voice><type>eighth</type><staff>1</staff></note><note default-x="35.28" default-y="-35.00" dynamics="88.89"><pitch><step>F</step><octave>4</octave></pitch><duration>2</duration><voice>1</voice><type>eighth</type><stem>up</stem><staff>1</staff></note><note default-x="55.24" default-y="-35.00" dynamics="88.89"><pitch><step>F</step><octave>4</octave></pitch><duration>2</duration><voice>1</voice><type>eighth</type><stem>up</stem><staff>1</staff><beam number="1">begin</beam></note><note default-x="75.20" default-y="-35.00" dynamics="88.89"><pitch><step>F</step><octave>4</octave></pitch><duration>2</duration><voice>1</voice><type>eighth</type><stem>up</stem><staff>1</staff><beam number="1">end</beam></note><note default-x="95.17" default-y="-35.00" dynamics="88.89"><pitch><step>F</step><octave>4</octave></pitch><duration>4</duration><voice>1</voice><type>quarter</type><stem>up</stem><staff>1</staff></note><note default-x="127.10" default-y="-45.00" dynamics="88.89"><pitch><step>D</step><octave>4</octave></pitch><duration>4</duration><voice>1</voice><type>quarter</type><stem>up</stem><staff>1</staff></note><backup><duration>16</duration></backup><note default-x="12.00" default-y="-135.00" dynamics="88.89"><pitch><step>B</step><alter>-1</alter><octave>2</octave></pitch><duration>16</duration><voice>5</voice><type>whole</type><staff>2</staff></note></measure><measure number="10" width="195.89"><attributes/><note default-x="15.32" default-y="-45.00" dynamics="88.89"><pitch><step>D</step><octave>4</octave></pitch><duration>4</duration><voice>1</voice><type>quarter</type><stem>up</stem><staff>1</staff></note><note default-x="55.09" default-y="-50.00" dynamics="88.89"><pitch><step>C</step><octave>4</octave></pitch><duration>2</duration><voice>1</voice><type>eighth</type><stem>up</stem><staff>1</staff><beam number="1">begin</beam></note><note default-x="79.95" default-y="-50.00" dynamics="88.89"><pitch><step>C</step><octave>4</octave></pitch><duration>2</duration><tie type="start"/><voice>1</voice><type>eighth</type><stem>up</stem><staff>1</staff><beam number="1">end</beam><notations><tied type="start"/></notations></note><note default-x="104.80" default-y="-50.00" dynamics="88.89"><pitch><step>C</step><octave>4</octave></pitch><duration>2</duration><tie type="stop"/><voice>1</voice><type>eighth</type><stem>up</stem><staff>1</staff><beam number="1">begin</beam><notations><tied type="stop"/></notations></note><note default-x="129.66" default-y="-55.00" dynamics="88.89"><pitch><step>B</step><alter>-1</alter><octave>3</octave></pitch><duration>2</duration><voice>1</voice><type>eighth</type><stem>up</stem><staff>1</staff><beam number="1">end</beam></note><note default-x="154.52" default-y="-55.00" dynamics="88.89"><pitch><step>B</step><alter>-1</alter><octave>3</octave></pitch><duration>4</duration><voice>1</voice><type>quarter</type><stem>up</stem><staff>1</staff></note><backup><duration>16</duration></backup><note default-x="12.00" default-y="-135.00" dynamics="88.89"><pitch><step>B</step><alter>-1</alter><octave>2</octave></pitch><duration>16</duration><voice>5</voice><type>whole</type><staff>2</staff></note></measure><measure number="11" width="160.64"><attributes/><note><rest/><duration>2</duration><voice>1</voice><type>eighth</type><staff>1</staff></note><note default-x="35.28" default-y="-35.00" dynamics="88.89"><pitch><step>F</step><octave>4</octave></pitch><duration>2</duration><voice>1</voice><type>eighth</type><stem>up</stem><staff>1</staff></note><note default-x="55.24" default-y="-35.00" dynamics="88.89"><pitch><step>F</step><octave>4</octave></pitch><duration>2</duration><voice>1</voice><type>eighth</type><stem>up</stem><staff>1</staff><beam number="1">begin</beam></note><note default-x="75.20" default-y="-35.00" dynamics="88.89"><pitch><step>F</step><octave>4</octave></pitch><duration>2</duration><voice>1</voice><type>eighth</type><stem>up</stem><staff>1</staff><beam number="1">end</beam></note><note default-x="95.17" default-y="-35.00" dynamics="88.89"><pitch><step>F</step><octave>4</octave></pitch><duration>4</duration><voice>1</voice><type>quarter</type><stem>up</stem><staff>1</staff></note><note default-x="127.10" default-y="-45.00" dynamics="88.89"><pitch><step>D</step><octave>4</octave></pitch><duration>4</duration><voice>1</voice><type>quarter</type><stem>up</stem><staff>1</staff></note><backup><duration>16</duration></backup><note default-x="12.00" default-y="-135.00" dynamics="88.89"><pitch><step>B</step><alter>-1</alter><octave>2</octave></pitch><duration>16</duration><voice>5</voice><type>whole</type><staff>2</staff></note></measure><measure number="12" width="195.89"><attributes/><note default-x="15.32" default-y="-45.00" dynamics="88.89"><pitch><step>D</step><octave>4</octave></pitch><duration>4</duration><voice>1</voice><type>quarter</type><stem>up</stem><staff>1</staff></note><note default-x="55.09" default-y="-50.00" dynamics="88.89"><pitch><step>C</step><octave>4</octave></pitch><duration>2</duration><voice>1</voice><type>eighth</type><stem>up</stem><staff>1</staff><beam number="1">begin</beam></note><note default-x="79.95" default-y="-50.00" dynamics="88.89"><pitch><step>C</step><octave>4</octave></pitch><duration>2</duration><tie type="start"/><voice>1</voice><type>eighth</type><stem>up</stem><staff>1</staff><beam number="1">end</beam><notations><tied type="start"/></notations></note><note default-x="104.80" default-y="-50.00" dynamics="88.89"><pitch><step>C</step><octave>4</octave></pitch><duration>2</duration><tie type="stop"/><voice>1</voice><type>eighth</type><stem>up</stem><staff>1</staff><beam number="1">begin</beam><notations><tied type="stop"/></notations></note><note default-x="129.66" default-y="-55.00" dynamics="88.89"><pitch><step>B</step><alter>-1</alter><octave>3</octave></pitch><duration>2</duration><voice>1</voice><type>eighth</type><stem>up</stem><staff>1</staff><beam number="1">end</beam></note><note default-x="154.52" default-y="-55.00" dynamics="88.89"><pitch><step>B</step><alter>-1</alter><octave>3</octave></pitch><duration>4</duration><voice>1</voice><type>quarter</type><stem>up</stem><staff>1</staff></note><backup><duration>16</duration></backup><note default-x="12.00" default-y="-130.00" dynamics="88.89"><pitch><step>C</step><octave>3</octave></pitch><duration>16</duration><voice>5</voice><type>whole</type><staff>2</staff></note></measure><measure number="13" width="208.55"><print new-system="yes"/><attributes/><note><rest/><duration>4</duration><voice>1</voice><type>quarter</type><staff>1</staff></note><note default-x="107.67" default-y="-55.00" dynamics="88.89"><pitch><step>B</step><alter>-1</alter><octave>3</octave></pitch><duration>4</duration><voice>1</voice><type>quarter</type><stem>up</stem><staff>1</staff></note><note default-x="136.67" default-y="-55.00" dynamics="88.89"><pitch><step>B</step><alter>-1</alter><octave>3</octave></pitch><duration>4</duration><voice>1</voice><type>quarter</type><stem>up</stem><staff>1</staff></note><note default-x="165.66" default-y="-50.00" dynamics="88.89"><pitch><step>C</step><octave>4</octave></pitch><duration>2</duration><voice>1</voice><type>eighth</type><stem>up</stem><staff>1</staff><beam number="1">begin</beam></note><note default-x="183.79" default-y="-45.00" dynamics="88.89"><pitch><step>D</step><octave>4</octave></pitch><duration>2</duration><tie type="start"/><voice>1</voice><type>eighth</type><stem>up</stem><staff>1</staff><beam number="1">end</beam><notations><tied type="start"/></notations></note><backup><duration>16</duration></backup><note default-x="75.36" default-y="-145.00" dynamics="88.89"><pitch><step>G</step><octave>2</octave></pitch><duration>16</duration><voice>5</voice><type>whole</type><staff>2</staff></note></measure><measure number="14" width="116.73"><attributes/><note default-x="15.32" default-y="-45.00" dynamics="88.89"><pitch><step>D</step><octave>4</octave></pitch><duration>2</duration><tie type="stop"/><voice>1</voice><type>eighth</type><stem>up</stem><staff>1</staff><beam number="1">begin</beam><notations><tied type="stop"/></notations></note><note default-x="37.25" default-y="-35.00" dynamics="88.89"><pitch><step>F</step><octave>4</octave></pitch><duration>2</duration><voice>1</voice><type>eighth</type><stem>up</stem><staff>1</staff><beam number="1">end</beam></note><note default-x="58.82" default-y="-45.00" dynamics="88.89"><pitch><step>D</step><octave>4</octave></pitch><duration>12</duration><voice>1</voice><type>half</type><dot/><stem>up</stem><staff>1</staff></note><backup><duration>16</duration></backup><note default-x="12.00" default-y="-145.00" dynamics="88.89"><pitch><step>G</step><octave>2</octave></pitch><duration>16</duration><voice>5</voice><type>whole</type><staff>2</staff></note></measure><measure number="15" width="185.34"><attributes/><note><rest/><duration>2</duration><voice>1</voice><type>eighth</type><staff>1</staff></note><note default-x="36.85" default-y="-55.00" dynamics="88.89"><pitch><step>B</step><alter>-1</alter><octave>3</octave></pitch><duration>2</duration><voice>1</voice><type>eighth</type><stem>up</stem><staff>1</staff></note><note default-x="70.13" default-y="-55.00" dynamics="88.89"><pitch><step>B</step><alter>-1</alter><octave>3</octave></pitch><duration>4</duration><voice>1</voice><type>quarter</type><stem>up</stem><staff>1</staff></note><note default-x="104.59" default-y="-55.00" dynamics="88.89"><pitch><step>B</step><alter>-1</alter><octave>3</octave></pitch><duration>4</duration><voice>1</voice><type>quarter</type><stem>up</stem><staff>1</staff></note><note default-x="139.04" default-y="-50.00" dynamics="88.89"><pitch><step>C</step><octave>4</octave></pitch><duration>2</duration><voice>1</voice><type>eighth</type><stem>up</stem><staff>1</staff><beam number="1">begin</beam></note><note default-x="160.58" default-y="-45.00" dynamics="88.89"><pitch><step>D</step><octave>4</octave></pitch><duration>2</duration><tie type="start"/><voice>1</voice><type>eighth</type><stem>up</stem><staff>1</staff><beam number="1">end</beam><notations><tied type="start"/></notations></note><backup><duration>16</duration></backup><note default-x="12.00" default-y="-145.00" dynamics="88.89"><pitch><step>G</step><octave>2</octave></pitch><duration>16</duration><voice>5</voice><type>whole</type><staff>2</staff></note></measure><measure number="16" width="140.57"><attributes/><note default-x="15.32" default-y="-45.00" dynamics="88.89"><pitch><step>D</step><octave>4</octave></pitch><duration>2</duration><tie type="stop"/><voice>1</voice><type>eighth</type><stem>up</stem><staff>1</staff><beam number="1">begin</beam><notations><tied type="stop"/></notations></note><note default-x="34.64" default-y="-35.00" dynamics="88.89"><pitch><step>F</step><octave>4</octave></pitch><duration>2</duration><voice>1</voice><type>eighth</type><stem>up</stem><staff>1</staff><beam number="1">end</beam></note><note default-x="53.61" default-y="-45.00" dynamics="88.89"><pitch><step>D</step><octave>4</octave></pitch><duration>8</duration><tie type="start"/><voice>1</voice><type>half</type><stem>up</stem><staff>1</staff><notations><tied type="start"/></notations></note><note default-x="96.48" default-y="-45.00" dynamics="88.89"><pitch><step>D</step><octave>4</octave></pitch><duration>2</duration><tie type="stop"/><voice>1</voice><type>eighth</type><stem>up</stem><staff>1</staff><beam number="1">begin</beam><notations><tied type="stop"/></notations></note><note default-x="115.80" default-y="-55.00" dynamics="88.89"><pitch><step>B</step><alter>-1</alter><octave>3</octave></pitch><duration>2</duration><voice>1</voice><type>eighth</type><stem>up</stem><staff>1</staff><beam number="1">end</beam></note><backup><duration>16</duration></backup><note default-x="12.00" default-y="-120.00" dynamics="88.89"><pitch><step>E</step><alter>-1</alter><octave>3</octave></pitch><duration>16</duration><voice>5</voice><type>whole</type><staff>2</staff></note></measure><measure number="17" width="141.29"><attributes/><note default-x="15.32" default-y="-35.00" dynamics="88.89"><pitch><step>F</step><octave>4</octave></pitch><duration>4</duration><voice>1</voice><type>quarter</type><stem>up</stem><staff>1</staff></note><note default-x="43.77" default-y="-30.00" dynamics="88.89"><pitch><step>G</step><octave>4</octave></pitch><duration>4</duration><voice>1</voice><type>quarter</type><stem>up</stem><staff>1</staff></note><note default-x="72.22" default-y="-35.00" dynamics="88.89"><pitch><step>F</step><octave>4</octave></pitch><duration>6</duration><voice>1</voice><type>quarter</type><dot/><stem>up</stem><staff>1</staff></note><note default-x="106.91" default-y="-45.00" dynamics="88.89"><pitch><step>D</step><octave>4</octave></pitch><duration>2</duration><voice>1</voice><type>eighth</type><stem>up</stem><staff>1</staff></note><backup><duration>16</duration></backup><note default-x="12.00" default-y="-135.00" dynamics="88.89"><pitch><step>B</step><alter>-1</alter><octave>2</octave></pitch><duration>16</duration><voice>5</voice><type>whole</type><staff>2</staff></note></measure><measure number="18" width="108.70"><attributes/><note default-x="15.32" default-y="-35.00" dynamics="88.89"><pitch><step>F</step><octave>4</octave></pitch><duration>4</duration><voice>1</voice><type>quarter</type><stem>up</stem><staff>1</staff></note><note default-x="40.82" default-y="-30.00" dynamics="88.89"><pitch><step>G</step><octave>4</octave></pitch><duration>4</duration><voice>1</voice><type>quarter</type><stem>up</stem><staff>1</staff></note><note default-x="65.95" default-y="-35.00" dynamics="88.89"><pitch><step>F</step><octave>4</octave></pitch><duration>8</duration><tie type="start"/><voice>1</voice><type>half</type><stem>up</stem><staff>1</staff><notations><tied type="start"/></notations></note><backup><duration>16</duration></backup><note default-x="12.00" default-y="-135.00" dynamics="88.89"><pitch><step>B</step><alter>-1</alter><octave>2</octave></pitch><duration>16</duration><voice>5</voice><type>whole</type><staff>2</staff></note></measure><measure number="19" width="154.98"><attributes/><note default-x="15.32" default-y="-35.00" dynamics="88.89"><pitch><step>F</step><octave>4</octave></pitch><duration>4</duration><tie type="stop"/><voice>1</voice><type>quarter</type><stem>up</stem><staff>1</staff><notations><tied type="stop"/></notations></note><note default-x="44.97" default-y="-30.00" dynamics="88.89"><pitch><step>G</step><octave>4</octave></pitch><duration>4</duration><voice>1</voice><type>quarter</type><stem>up</stem><staff>1</staff></note><note default-x="74.62" default-y="-35.00" dynamics="88.89"><pitch><step>F</step><octave>4</octave></pitch><duration>2</duration><voice>1</voice><type>eighth</type><stem>up</stem><staff>1</staff><beam number="1">begin</beam></note><note default-x="93.15" default-y="-35.00" dynamics="88.89"><pitch><step>F</step><octave>4</octave></pitch><duration>2</duration><voice>1</voice><type>eighth</type><stem>up</stem><staff>1</staff><beam number="1">end</beam></note><note default-x="111.68" default-y="-45.00" dynamics="88.89"><pitch><step>D</step><octave>4</octave></pitch><duration>2</duration><voice>1</voice><type>eighth</type><stem>up</stem><staff>1</staff><beam number="1">begin</beam></note><note default-x="130.21" default-y="-45.00" dynamics="88.89"><pitch><step>D</step><octave>4</octave></pitch><duration>2</duration><voice>1</voice><type>eighth</type><stem>up</stem><staff>1</staff><beam number="1">end</beam></note><backup><duration>16</duration></backup><note default-x="12.00" default-y="-135.00" dynamics="88.89"><pitch><step>B</step><alter>-1</alter><octave>2</octave></pitch><duration>16</duration><voice>5</voice><type>whole</type><staff>2</staff></note></measure><measure number="20" width="202.07"><print new-system="yes"/><attributes/><note default-x="78.68" default-y="-35.00" dynamics="88.89"><pitch><step>F</step><octave>4</octave></pitch><duration>4</duration><voice>1</voice><type>quarter</type><stem>up</stem><staff>1</staff></note><note default-x="106.33" default-y="-30.00" dynamics="88.89"><pitch><step>G</step><octave>4</octave></pitch><duration>4</duration><voice>1</voice><type>quarter</type><stem>up</stem><staff>1</staff></note><note default-x="133.98" default-y="-35.00" dynamics="88.89"><pitch><step>F</step><octave>4</octave></pitch><duration>6</duration><voice>1</voice><type>quarter</type><dot/><stem>up</stem><staff>1</staff></note><note default-x="167.70" default-y="-45.00" dynamics="88.89"><pitch><step>D</step><octave>4</octave></pitch><duration>2</duration><voice>1</voice><type>eighth</type><stem>up</stem><staff>1</staff></note><backup><duration>16</duration></backup><note default-x="75.36" default-y="-130.00" dynamics="88.89"><pitch><step>C</step><octave>3</octave></pitch><duration>16</duration><voice>5</voice><type>whole</type><staff>2</staff></note></measure><measure number="21" width="145.39"><attributes/><note default-x="15.32" default-y="-35.00" dynamics="88.89"><pitch><step>F</step><octave>4</octave></pitch><duration>4</duration><voice>1</voice><type>quarter</type><stem>up</stem><staff>1</staff></note><note default-x="45.05" default-y="-30.00" dynamics="88.89"><pitch><step>G</step><octave>4</octave></pitch><duration>4</duration><voice>1</voice><type>quarter</type><stem>up</stem><staff>1</staff></note><note default-x="74.77" default-y="-35.00" dynamics="88.89"><pitch><step>F</step><octave>4</octave></pitch><duration>6</duration><voice>1</voice><type>quarter</type><dot/><stem>up</stem><staff>1</staff></note><note default-x="111.02" default-y="-45.00" dynamics="88.89"><pitch><step>D</step><octave>4</octave></pitch><duration>2</duration><voice>1</voice><type>eighth</type><stem>up</stem><staff>1</staff></note><backup><duration>16</duration></backup><note default-x="12.00" default-y="-145.00" dynamics="88.89"><pitch><step>G</step><octave>2</octave></pitch><duration>16</duration><voice>5</voice><type>whole</type><staff>2</staff></note></measure><measure number="22" width="112.81"><attributes/><note default-x="15.32" default-y="-35.00" dynamics="88.89"><pitch><step>F</step><octave>4</octave></pitch><duration>4</duration><voice>1</voice><type>quarter</type><stem>up</stem><staff>1</staff></note><note default-x="41.96" default-y="-30.00" dynamics="88.89"><pitch><step>G</step><octave>4</octave></pitch><duration>4</duration><voice>1</voice><type>quarter</type><stem>up</stem><staff>1</staff></note><note default-x="68.23" default-y="-35.00" dynamics="88.89"><pitch><step>F</step><octave>4</octave></pitch><duration>8</duration><voice>1</voice><type>half</type><stem>up</stem><staff>1</staff></note><backup><duration>16</duration></backup><note default-x="12.00" default-y="-145.00" dynamics="88.89"><pitch><step>G</step><octave>2</octave></pitch><duration>16</duration><voice>5</voice><type>whole</type><staff>2</staff></note></measure><measure number="23" width="171.71"><attributes/><note><rest/><duration>4</duration><voice>1</voice><type>quarter</type><staff>1</staff></note><note default-x="46.05" default-y="-35.00" dynamics="88.89"><pitch><step>F</step><octave>4</octave></pitch><duration>4</duration><voice>1</voice><type>quarter</type><stem>up</stem><staff>1</staff></note><note default-x="76.78" default-y="-35.00" dynamics="88.89"><pitch><step>F</step><octave>4</octave></pitch><duration>3</duration><voice>1</voice><type>eighth</type><dot/><stem>up</stem><staff>1</staff><beam number="1">begin</beam></note><note default-x="104.03" default-y="-35.00" dynamics="88.89"><pitch><step>F</step><octave>4</octave></pitch><duration>1</duration><voice>1</voice><type>16th</type><stem>up</stem><staff>1</staff><beam number="1">end</beam><beam number="2">backward hook</beam></note><note default-x="119.69" default-y="-45.00" dynamics="88.89"><pitch><step>D</step><octave>4</octave></pitch><duration>3</duration><voice>1</voice><type>eighth</type><dot/><stem>up</stem><staff>1</staff><beam number="1">begin</beam></note><note default-x="146.94" default-y="-45.00" dynamics="88.89"><pitch><step>D</step><octave>4</octave></pitch><duration>1</duration><voice>1</voice><type>16th</type><stem>up</stem><staff>1</staff><beam number="1">end</beam><beam number="2">backward hook</beam></note><backup><duration>16</duration></backup><note default-x="12.00" default-y="-145.00" dynamics="88.89"><pitch><step>G</step><octave>2</octave></pitch><duration>16</duration><voice>5</voice><type>whole</type><staff>2</staff></note></measure><measure number="24" width="165.98"><attributes/><note default-x="15.32" default-y="-50.00" dynamics="88.89"><pitch><step>C</step><octave>4</octave></pitch><duration>4</duration><voice>1</voice><type>quarter</type><stem>up</stem><staff>1</staff></note><note default-x="47.40" default-y="-55.00" dynamics="88.89"><pitch><step>B</step><alter>-1</alter><octave>3</octave></pitch><duration>4</duration><voice>1</voice><type>quarter</type><stem>up</stem><staff>1</staff></note><note default-x="79.48" default-y="-55.00" dynamics="88.89"><pitch><step>B</step><alter>-1</alter><octave>3</octave></pitch><duration>4</duration><voice>1</voice><type>quarter</type><stem>up</stem><staff>1</staff></note><note><rest/><duration>2</duration><voice>1</voice><type>eighth</type><staff>1</staff></note><note default-x="131.61" default-y="-45.00" dynamics="88.89"><pitch><step>D</step><octave>4</octave></pitch><duration>2</duration><voice>1</voice><type>eighth</type><stem>up</stem><staff>1</staff></note><backup><duration>16</duration></backup><note default-x="12.00" default-y="-120.00" dynamics="88.89"><pitch><step>E</step><alter>-1</alter><octave>3</octave></pitch><duration>16</duration><voice>5</voice><type>whole</type><staff>2</staff></note></measure><measure number="25" width="145.39"><attributes/><note default-x="15.32" default-y="-35.00" dynamics="88.89"><pitch><step>F</step><octave>4</octave></pitch><duration>4</duration><voice>1</voice><type>quarter</type><stem>up</stem><staff>1</staff></note><note default-x="45.05" default-y="-30.00" dynamics="88.89"><pitch><step>G</step><octave>4</octave></pitch><duration>4</duration><voice>1</voice><type>quarter</type><stem>up</stem><staff>1</staff></note><note default-x="74.77" default-y="-35.00" dynamics="88.89"><pitch><step>F</step><octave>4</octave></pitch><duration>6</duration><voice>1</voice><type>quarter</type><dot/><stem>up</stem><staff>1</staff></note><note default-x="111.02" default-y="-45.00" dynamics="88.89"><pitch><step>D</step><octave>4</octave></pitch><duration>2</duration><voice>1</voice><type>eighth</type><stem>up</stem><staff>1</staff></note><backup><duration>16</duration></backup><note default-x="12.00" default-y="-135.00" dynamics="88.89"><pitch><step>B</step><alter>-1</alter><octave>2</octave></pitch><duration>16</duration><voice>5</voice><type>whole</type><staff>2</staff></note></measure><measure number="26" width="112.81"><attributes/><note default-x="15.32" default-y="-35.00" dynamics="88.89"><pitch><step>F</step><octave>4</octave></pitch><duration>4</duration><voice>1</voice><type>quarter</type><stem>up</stem><staff>1</staff></note><note default-x="41.96" default-y="-30.00" dynamics="88.89"><pitch><step>G</step><octave>4</octave></pitch><duration>4</duration><voice>1</voice><type>quarter</type><stem>up</stem><staff>1</staff></note><note default-x="68.23" default-y="-35.00" dynamics="88.89"><pitch><step>F</step><octave>4</octave></pitch><duration>8</duration><tie type="start"/><voice>1</voice><type>half</type><stem>up</stem><staff>1</staff><notations><tied type="start"/></notations></note><backup><duration>16</duration></backup><note default-x="12.00" default-y="-135.00" dynamics="88.89"><pitch><step>B</step><alter>-1</alter><octave>2</octave></pitch><duration>16</duration><voice>5</voice><type>whole</type><staff>2</staff></note></measure><measure number="27" width="208.35"><print new-system="yes"/><attributes/><note default-x="78.68" default-y="-35.00" dynamics="88.89"><pitch><step>F</step><octave>4</octave></pitch><duration>4</duration><tie type="stop"/><voice>1</voice><type>quarter</type><stem>up</stem><staff>1</staff><notations><tied type="stop"/></notations></note><note default-x="105.75" default-y="-30.00" dynamics="88.89"><pitch><step>G</step><octave>4</octave></pitch><duration>4</duration><voice>1</voice><type>quarter</type><stem>up</stem><staff>1</staff></note><note default-x="132.82" default-y="-35.00" dynamics="88.89"><pitch><step>F</step><octave>4</octave></pitch><duration>2</duration><voice>1</voice><type>eighth</type><stem>up</stem><staff>1</staff><beam number="1">begin</beam></note><note default-x="149.75" default-y="-35.00" dynamics="88.89"><pitch><step>F</step><octave>4</octave></pitch><duration>2</duration><voice>1</voice><type>eighth</type><stem>up</stem><staff>1</staff><beam number="1">end</beam></note><note default-x="166.67" default-y="-45.00" dynamics="88.89"><pitch><step>D</step><octave>4</octave></pitch><duration>2</duration><voice>1</voice><type>eighth</type><stem>up</stem><staff>1</staff><beam number="1">begin</beam></note><note default-x="183.59" default-y="-45.00" dynamics="88.89"><pitch><step>D</step><octave>4</octave></pitch><duration>2</duration><voice>1</voice><type>eighth</type><stem>up</stem><staff>1</staff><beam number="1">end</beam></note><backup><duration>16</duration></backup><note default-x="75.36" default-y="-135.00" dynamics="88.89"><pitch><step>B</step><alter>-1</alter><octave>2</octave></pitch><duration>16</duration><voice>5</voice><type>whole</type><staff>2</staff></note></measure><measure number="28" width="137.99"><attributes/><note default-x="15.32" default-y="-35.00" dynamics="88.89"><pitch><step>F</step><octave>4</octave></pitch><duration>4</duration><voice>1</voice><type>quarter</type><stem>up</stem><staff>1</staff></note><note default-x="42.75" default-y="-30.00" dynamics="88.89"><pitch><step>G</step><octave>4</octave></pitch><duration>4</duration><voice>1</voice><type>quarter</type><stem>up</stem><staff>1</staff></note><note default-x="70.17" default-y="-35.00" dynamics="88.89"><pitch><step>F</step><octave>4</octave></pitch><duration>6</duration><voice>1</voice><type>quarter</type><dot/><stem>up</stem><staff>1</staff></note><note default-x="103.61" default-y="-45.00" dynamics="88.89"><pitch><step>D</step><octave>4</octave></pitch><duration>2</duration><voice>1</voice><type>eighth</type><stem>up</stem><staff>1</staff></note><backup><duration>16</duration></backup><note default-x="12.00" default-y="-130.00" dynamics="88.89"><pitch><step>C</step><octave>3</octave></pitch><duration>16</duration><voice>5</voice><type>whole</type><staff>2</staff></note></measure><measure number="29" width="137.99"><attributes/><note default-x="15.32" default-y="-35.00" dynamics="88.89"><pitch><step>F</step><octave>4</octave></pitch><duration>4</duration><voice>1</voice><type>quarter</type><stem>up</stem><staff>1</staff></note><note default-x="42.75" default-y="-30.00" dynamics="88.89"><pitch><step>G</step><octave>4</octave></pitch><duration>4</duration><voice>1</voice><type>quarter</type><stem>up</stem><staff>1</staff></note><note default-x="70.17" default-y="-35.00" dynamics="88.89"><pitch><step>F</step><octave>4</octave></pitch><duration>6</duration><voice>1</voice><type>quarter</type><dot/><stem>up</stem><staff>1</staff></note><note default-x="103.61" default-y="-45.00" dynamics="88.89"><pitch><step>D</step><octave>4</octave></pitch><duration>2</duration><voice>1</voice><type>eighth</type><stem>up</stem><staff>1</staff></note><backup><duration>16</duration></backup><note default-x="12.00" default-y="-145.00" dynamics="88.89"><pitch><step>G</step><octave>2</octave></pitch><duration>16</duration><voice>5</voice><type>whole</type><staff>2</staff></note></measure><measure number="30" width="105.40"><attributes/><note default-x="15.32" default-y="-35.00" dynamics="88.89"><pitch><step>F</step><octave>4</octave></pitch><duration>4</duration><voice>1</voice><type>quarter</type><stem>up</stem><staff>1</staff></note><note default-x="39.90" default-y="-30.00" dynamics="88.89"><pitch><step>G</step><octave>4</octave></pitch><duration>4</duration><voice>1</voice><type>quarter</type><stem>up</stem><staff>1</staff></note><note default-x="64.12" default-y="-35.00" dynamics="88.89"><pitch><step>F</step><octave>4</octave></pitch><duration>8</duration><tie type="start"/><voice>1</voice><type>half</type><stem>up</stem><staff>1</staff><notations><tied type="start"/></notations></note><backup><duration>16</duration></backup><note default-x="12.00" default-y="-145.00" dynamics="88.89"><pitch><step>G</step><octave>2</octave></pitch><duration>16</duration><voice>5</voice><type>whole</type><staff>2</staff></note></measure><measure number="31" width="120.35"><attributes/><note default-x="15.32" default-y="-35.00" dynamics="88.89"><pitch><step>F</step><octave>4</octave></pitch><duration>4</duration><tie type="stop"/><voice>1</voice><type>quarter</type><stem>up</stem><staff>1</staff><notations><tied type="stop"/></notations></note><note default-x="41.18" default-y="-35.00" dynamics="88.89"><pitch><step>F</step><octave>4</octave></pitch><duration>4</duration><voice>1</voice><type>quarter</type><stem>up</stem><staff>1</staff></note><note default-x="67.03" default-y="-35.00" dynamics="88.89"><pitch><step>F</step><octave>4</octave></pitch><duration>4</duration><voice>1</voice><type>quarter</type><stem>up</stem><staff>1</staff></note><note default-x="92.89" default-y="-35.00" dynamics="88.89"><pitch><step>F</step><octave>4</octave></pitch><duration>4</duration><voice>1</voice><type>quarter</type><stem>up</stem><staff>1</staff></note><backup><duration>16</duration></backup><note default-x="12.00" default-y="-145.00" dynamics="88.89"><pitch><step>G</step><octave>2</octave></pitch><duration>16</duration><voice>5</voice><type>whole</type><staff>2</staff></note></measure><measure number="32" width="120.35"><attributes/><note default-x="15.32" default-y="-35.00" dynamics="88.89"><pitch><step>F</step><octave>4</octave></pitch><duration>4</duration><voice>1</voice><type>quarter</type><stem>up</stem><staff>1</staff></note><note default-x="41.18" default-y="-30.00" dynamics="88.89"><pitch><step>G</step><octave>4</octave></pitch><duration>4</duration><voice>1</voice><type>quarter</type><stem>up</stem><staff>1</staff></note><note default-x="67.03" default-y="-20.00" dynamics="88.89"><pitch><step>B</step><alter>-1</alter><octave>4</octave></pitch><duration>4</duration><voice>1</voice><type>quarter</type><stem>down</stem><staff>1</staff></note><note default-x="92.89" default-y="-20.00" dynamics="88.89"><pitch><step>B</step><alter>-1</alter><octave>4</octave></pitch><duration>4</duration><tie type="start"/><voice>1</voice><type>quarter</type><stem>down</stem><staff>1</staff><notations><tied type="start"/></notations></note><backup><duration>16</duration></backup><note default-x="12.00" default-y="-120.00" dynamics="88.89"><pitch><step>E</step><alter>-1</alter><octave>3</octave></pitch><duration>16</duration><voice>5</voice><type>whole</type><staff>2</staff></note></measure><measure number="33" width="120.35"><attributes/><note default-x="15.32" default-y="-20.00" dynamics="88.89"><pitch><step>B</step><alter>-1</alter><octave>4</octave></pitch><duration>4</duration><tie type="stop"/><voice>1</voice><type>quarter</type><stem>down</stem><staff>1</staff><notations><tied type="stop"/></notations></note><note default-x="41.18" default-y="-30.00" dynamics="88.89"><pitch><step>G</step><octave>4</octave></pitch><duration>4</duration><voice>1</voice><type>quarter</type><stem>up</stem><staff>1</staff></note><note default-x="67.03" default-y="-35.00" dynamics="88.89"><pitch><step>F</step><octave>4</octave></pitch><duration>4</duration><voice>1</voice><type>quarter</type><stem>up</stem><staff>1</staff></note><note default-x="92.89" default-y="-20.00" dynamics="88.89"><pitch><step>B</step><alter>-1</alter><octave>4</octave></pitch><duration>4</duration><tie type="start"/><voice>1</voice><type>quarter</type><stem>down</stem><staff>1</staff><notations><tied type="start"/></notations></note><backup><duration>16</duration></backup><note default-x="12.00" default-y="-135.00" dynamics="88.89"><pitch><step>B</step><alter>-1</alter><octave>2</octave></pitch><duration>16</duration><voice>5</voice><type>whole</type><staff>2</staff></note></measure><measure number="34" width="105.40"><attributes/><note default-x="15.32" default-y="-20.00" dynamics="88.89"><pitch><step>B</step><alter>-1</alter><octave>4</octave></pitch><duration>4</duration><tie type="stop"/><voice>1</voice><type>quarter</type><stem>down</stem><staff>1</staff><notations><tied type="stop"/></notations></note><note default-x="39.54" default-y="-30.00" dynamics="88.89"><pitch><step>G</step><octave>4</octave></pitch><duration>8</duration><voice>1</voice><type>half</type><stem>up</stem><staff>1</staff></note><note default-x="79.22" default-y="-20.00" dynamics="88.89"><pitch><step>B</step><alter>-1</alter><octave>4</octave></pitch><duration>4</duration><tie type="start"/><voice>1</voice><type>quarter</type><stem>down</stem><staff>1</staff><notations><tied type="start"/></notations></note><backup><duration>16</duration></backup><note default-x="12.00" default-y="-135.00" dynamics="88.89"><pitch><step>B</step><alter>-1</alter><octave>2</octave></pitch><duration>16</duration><voice>5</voice><type>whole</type><staff>2</staff></note></measure><measure number="35" width="187.53"><print new-system="yes"/><attributes/><note default-x="78.68" default-y="-20.00" dynamics="88.89"><pitch><step>B</step><alter>-1</alter><octave>4</octave></pitch><duration>2</duration><tie type="stop"/><voice>1</voice><type>eighth</type><stem>down</stem><staff>1</staff><beam number="1">begin</beam><notations><tied type="stop"/></notations></note><note default-x="94.45" default-y="-20.00" dynamics="88.89"><pitch><step>B</step><alter>-1</alter><octave>4</octave></pitch><duration>2</duration><voice>1</voice><type>eighth</type><stem>down</stem><staff>1</staff><beam number="1">end</beam></note><note default-x="110.22" default-y="-30.00" dynamics="88.89"><pitch><step>G</step><octave>4</octave></pitch><duration>4</duration><voice>1</voice><type>quarter</type><stem>up</stem><staff>1</staff></note><note default-x="135.46" default-y="-35.00" dynamics="88.89"><pitch><step>F</step><octave>4</octave></pitch><duration>4</duration><voice>1</voice><type>quarter</type><stem>up</stem><staff>1</staff></note><note default-x="160.69" default-y="-20.00" dynamics="88.89"><pitch><step>B</step><alter>-1</alter><octave>4</octave></pitch><duration>4</duration><tie type="start"/><voice>1</voice><type>quarter</type><stem>down</stem><staff>1</staff><notations><tied type="start"/></notations></note><backup><duration>16</duration></backup><note default-x="75.36" default-y="-135.00" dynamics="88.89"><pitch><step>B</step><alter>-1</alter><octave>2</octave></pitch><duration>16</duration><voice>5</voice><type>whole</type><staff>2</staff></note></measure><measure number="36" width="115.18"><attributes/><note default-x="15.32" default-y="-20.00" dynamics="88.89"><pitch><step>B</step><alter>-1</alter><octave>4</octave></pitch><duration>4</duration><tie type="stop"/><voice>1</voice><type>quarter</type><stem>down</stem><staff>1</staff><notations><tied type="stop"/></notations></note><note default-x="39.89" default-y="-30.00" dynamics="88.89"><pitch><step>G</step><octave>4</octave></pitch><duration>4</duration><voice>1</voice><type>quarter</type><stem>up</stem><staff>1</staff></note><note default-x="64.45" default-y="-35.00" dynamics="88.89"><pitch><step>F</step><octave>4</octave></pitch><duration>4</duration><voice>1</voice><type>quarter</type><stem>up</stem><staff>1</staff></note><note default-x="89.02" default-y="-20.00" dynamics="88.89"><pitch><step>B</step><alter>-1</alter><octave>4</octave></pitch><duration>4</duration><tie type="start"/><voice>1</voice><type>quarter</type><stem>down</stem><staff>1</staff><notations><tied type="start"/></notations></note><backup><duration>16</duration></backup><note default-x="12.00" default-y="-130.00" dynamics="88.89"><pitch><step>C</step><octave>3</octave></pitch><duration>16</duration><voice>5</voice><type>whole</type><staff>2</staff></note></measure><measure number="37" width="115.18"><attributes/><note default-x="15.32" default-y="-20.00" dynamics="88.89"><pitch><step>B</step><alter>-1</alter><octave>4</octave></pitch><duration>4</duration><tie type="stop"/><voice>1</voice><type>quarter</type><stem>down</stem><staff>1</staff><notations><tied type="stop"/></notations></note><note default-x="39.89" default-y="-30.00" dynamics="88.89"><pitch><step>G</step><octave>4</octave></pitch><duration>4</duration><voice>1</voice><type>quarter</type><stem>up</stem><staff>1</staff></note><note default-x="64.45" default-y="-35.00" dynamics="88.89"><pitch><step>F</step><octave>4</octave></pitch><duration>4</duration><voice>1</voice><type>quarter</type><stem>up</stem><staff>1</staff></note><note default-x="89.02" default-y="-20.00" dynamics="88.89"><pitch><step>B</step><alter>-1</alter><octave>4</octave></pitch><duration>4</duration><tie type="start"/><voice>1</voice><type>quarter</type><stem>down</stem><staff>1</staff><notations><tied type="start"/></notations></note><backup><duration>16</duration></backup><note default-x="12.00" default-y="-145.00" dynamics="88.89"><pitch><step>G</step><octave>2</octave></pitch><duration>16</duration><voice>5</voice><type>whole</type><staff>2</staff></note></measure><measure number="38" width="100.24"><attributes/><note default-x="15.32" default-y="-20.00" dynamics="88.89"><pitch><step>B</step><alter>-1</alter><octave>4</octave></pitch><duration>4</duration><tie type="stop"/><voice>1</voice><type>quarter</type><stem>down</stem><staff>1</staff><notations><tied type="stop"/></notations></note><note default-x="38.10" default-y="-30.00" dynamics="88.89"><pitch><step>G</step><octave>4</octave></pitch><duration>8</duration><voice>1</voice><type>half</type><stem>up</stem><staff>1</staff></note><note default-x="75.47" default-y="-35.00" dynamics="88.89"><pitch><step>F</step><octave>4</octave></pitch><duration>4</duration><voice>1</voice><type>quarter</type><stem>up</stem><staff>1</staff></note><backup><duration>16</duration></backup><note default-x="12.00" default-y="-145.00" dynamics="88.89"><pitch><step>G</step><octave>2</octave></pitch><duration>16</duration><voice>5</voice><type>whole</type><staff>2</staff></note></measure><measure number="39" width="115.18"><attributes/><note default-x="15.32" default-y="-20.00" dynamics="88.89"><pitch><step>B</step><alter>-1</alter><octave>4</octave></pitch><duration>4</duration><voice>1</voice><type>quarter</type><stem>down</stem><staff>1</staff></note><note default-x="39.89" default-y="-15.00" dynamics="88.89"><pitch><step>C</step><octave>5</octave></pitch><duration>4</duration><voice>1</voice><type>quarter</type><stem>down</stem><staff>1</staff></note><note default-x="64.45" default-y="-10.00" dynamics="88.89"><pitch><step>D</step><octave>5</octave></pitch><duration>4</duration><voice>1</voice><type>quarter</type><stem>down</stem><staff>1</staff></note><note default-x="89.02" default-y="-15.00" dynamics="88.89"><pitch><step>C</step><octave>5</octave></pitch><duration>4</duration><tie type="start"/><voice>1</voice><type>quarter</type><stem>down</stem><staff>1</staff><notations><tied type="start"/></notations></note><backup><duration>16</duration></backup><note default-x="12.00" default-y="-145.00" dynamics="88.89"><pitch><step>G</step><octave>2</octave></pitch><duration>16</duration><voice>5</voice><type>whole</type><staff>2</staff></note></measure><measure number="40" width="115.18"><attributes/><note default-x="15.32" default-y="-15.00" dynamics="88.89"><pitch><step>C</step><octave>5</octave></pitch><duration>4</duration><tie type="stop"/><voice>1</voice><type>quarter</type><stem>down</stem><staff>1</staff><notations><tied type="stop"/></notations></note><note default-x="39.89" default-y="-30.00" dynamics="88.89"><pitch><step>G</step><octave>4</octave></pitch><duration>4</duration><voice>1</voice><type>quarter</type><stem>up</stem><staff>1</staff></note><note default-x="64.45" default-y="-35.00" dynamics="88.89"><pitch><step>F</step><octave>4</octave></pitch><duration>4</duration><voice>1</voice><type>quarter</type><stem>up</stem><staff>1</staff></note><note default-x="89.02" default-y="-20.00" dynamics="88.89"><pitch><step>B</step><alter>-1</alter><octave>4</octave></pitch><duration>4</duration><tie type="start"/><voice>1</voice><type>quarter</type><stem>down</stem><staff>1</staff><notations><tied type="start"/></notations></note><backup><duration>16</duration></backup><note default-x="12.00" default-y="-120.00" dynamics="88.89"><pitch><step>E</step><alter>-1</alter><octave>3</octave></pitch><duration>16</duration><voice>5</voice><type>whole</type><staff>2</staff></note></measure><measure number="41" width="92.24"><attributes/><note default-x="14.96" default-y="-20.00" dynamics="88.89"><pitch><step>B</step><alter>-1</alter><octave>4</octave></pitch><duration>12</duration><tie type="stop"/><voice>1</voice><type>half</type><dot/><stem>down</stem><staff>1</staff><notations><tied type="stop"/></notations></note><note default-x="65.12" default-y="-20.00" dynamics="88.89"><pitch><step>B</step><alter>-1</alter><octave>4</octave></pitch><duration>4</duration><tie type="start"/><voice>1</voice><type>quarter</type><stem>down</stem><staff>1</staff><notations><tied type="start"/></notations></note><backup><duration>16</duration></backup><note default-x="12.00" default-y="-135.00" dynamics="88.89"><pitch><step>B</step><alter>-1</alter><octave>2</octave></pitch><duration>16</duration><voice>5</voice><type>whole</type><staff>2</staff></note></measure><measure number="42" width="100.24"><attributes/><note default-x="15.32" default-y="-20.00" dynamics="88.89"><pitch><step>B</step><alter>-1</alter><octave>4</octave></pitch><duration>4</duration><tie type="stop"/><voice>1</voice><type>quarter</type><stem>down</stem><staff>1</staff><notations><tied type="stop"/></notations></note><note default-x="38.10" default-y="-30.00" dynamics="88.89"><pitch><step>G</step><octave>4</octave></pitch><duration>8</duration><voice>1</voice><type>half</type><stem>up</stem><staff>1</staff></note><note default-x="75.47" default-y="-20.00" dynamics="88.89"><pitch><step>B</step><alter>-1</alter><octave>4</octave></pitch><duration>4</duration><voice>1</voice><type>quarter</type><stem>down</stem><staff>1</staff></note><backup><duration>16</duration></backup><note default-x="12.00" default-y="-135.00" dynamics="88.89"><pitch><step>B</step><alter>-1</alter><octave>2</octave></pitch><duration>16</duration><voice>5</voice><type>whole</type><staff>2</staff></note></measure><measure number="43" width="115.18"><attributes/><note default-x="15.32" default-y="-20.00" dynamics="88.89"><pitch><step>B</step><alter>-1</alter><octave>4</octave></pitch><duration>4</duration><voice>1</voice><type>quarter</type><stem>down</stem><staff>1</staff></note><note default-x="39.89" default-y="-30.00" dynamics="88.89"><pitch><step>G</step><octave>4</octave></pitch><duration>4</duration><voice>1</voice><type>quarter</type><stem>up</stem><staff>1</staff></note><note default-x="64.45" default-y="-35.00" dynamics="88.89"><pitch><step>F</step><octave>4</octave></pitch><duration>4</duration><voice>1</voice><type>quarter</type><stem>up</stem><staff>1</staff></note><note default-x="89.02" default-y="-20.00" dynamics="88.89"><pitch><step>B</step><alter>-1</alter><octave>4</octave></pitch><duration>4</duration><tie type="start"/><voice>1</voice><type>quarter</type><stem>down</stem><staff>1</staff><notations><tied type="start"/></notations></note><backup><duration>16</duration></backup><note default-x="12.00" default-y="-135.00" dynamics="88.89"><pitch><step>B</step><alter>-1</alter><octave>2</octave></pitch><duration>16</duration><voice>5</voice><type>whole</type><staff>2</staff></note></measure><measure number="44" width="176.89"><print new-system="yes"/><attributes/><note default-x="78.68" default-y="-20.00" dynamics="88.89"><pitch><step>B</step><alter>-1</alter><octave>4</octave></pitch><duration>4</duration><tie type="stop"/><voice>1</voice><type>quarter</type><stem>down</stem><staff>1</staff><notations><tied type="stop"/></notations></note><note default-x="102.83" default-y="-30.00" dynamics="88.89"><pitch><step>G</step><octave>4</octave></pitch><duration>4</duration><voice>1</voice><type>quarter</type><stem>up</stem><staff>1</staff></note><note default-x="126.98" default-y="-35.00" dynamics="88.89"><pitch><step>F</step><octave>4</octave></pitch><duration>4</duration><voice>1</voice><type>quarter</type><stem>up</stem><staff>1</staff></note><note default-x="151.14" default-y="-20.00" dynamics="88.89"><pitch><step>B</step><alter>-1</alter><octave>4</octave></pitch><duration>4</duration><tie type="start"/><voice>1</voice><type>quarter</type><stem>down</stem><staff>1</staff><notations><tied type="start"/></notations></note><backup><duration>16</duration></backup><note default-x="75.36" default-y="-130.00" dynamics="88.89"><pitch><step>C</step><octave>3</octave></pitch><duration>16</duration><voice>5</voice><type>whole</type><staff>2</staff></note></measure><measure number="45" width="120.22"><attributes/><note default-x="15.32" default-y="-20.00" dynamics="88.89"><pitch><step>B</step><alter>-1</alter><octave>4</octave></pitch><duration>4</duration><tie type="stop"/><voice>1</voice><type>quarter</type><stem>down</stem><staff>1</staff><notations><tied type="stop"/></notations></note><note default-x="41.14" default-y="-30.00" dynamics="88.89"><pitch><step>G</step><octave>4</octave></pitch><duration>4</duration><voice>1</voice><type>quarter</type><stem>up</stem><staff>1</staff></note><note default-x="66.97" default-y="-35.00" dynamics="88.89"><pitch><step>F</step><octave>4</octave></pitch><duration>4</duration><voice>1</voice><type>quarter</type><stem>up</stem><staff>1</staff></note><note default-x="92.79" default-y="-20.00" dynamics="88.89"><pitch><step>B</step><alter>-1</alter><octave>4</octave></pitch><duration>4</duration><tie type="start"/><voice>1</voice><type>quarter</type><stem>down</stem><staff>1</staff><notations><tied type="start"/></notations></note><backup><duration>16</duration></backup><note default-x="12.00" default-y="-145.00" dynamics="88.89"><pitch><step>G</step><octave>2</octave></pitch><duration>16</duration><voice>5</voice><type>whole</type><staff>2</staff></note></measure><measure number="46" width="105.27"><attributes/><note default-x="15.32" default-y="-20.00" dynamics="88.89"><pitch><step>B</step><alter>-1</alter><octave>4</octave></pitch><duration>4</duration><tie type="stop"/><voice>1</voice><type>quarter</type><stem>down</stem><staff>1</staff><notations><tied type="stop"/></notations></note><note default-x="39.50" default-y="-30.00" dynamics="88.89"><pitch><step>G</step><octave>4</octave></pitch><duration>8</duration><voice>1</voice><type>half</type><stem>up</stem><staff>1</staff></note><note default-x="79.13" default-y="-35.00" dynamics="88.89"><pitch><step>F</step><octave>4</octave></pitch><duration>4</duration><voice>1</voice><type>quarter</type><stem>up</stem><staff>1</staff></note><backup><duration>16</duration></backup><note default-x="12.00" default-y="-145.00" dynamics="88.89"><pitch><step>G</step><octave>2</octave></pitch><duration>16</duration><voice>5</voice><type>whole</type><staff>2</staff></note></measure><measure number="47" width="120.22"><attributes/><note default-x="15.32" default-y="-20.00" dynamics="88.89"><pitch><step>B</step><alter>-1</alter><octave>4</octave></pitch><duration>4</duration><voice>1</voice><type>quarter</type><stem>down</stem><staff>1</staff></note><note default-x="41.14" default-y="-15.00" dynamics="88.89"><pitch><step>C</step><octave>5</octave></pitch><duration>4</duration><voice>1</voice><type>quarter</type><stem>down</stem><staff>1</staff></note><note default-x="66.97" default-y="-10.00" dynamics="88.89"><pitch><step>D</step><octave>5</octave></pitch><duration>4</duration><voice>1</voice><type>quarter</type><stem>down</stem><staff>1</staff></note><note default-x="92.79" default-y="-15.00" dynamics="88.89"><pitch><step>C</step><octave>5</octave></pitch><duration>4</duration><tie type="start"/><voice>1</voice><type>quarter</type><stem>down</stem><staff>1</staff><notations><tied type="start"/></notations></note><backup><duration>16</duration></backup><note default-x="12.00" default-y="-145.00" dynamics="88.89"><pitch><step>G</step><octave>2</octave></pitch><duration>16</duration><voice>5</voice><type>whole</type><staff>2</staff></note></measure><measure number="48" width="105.27"><attributes/><note default-x="15.32" default-y="-15.00" dynamics="88.89"><pitch><step>C</step><octave>5</octave></pitch><duration>4</duration><tie type="stop"/><voice>1</voice><type>quarter</type><stem>down</stem><staff>1</staff><notations><tied type="stop"/></notations></note><note default-x="39.86" default-y="-30.00" dynamics="88.89"><pitch><step>G</step><octave>4</octave></pitch><duration>4</duration><voice>1</voice><type>quarter</type><stem>up</stem><staff>1</staff></note><note default-x="64.04" default-y="-35.00" dynamics="88.89"><pitch><step>F</step><octave>4</octave></pitch><duration>8</duration><voice>1</voice><type>half</type><stem>up</stem><staff>1</staff></note><backup><duration>16</duration></backup><note default-x="12.00" default-y="-120.00" dynamics="88.89"><pitch><step>E</step><alter>-1</alter><octave>3</octave></pitch><duration>16</duration><voice>5</voice><type>whole</type><staff>2</staff></note></measure><measure number="49" width="143.91"><attributes/><note default-x="15.32" default-y="-20.00" dynamics="88.89"><pitch><step>B</step><alter>-1</alter><octave>4</octave></pitch><duration>4</duration><voice>1</voice><type>quarter</type><stem>down</stem><staff>1</staff></note><note default-x="43.96" default-y="-35.00" dynamics="88.89"><pitch><step>F</step><octave>4</octave></pitch><duration>3</duration><voice>1</voice><type>eighth</type><dot/><stem>up</stem><staff>1</staff><beam number="1">begin</beam></note><note default-x="69.36" default-y="-30.00" dynamics="88.89"><pitch><step>G</step><octave>4</octave></pitch><duration>1</duration><voice>1</voice><type>16th</type><stem>up</stem><staff>1</staff><beam number="1">end</beam><beam number="2">backward hook</beam></note><note default-x="85.03" default-y="-20.00" dynamics="88.89"><pitch><step>B</step><alter>-1</alter><octave>4</octave></pitch><duration>4</duration><voice>1</voice><type>quarter</type><stem>down</stem><staff>1</staff></note><note default-x="113.67" default-y="-20.00" dynamics="88.89"><pitch><step>B</step><alter>-1</alter><octave>4</octave></pitch><duration>4</duration><voice>1</voice><type>quarter</type><stem>down</stem><staff>1</staff></note><backup><duration>16</duration></backup><note default-x="12.00" default-y="-135.00" dynamics="88.89"><pitch><step>B</step><alter>-1</alter><octave>2</octave></pitch><duration>16</duration><voice>5</voice><type>whole</type><staff>2</staff></note></measure><measure number="50" width="143.91"><attributes/><note default-x="15.32" default-y="-20.00" dynamics="88.89"><pitch><step>B</step><alter>-1</alter><octave>4</octave></pitch><duration>4</duration><voice>1</voice><type>quarter</type><stem>down</stem><staff>1</staff></note><note default-x="43.96" default-y="-20.00" dynamics="88.89"><pitch><step>B</step><alter>-1</alter><octave>4</octave></pitch><duration>4</duration><voice>1</voice><type>quarter</type><stem>down</stem><staff>1</staff></note><note default-x="72.60" default-y="-20.00" dynamics="88.89"><pitch><step>B</step><alter>-1</alter><octave>4</octave></pitch><duration>3</duration><voice>1</voice><type>eighth</type><dot/><stem>up</stem><staff>1</staff><beam number="1">begin</beam></note><note default-x="98.00" default-y="-30.00" dynamics="88.89"><pitch><step>G</step><octave>4</octave></pitch><duration>1</duration><voice>1</voice><type>16th</type><stem>up</stem><staff>1</staff><beam number="1">end</beam><beam number="2">backward hook</beam></note><note default-x="113.67" default-y="-35.00" dynamics="88.89"><pitch><step>F</step><octave>4</octave></pitch><duration>4</duration><voice>1</voice><type>quarter</type><stem>up</stem><staff>1</staff></note><backup><duration>16</duration></backup><note default-x="12.00" default-y="-135.00" dynamics="88.89"><pitch><step>B</step><alter>-1</alter><octave>2</octave></pitch><duration>16</duration><voice>5</voice><type>whole</type><staff>2</staff></note></measure><measure number="51" width="140.47"><attributes/><note><rest/><duration>4</duration><voice>1</voice><type>quarter</type><staff>1</staff></note><note default-x="43.08" default-y="-35.00" dynamics="88.89"><pitch><step>F</step><octave>4</octave></pitch><duration>3</duration><voice>1</voice><type>eighth</type><dot/><stem>up</stem><staff>1</staff><beam number="1">begin</beam></note><note default-x="67.69" default-y="-30.00" dynamics="88.89"><pitch><step>G</step><octave>4</octave></pitch><duration>1</duration><voice>1</voice><type>16th</type><stem>up</stem><staff>1</staff><beam number="1">end</beam><beam number="2">backward hook</beam></note><note default-x="83.36" default-y="-20.00" dynamics="88.89"><pitch><step>B</step><alter>-1</alter><octave>4</octave></pitch><duration>4</duration><voice>1</voice><type>quarter</type><stem>down</stem><staff>1</staff></note><note default-x="111.12" default-y="-20.00" dynamics="88.89"><pitch><step>B</step><alter>-1</alter><octave>4</octave></pitch><duration>4</duration><voice>1</voice><type>quarter</type><stem>down</stem><staff>1</staff></note><backup><duration>16</duration></backup><note default-x="12.00" default-y="-135.00" dynamics="88.89"><pitch><step>B</step><alter>-1</alter><octave>2</octave></pitch><duration>16</duration><voice>5</voice><type>whole</type><staff>2</staff></note></measure><measure number="52" width="244.88"><print new-system="yes"/><attributes/><note default-x="78.68" default-y="-20.00" dynamics="88.89"><pitch><step>B</step><alter>-1</alter><octave>4</octave></pitch><duration>4</duration><voice>1</voice><type>quarter</type><stem>down</stem><staff>1</staff></note><note default-x="116.59" default-y="-20.00" dynamics="88.89"><pitch><step>B</step><alter>-1</alter><octave>4</octave></pitch><duration>4</duration><voice>1</voice><type>quarter</type><stem>down</stem><staff>1</staff></note><note default-x="154.51" default-y="-20.00" dynamics="88.89"><pitch><step>B</step><alter>-1</alter><octave>4</octave></pitch><duration>3</duration><voice>1</voice><type>eighth</type><dot/><stem>up</stem><staff>1</staff><beam number="1">begin</beam></note><note default-x="188.13" default-y="-30.00" dynamics="88.89"><pitch><step>G</step><octave>4</octave></pitch><duration>1</duration><voice>1</voice><type>16th</type><stem>up</stem><staff>1</staff><beam number="1">end</beam><beam number="2">backward hook</beam></note><note default-x="205.36" default-y="-35.00" dynamics="88.89"><pitch><step>F</step><octave>4</octave></pitch><duration>4</duration><voice>1</voice><type>quarter</type><stem>up</stem><staff>1</staff></note><backup><duration>16</duration></backup><note default-x="75.36" default-y="-130.00" dynamics="88.89"><pitch><step>C</step><octave>3</octave></pitch><duration>16</duration><voice>5</voice><type>whole</type><staff>2</staff></note></measure><measure number="53" width="188.20"><attributes/><note default-x="15.32" default-y="-20.00" dynamics="88.89"><pitch><step>B</step><alter>-1</alter><octave>4</octave></pitch><duration>4</duration><voice>1</voice><type>quarter</type><stem>down</stem><staff>1</staff></note><note default-x="54.77" default-y="-35.00" dynamics="88.89"><pitch><step>F</step><octave>4</octave></pitch><duration>3</duration><voice>1</voice><type>eighth</type><dot/><stem>up</stem><staff>1</staff><beam number="1">begin</beam></note><note default-x="89.76" default-y="-30.00" dynamics="88.89"><pitch><step>G</step><octave>4</octave></pitch><duration>1</duration><voice>1</voice><type>16th</type><stem>up</stem><staff>1</staff><beam number="1">end</beam><beam number="2">backward hook</beam></note><note default-x="107.69" default-y="-20.00" dynamics="88.89"><pitch><step>B</step><alter>-1</alter><octave>4</octave></pitch><duration>4</duration><voice>1</voice><type>quarter</type><stem>down</stem><staff>1</staff></note><note default-x="147.15" default-y="-20.00" dynamics="88.89"><pitch><step>B</step><alter>-1</alter><octave>4</octave></pitch><duration>4</duration><voice>1</voice><type>quarter</type><stem>down</stem><staff>1</staff></note><backup><duration>16</duration></backup><note default-x="12.00" default-y="-145.00" dynamics="88.89"><pitch><step>G</step><octave>2</octave></pitch><duration>16</duration><voice>5</voice><type>whole</type><staff>2</staff></note></measure><measure number="54" width="188.20"><attributes/><note default-x="15.32" default-y="-20.00" dynamics="88.89"><pitch><step>B</step><alter>-1</alter><octave>4</octave></pitch><duration>4</duration><voice>1</voice><type>quarter</type><stem>down</stem><staff>1</staff></note><note default-x="54.77" default-y="-20.00" dynamics="88.89"><pitch><step>B</step><alter>-1</alter><octave>4</octave></pitch><duration>4</duration><voice>1</voice><type>quarter</type><stem>down</stem><staff>1</staff></note><note default-x="94.23" default-y="-20.00" dynamics="88.89"><pitch><step>B</step><alter>-1</alter><octave>4</octave></pitch><duration>3</duration><voice>1</voice><type>eighth</type><dot/><stem>up</stem><staff>1</staff><beam number="1">begin</beam></note><note default-x="129.21" default-y="-30.00" dynamics="88.89"><pitch><step>G</step><octave>4</octave></pitch><duration>1</duration><voice>1</voice><type>16th</type><stem>up</stem><staff>1</staff><beam number="1">end</beam><beam number="2">backward hook</beam></note><note default-x="147.15" default-y="-35.00" dynamics="88.89"><pitch><step>F</step><octave>4</octave></pitch><duration>4</duration><voice>1</voice><type>quarter</type><stem>up</stem><staff>1</staff></note><backup><duration>16</duration></backup><note default-x="12.00" default-y="-145.00" dynamics="88.89"><pitch><step>G</step><octave>2</octave></pitch><duration>16</duration><voice>5</voice><type>whole</type><staff>2</staff></note></measure><measure number="55" width="164.50"><attributes/><note default-x="15.32" default-y="-20.00" dynamics="88.89"><pitch><step>B</step><alter>-1</alter><octave>4</octave></pitch><duration>4</duration><voice>1</voice><type>quarter</type><stem>down</stem><staff>1</staff></note><note default-x="52.22" default-y="-15.00" dynamics="88.89"><pitch><step>C</step><octave>5</octave></pitch><duration>4</duration><voice>1</voice><type>quarter</type><stem>down</stem><staff>1</staff></note><note default-x="89.11" default-y="-10.00" dynamics="88.89"><pitch><step>D</step><octave>5</octave></pitch><duration>4</duration><voice>1</voice><type>quarter</type><stem>down</stem><staff>1</staff></note><note default-x="126.01" default-y="-15.00" dynamics="88.89"><pitch><step>C</step><octave>5</octave></pitch><duration>4</duration><tie type="start"/><voice>1</voice><type>quarter</type><stem>down</stem><staff>1</staff><notations><tied type="start"/></notations></note><backup><duration>16</duration></backup><note default-x="12.00" default-y="-145.00" dynamics="88.89"><pitch><step>G</step><octave>2</octave></pitch><duration>16</duration><voice>5</voice><type>whole</type><staff>2</staff></note></measure><measure number="56" width="149.56"><attributes/><note default-x="15.32" default-y="-15.00" dynamics="88.89"><pitch><step>C</step><octave>5</octave></pitch><duration>4</duration><tie type="stop"/><voice>1</voice><type>quarter</type><stem>down</stem><staff>1</staff><notations><tied type="stop"/></notations></note><note default-x="52.16" default-y="-30.00" dynamics="88.89"><pitch><step>G</step><octave>4</octave></pitch><duration>4</duration><voice>1</voice><type>quarter</type><stem>up</stem><staff>1</staff></note><note default-x="88.65" default-y="-35.00" dynamics="88.89"><pitch><step>F</step><octave>4</octave></pitch><duration>8</duration><voice>1</voice><type>half</type><stem>up</stem><staff>1</staff></note><backup><duration>16</duration></backup><note default-x="12.00" default-y="-120.00" dynamics="88.89"><pitch><step>E</step><alter>-1</alter><octave>3</octave></pitch><duration>16</duration><voice>5</voice><type>whole</type><staff>2</staff></note></measure><measure number="57" width="120.83"><attributes/><note default-x="12.00" default-y="-20.00" dynamics="88.89"><pitch><step>B</step><alter>-1</alter><octave>4</octave></pitch><duration>16</duration><voice>1</voice><type>whole</type><staff>1</staff></note><backup><duration>16</duration></backup><note default-x="12.00" default-y="-135.00" dynamics="88.89"><pitch><step>B</step><alter>-1</alter><octave>2</octave></pitch><duration>16</duration><voice>5</voice><type>whole</type><staff>2</staff></note></measure></part></score-partwise>